<?xml version="1.0" encoding="utf-8" standalone="no"?>
<!DOCTYPE svg PUBLIC "-//W3C//DTD SVG 1.1//EN"
  "http://www.w3.org/Graphics/SVG/1.1/DTD/svg11.dtd">
<svg xmlns:xlink="http://www.w3.org/1999/xlink" width="365.749687pt" height="300.766625pt" viewBox="0 0 365.749687 300.766625" xmlns="http://www.w3.org/2000/svg" version="1.1">
 <metadata>
  <rdf:RDF xmlns:dc="http://purl.org/dc/elements/1.1/" xmlns:cc="http://creativecommons.org/ns#" xmlns:rdf="http://www.w3.org/1999/02/22-rdf-syntax-ns#">
   <cc:Work>
    <dc:type rdf:resource="http://purl.org/dc/dcmitype/StillImage"/>
    <dc:date>2025-04-30T12:54:26.391213</dc:date>
    <dc:format>image/svg+xml</dc:format>
    <dc:creator>
     <cc:Agent>
      <dc:title>Matplotlib v3.5.3, https://matplotlib.org/</dc:title>
     </cc:Agent>
    </dc:creator>
   </cc:Work>
  </rdf:RDF>
 </metadata>
 <defs>
  <style type="text/css">*{stroke-linejoin: round; stroke-linecap: butt}</style>
 </defs>
 <g id="figure_1">
  <g id="patch_1">
   <path d="M 0 300.766625 
L 365.749687 300.766625 
L 365.749687 0 
L 0 0 
z
" style="fill: #ffffff"/>
  </g>
  <g id="axes_1">
   <g id="patch_2">
    <path d="M 70.005938 261.27475 
L 349.005938 261.27475 
L 349.005938 39.51475 
L 70.005938 39.51475 
z
" style="fill: #ffffff"/>
   </g>
   <g id="matplotlib.axis_1">
    <g id="xtick_1">
     <g id="line2d_1">
      <path d="M 70.005938 261.27475 
L 70.005938 39.51475 
" clip-path="url(#p5d26375c5f)" style="fill: none; stroke-dasharray: 0.8,1.32; stroke-dashoffset: 0; stroke: #cccccc; stroke-opacity: 0.6; stroke-width: 0.8"/>
     </g>
     <g id="line2d_2">
      <defs>
       <path id="m383bbb768a" d="M 0 0 
L 0 3.5 
" style="stroke: #262626; stroke-width: 0.8"/>
      </defs>
      <g>
       <use xlink:href="#m383bbb768a" x="70.005938" y="261.27475" style="fill: #262626; stroke: #262626; stroke-width: 0.8"/>
      </g>
     </g>
     <g id="text_1">
      <!-- 200 -->
      <g style="fill: #262626" transform="translate(60.462188 275.873187)scale(0.1 -0.1)">
       <defs>
        <path id="DejaVuSans-32" d="M 1228 531 
L 3431 531 
L 3431 0 
L 469 0 
L 469 531 
Q 828 903 1448 1529 
Q 2069 2156 2228 2338 
Q 2531 2678 2651 2914 
Q 2772 3150 2772 3378 
Q 2772 3750 2511 3984 
Q 2250 4219 1831 4219 
Q 1534 4219 1204 4116 
Q 875 4013 500 3803 
L 500 4441 
Q 881 4594 1212 4672 
Q 1544 4750 1819 4750 
Q 2544 4750 2975 4387 
Q 3406 4025 3406 3419 
Q 3406 3131 3298 2873 
Q 3191 2616 2906 2266 
Q 2828 2175 2409 1742 
Q 1991 1309 1228 531 
z
" transform="scale(0.015625)"/>
        <path id="DejaVuSans-30" d="M 2034 4250 
Q 1547 4250 1301 3770 
Q 1056 3291 1056 2328 
Q 1056 1369 1301 889 
Q 1547 409 2034 409 
Q 2525 409 2770 889 
Q 3016 1369 3016 2328 
Q 3016 3291 2770 3770 
Q 2525 4250 2034 4250 
z
M 2034 4750 
Q 2819 4750 3233 4129 
Q 3647 3509 3647 2328 
Q 3647 1150 3233 529 
Q 2819 -91 2034 -91 
Q 1250 -91 836 529 
Q 422 1150 422 2328 
Q 422 3509 836 4129 
Q 1250 4750 2034 4750 
z
" transform="scale(0.015625)"/>
       </defs>
       <use xlink:href="#DejaVuSans-32"/>
       <use xlink:href="#DejaVuSans-30" x="63.623047"/>
       <use xlink:href="#DejaVuSans-30" x="127.246094"/>
      </g>
     </g>
    </g>
    <g id="xtick_2">
     <g id="line2d_3">
      <path d="M 116.505938 261.27475 
L 116.505938 39.51475 
" clip-path="url(#p5d26375c5f)" style="fill: none; stroke-dasharray: 0.8,1.32; stroke-dashoffset: 0; stroke: #cccccc; stroke-opacity: 0.6; stroke-width: 0.8"/>
     </g>
     <g id="line2d_4">
      <g>
       <use xlink:href="#m383bbb768a" x="116.505938" y="261.27475" style="fill: #262626; stroke: #262626; stroke-width: 0.8"/>
      </g>
     </g>
     <g id="text_2">
      <!-- 210 -->
      <g style="fill: #262626" transform="translate(106.962188 275.873187)scale(0.1 -0.1)">
       <defs>
        <path id="DejaVuSans-31" d="M 794 531 
L 1825 531 
L 1825 4091 
L 703 3866 
L 703 4441 
L 1819 4666 
L 2450 4666 
L 2450 531 
L 3481 531 
L 3481 0 
L 794 0 
L 794 531 
z
" transform="scale(0.015625)"/>
       </defs>
       <use xlink:href="#DejaVuSans-32"/>
       <use xlink:href="#DejaVuSans-31" x="63.623047"/>
       <use xlink:href="#DejaVuSans-30" x="127.246094"/>
      </g>
     </g>
    </g>
    <g id="xtick_3">
     <g id="line2d_5">
      <path d="M 163.005938 261.27475 
L 163.005938 39.51475 
" clip-path="url(#p5d26375c5f)" style="fill: none; stroke-dasharray: 0.8,1.32; stroke-dashoffset: 0; stroke: #cccccc; stroke-opacity: 0.6; stroke-width: 0.8"/>
     </g>
     <g id="line2d_6">
      <g>
       <use xlink:href="#m383bbb768a" x="163.005938" y="261.27475" style="fill: #262626; stroke: #262626; stroke-width: 0.8"/>
      </g>
     </g>
     <g id="text_3">
      <!-- 220 -->
      <g style="fill: #262626" transform="translate(153.462188 275.873187)scale(0.1 -0.1)">
       <use xlink:href="#DejaVuSans-32"/>
       <use xlink:href="#DejaVuSans-32" x="63.623047"/>
       <use xlink:href="#DejaVuSans-30" x="127.246094"/>
      </g>
     </g>
    </g>
    <g id="xtick_4">
     <g id="line2d_7">
      <path d="M 209.505938 261.27475 
L 209.505938 39.51475 
" clip-path="url(#p5d26375c5f)" style="fill: none; stroke-dasharray: 0.8,1.32; stroke-dashoffset: 0; stroke: #cccccc; stroke-opacity: 0.6; stroke-width: 0.8"/>
     </g>
     <g id="line2d_8">
      <g>
       <use xlink:href="#m383bbb768a" x="209.505938" y="261.27475" style="fill: #262626; stroke: #262626; stroke-width: 0.8"/>
      </g>
     </g>
     <g id="text_4">
      <!-- 230 -->
      <g style="fill: #262626" transform="translate(199.962188 275.873187)scale(0.1 -0.1)">
       <defs>
        <path id="DejaVuSans-33" d="M 2597 2516 
Q 3050 2419 3304 2112 
Q 3559 1806 3559 1356 
Q 3559 666 3084 287 
Q 2609 -91 1734 -91 
Q 1441 -91 1130 -33 
Q 819 25 488 141 
L 488 750 
Q 750 597 1062 519 
Q 1375 441 1716 441 
Q 2309 441 2620 675 
Q 2931 909 2931 1356 
Q 2931 1769 2642 2001 
Q 2353 2234 1838 2234 
L 1294 2234 
L 1294 2753 
L 1863 2753 
Q 2328 2753 2575 2939 
Q 2822 3125 2822 3475 
Q 2822 3834 2567 4026 
Q 2313 4219 1838 4219 
Q 1578 4219 1281 4162 
Q 984 4106 628 3988 
L 628 4550 
Q 988 4650 1302 4700 
Q 1616 4750 1894 4750 
Q 2613 4750 3031 4423 
Q 3450 4097 3450 3541 
Q 3450 3153 3228 2886 
Q 3006 2619 2597 2516 
z
" transform="scale(0.015625)"/>
       </defs>
       <use xlink:href="#DejaVuSans-32"/>
       <use xlink:href="#DejaVuSans-33" x="63.623047"/>
       <use xlink:href="#DejaVuSans-30" x="127.246094"/>
      </g>
     </g>
    </g>
    <g id="xtick_5">
     <g id="line2d_9">
      <path d="M 256.005938 261.27475 
L 256.005938 39.51475 
" clip-path="url(#p5d26375c5f)" style="fill: none; stroke-dasharray: 0.8,1.32; stroke-dashoffset: 0; stroke: #cccccc; stroke-opacity: 0.6; stroke-width: 0.8"/>
     </g>
     <g id="line2d_10">
      <g>
       <use xlink:href="#m383bbb768a" x="256.005938" y="261.27475" style="fill: #262626; stroke: #262626; stroke-width: 0.8"/>
      </g>
     </g>
     <g id="text_5">
      <!-- 240 -->
      <g style="fill: #262626" transform="translate(246.462188 275.873187)scale(0.1 -0.1)">
       <defs>
        <path id="DejaVuSans-34" d="M 2419 4116 
L 825 1625 
L 2419 1625 
L 2419 4116 
z
M 2253 4666 
L 3047 4666 
L 3047 1625 
L 3713 1625 
L 3713 1100 
L 3047 1100 
L 3047 0 
L 2419 0 
L 2419 1100 
L 313 1100 
L 313 1709 
L 2253 4666 
z
" transform="scale(0.015625)"/>
       </defs>
       <use xlink:href="#DejaVuSans-32"/>
       <use xlink:href="#DejaVuSans-34" x="63.623047"/>
       <use xlink:href="#DejaVuSans-30" x="127.246094"/>
      </g>
     </g>
    </g>
    <g id="xtick_6">
     <g id="line2d_11">
      <path d="M 302.505938 261.27475 
L 302.505938 39.51475 
" clip-path="url(#p5d26375c5f)" style="fill: none; stroke-dasharray: 0.8,1.32; stroke-dashoffset: 0; stroke: #cccccc; stroke-opacity: 0.6; stroke-width: 0.8"/>
     </g>
     <g id="line2d_12">
      <g>
       <use xlink:href="#m383bbb768a" x="302.505938" y="261.27475" style="fill: #262626; stroke: #262626; stroke-width: 0.8"/>
      </g>
     </g>
     <g id="text_6">
      <!-- 250 -->
      <g style="fill: #262626" transform="translate(292.962188 275.873187)scale(0.1 -0.1)">
       <defs>
        <path id="DejaVuSans-35" d="M 691 4666 
L 3169 4666 
L 3169 4134 
L 1269 4134 
L 1269 2991 
Q 1406 3038 1543 3061 
Q 1681 3084 1819 3084 
Q 2600 3084 3056 2656 
Q 3513 2228 3513 1497 
Q 3513 744 3044 326 
Q 2575 -91 1722 -91 
Q 1428 -91 1123 -41 
Q 819 9 494 109 
L 494 744 
Q 775 591 1075 516 
Q 1375 441 1709 441 
Q 2250 441 2565 725 
Q 2881 1009 2881 1497 
Q 2881 1984 2565 2268 
Q 2250 2553 1709 2553 
Q 1456 2553 1204 2497 
Q 953 2441 691 2322 
L 691 4666 
z
" transform="scale(0.015625)"/>
       </defs>
       <use xlink:href="#DejaVuSans-32"/>
       <use xlink:href="#DejaVuSans-35" x="63.623047"/>
       <use xlink:href="#DejaVuSans-30" x="127.246094"/>
      </g>
     </g>
    </g>
    <g id="xtick_7">
     <g id="line2d_13">
      <path d="M 349.005938 261.27475 
L 349.005938 39.51475 
" clip-path="url(#p5d26375c5f)" style="fill: none; stroke-dasharray: 0.8,1.32; stroke-dashoffset: 0; stroke: #cccccc; stroke-opacity: 0.6; stroke-width: 0.8"/>
     </g>
     <g id="line2d_14">
      <g>
       <use xlink:href="#m383bbb768a" x="349.005938" y="261.27475" style="fill: #262626; stroke: #262626; stroke-width: 0.8"/>
      </g>
     </g>
     <g id="text_7">
      <!-- 260 -->
      <g style="fill: #262626" transform="translate(339.462188 275.873187)scale(0.1 -0.1)">
       <defs>
        <path id="DejaVuSans-36" d="M 2113 2584 
Q 1688 2584 1439 2293 
Q 1191 2003 1191 1497 
Q 1191 994 1439 701 
Q 1688 409 2113 409 
Q 2538 409 2786 701 
Q 3034 994 3034 1497 
Q 3034 2003 2786 2293 
Q 2538 2584 2113 2584 
z
M 3366 4563 
L 3366 3988 
Q 3128 4100 2886 4159 
Q 2644 4219 2406 4219 
Q 1781 4219 1451 3797 
Q 1122 3375 1075 2522 
Q 1259 2794 1537 2939 
Q 1816 3084 2150 3084 
Q 2853 3084 3261 2657 
Q 3669 2231 3669 1497 
Q 3669 778 3244 343 
Q 2819 -91 2113 -91 
Q 1303 -91 875 529 
Q 447 1150 447 2328 
Q 447 3434 972 4092 
Q 1497 4750 2381 4750 
Q 2619 4750 2861 4703 
Q 3103 4656 3366 4563 
z
" transform="scale(0.015625)"/>
       </defs>
       <use xlink:href="#DejaVuSans-32"/>
       <use xlink:href="#DejaVuSans-36" x="63.623047"/>
       <use xlink:href="#DejaVuSans-30" x="127.246094"/>
      </g>
     </g>
    </g>
    <g id="text_8">
     <!-- Wavelength (nm) -->
     <g style="fill: #262626" transform="translate(157.675313 291.071)scale(0.12 -0.12)">
      <defs>
       <path id="DejaVuSans-57" d="M 213 4666 
L 850 4666 
L 1831 722 
L 2809 4666 
L 3519 4666 
L 4500 722 
L 5478 4666 
L 6119 4666 
L 4947 0 
L 4153 0 
L 3169 4050 
L 2175 0 
L 1381 0 
L 213 4666 
z
" transform="scale(0.015625)"/>
       <path id="DejaVuSans-61" d="M 2194 1759 
Q 1497 1759 1228 1600 
Q 959 1441 959 1056 
Q 959 750 1161 570 
Q 1363 391 1709 391 
Q 2188 391 2477 730 
Q 2766 1069 2766 1631 
L 2766 1759 
L 2194 1759 
z
M 3341 1997 
L 3341 0 
L 2766 0 
L 2766 531 
Q 2569 213 2275 61 
Q 1981 -91 1556 -91 
Q 1019 -91 701 211 
Q 384 513 384 1019 
Q 384 1609 779 1909 
Q 1175 2209 1959 2209 
L 2766 2209 
L 2766 2266 
Q 2766 2663 2505 2880 
Q 2244 3097 1772 3097 
Q 1472 3097 1187 3025 
Q 903 2953 641 2809 
L 641 3341 
Q 956 3463 1253 3523 
Q 1550 3584 1831 3584 
Q 2591 3584 2966 3190 
Q 3341 2797 3341 1997 
z
" transform="scale(0.015625)"/>
       <path id="DejaVuSans-76" d="M 191 3500 
L 800 3500 
L 1894 563 
L 2988 3500 
L 3597 3500 
L 2284 0 
L 1503 0 
L 191 3500 
z
" transform="scale(0.015625)"/>
       <path id="DejaVuSans-65" d="M 3597 1894 
L 3597 1613 
L 953 1613 
Q 991 1019 1311 708 
Q 1631 397 2203 397 
Q 2534 397 2845 478 
Q 3156 559 3463 722 
L 3463 178 
Q 3153 47 2828 -22 
Q 2503 -91 2169 -91 
Q 1331 -91 842 396 
Q 353 884 353 1716 
Q 353 2575 817 3079 
Q 1281 3584 2069 3584 
Q 2775 3584 3186 3129 
Q 3597 2675 3597 1894 
z
M 3022 2063 
Q 3016 2534 2758 2815 
Q 2500 3097 2075 3097 
Q 1594 3097 1305 2825 
Q 1016 2553 972 2059 
L 3022 2063 
z
" transform="scale(0.015625)"/>
       <path id="DejaVuSans-6c" d="M 603 4863 
L 1178 4863 
L 1178 0 
L 603 0 
L 603 4863 
z
" transform="scale(0.015625)"/>
       <path id="DejaVuSans-6e" d="M 3513 2113 
L 3513 0 
L 2938 0 
L 2938 2094 
Q 2938 2591 2744 2837 
Q 2550 3084 2163 3084 
Q 1697 3084 1428 2787 
Q 1159 2491 1159 1978 
L 1159 0 
L 581 0 
L 581 3500 
L 1159 3500 
L 1159 2956 
Q 1366 3272 1645 3428 
Q 1925 3584 2291 3584 
Q 2894 3584 3203 3211 
Q 3513 2838 3513 2113 
z
" transform="scale(0.015625)"/>
       <path id="DejaVuSans-67" d="M 2906 1791 
Q 2906 2416 2648 2759 
Q 2391 3103 1925 3103 
Q 1463 3103 1205 2759 
Q 947 2416 947 1791 
Q 947 1169 1205 825 
Q 1463 481 1925 481 
Q 2391 481 2648 825 
Q 2906 1169 2906 1791 
z
M 3481 434 
Q 3481 -459 3084 -895 
Q 2688 -1331 1869 -1331 
Q 1566 -1331 1297 -1286 
Q 1028 -1241 775 -1147 
L 775 -588 
Q 1028 -725 1275 -790 
Q 1522 -856 1778 -856 
Q 2344 -856 2625 -561 
Q 2906 -266 2906 331 
L 2906 616 
Q 2728 306 2450 153 
Q 2172 0 1784 0 
Q 1141 0 747 490 
Q 353 981 353 1791 
Q 353 2603 747 3093 
Q 1141 3584 1784 3584 
Q 2172 3584 2450 3431 
Q 2728 3278 2906 2969 
L 2906 3500 
L 3481 3500 
L 3481 434 
z
" transform="scale(0.015625)"/>
       <path id="DejaVuSans-74" d="M 1172 4494 
L 1172 3500 
L 2356 3500 
L 2356 3053 
L 1172 3053 
L 1172 1153 
Q 1172 725 1289 603 
Q 1406 481 1766 481 
L 2356 481 
L 2356 0 
L 1766 0 
Q 1100 0 847 248 
Q 594 497 594 1153 
L 594 3053 
L 172 3053 
L 172 3500 
L 594 3500 
L 594 4494 
L 1172 4494 
z
" transform="scale(0.015625)"/>
       <path id="DejaVuSans-68" d="M 3513 2113 
L 3513 0 
L 2938 0 
L 2938 2094 
Q 2938 2591 2744 2837 
Q 2550 3084 2163 3084 
Q 1697 3084 1428 2787 
Q 1159 2491 1159 1978 
L 1159 0 
L 581 0 
L 581 4863 
L 1159 4863 
L 1159 2956 
Q 1366 3272 1645 3428 
Q 1925 3584 2291 3584 
Q 2894 3584 3203 3211 
Q 3513 2838 3513 2113 
z
" transform="scale(0.015625)"/>
       <path id="DejaVuSans-20" transform="scale(0.015625)"/>
       <path id="DejaVuSans-28" d="M 1984 4856 
Q 1566 4138 1362 3434 
Q 1159 2731 1159 2009 
Q 1159 1288 1364 580 
Q 1569 -128 1984 -844 
L 1484 -844 
Q 1016 -109 783 600 
Q 550 1309 550 2009 
Q 550 2706 781 3412 
Q 1013 4119 1484 4856 
L 1984 4856 
z
" transform="scale(0.015625)"/>
       <path id="DejaVuSans-6d" d="M 3328 2828 
Q 3544 3216 3844 3400 
Q 4144 3584 4550 3584 
Q 5097 3584 5394 3201 
Q 5691 2819 5691 2113 
L 5691 0 
L 5113 0 
L 5113 2094 
Q 5113 2597 4934 2840 
Q 4756 3084 4391 3084 
Q 3944 3084 3684 2787 
Q 3425 2491 3425 1978 
L 3425 0 
L 2847 0 
L 2847 2094 
Q 2847 2600 2669 2842 
Q 2491 3084 2119 3084 
Q 1678 3084 1418 2786 
Q 1159 2488 1159 1978 
L 1159 0 
L 581 0 
L 581 3500 
L 1159 3500 
L 1159 2956 
Q 1356 3278 1631 3431 
Q 1906 3584 2284 3584 
Q 2666 3584 2933 3390 
Q 3200 3197 3328 2828 
z
" transform="scale(0.015625)"/>
       <path id="DejaVuSans-29" d="M 513 4856 
L 1013 4856 
Q 1481 4119 1714 3412 
Q 1947 2706 1947 2009 
Q 1947 1309 1714 600 
Q 1481 -109 1013 -844 
L 513 -844 
Q 928 -128 1133 580 
Q 1338 1288 1338 2009 
Q 1338 2731 1133 3434 
Q 928 4138 513 4856 
z
" transform="scale(0.015625)"/>
      </defs>
      <use xlink:href="#DejaVuSans-57"/>
      <use xlink:href="#DejaVuSans-61" x="92.501953"/>
      <use xlink:href="#DejaVuSans-76" x="153.78125"/>
      <use xlink:href="#DejaVuSans-65" x="212.960938"/>
      <use xlink:href="#DejaVuSans-6c" x="274.484375"/>
      <use xlink:href="#DejaVuSans-65" x="302.267578"/>
      <use xlink:href="#DejaVuSans-6e" x="363.791016"/>
      <use xlink:href="#DejaVuSans-67" x="427.169922"/>
      <use xlink:href="#DejaVuSans-74" x="490.646484"/>
      <use xlink:href="#DejaVuSans-68" x="529.855469"/>
      <use xlink:href="#DejaVuSans-20" x="593.234375"/>
      <use xlink:href="#DejaVuSans-28" x="625.021484"/>
      <use xlink:href="#DejaVuSans-6e" x="664.035156"/>
      <use xlink:href="#DejaVuSans-6d" x="727.414062"/>
      <use xlink:href="#DejaVuSans-29" x="824.826172"/>
     </g>
    </g>
   </g>
   <g id="matplotlib.axis_2">
    <g id="ytick_1">
     <g id="line2d_15">
      <path d="M 70.005938 261.27475 
L 349.005938 261.27475 
" clip-path="url(#p5d26375c5f)" style="fill: none; stroke-dasharray: 0.8,1.32; stroke-dashoffset: 0; stroke: #cccccc; stroke-opacity: 0.6; stroke-width: 0.8"/>
     </g>
     <g id="line2d_16">
      <defs>
       <path id="me98da47540" d="M 0 0 
L -3.5 0 
" style="stroke: #262626; stroke-width: 0.8"/>
      </defs>
      <g>
       <use xlink:href="#me98da47540" x="70.005938" y="261.27475" style="fill: #262626; stroke: #262626; stroke-width: 0.8"/>
      </g>
     </g>
     <g id="text_9">
      <!-- −40000 -->
      <g style="fill: #262626" transform="translate(22.81375 265.073969)scale(0.1 -0.1)">
       <defs>
        <path id="DejaVuSans-2212" d="M 678 2272 
L 4684 2272 
L 4684 1741 
L 678 1741 
L 678 2272 
z
" transform="scale(0.015625)"/>
       </defs>
       <use xlink:href="#DejaVuSans-2212"/>
       <use xlink:href="#DejaVuSans-34" x="83.789062"/>
       <use xlink:href="#DejaVuSans-30" x="147.412109"/>
       <use xlink:href="#DejaVuSans-30" x="211.035156"/>
       <use xlink:href="#DejaVuSans-30" x="274.658203"/>
       <use xlink:href="#DejaVuSans-30" x="338.28125"/>
      </g>
     </g>
    </g>
    <g id="ytick_2">
     <g id="line2d_17">
      <path d="M 70.005938 233.55475 
L 349.005938 233.55475 
" clip-path="url(#p5d26375c5f)" style="fill: none; stroke-dasharray: 0.8,1.32; stroke-dashoffset: 0; stroke: #cccccc; stroke-opacity: 0.6; stroke-width: 0.8"/>
     </g>
     <g id="line2d_18">
      <g>
       <use xlink:href="#me98da47540" x="70.005938" y="233.55475" style="fill: #262626; stroke: #262626; stroke-width: 0.8"/>
      </g>
     </g>
     <g id="text_10">
      <!-- −35000 -->
      <g style="fill: #262626" transform="translate(22.81375 237.353969)scale(0.1 -0.1)">
       <use xlink:href="#DejaVuSans-2212"/>
       <use xlink:href="#DejaVuSans-33" x="83.789062"/>
       <use xlink:href="#DejaVuSans-35" x="147.412109"/>
       <use xlink:href="#DejaVuSans-30" x="211.035156"/>
       <use xlink:href="#DejaVuSans-30" x="274.658203"/>
       <use xlink:href="#DejaVuSans-30" x="338.28125"/>
      </g>
     </g>
    </g>
    <g id="ytick_3">
     <g id="line2d_19">
      <path d="M 70.005938 205.83475 
L 349.005938 205.83475 
" clip-path="url(#p5d26375c5f)" style="fill: none; stroke-dasharray: 0.8,1.32; stroke-dashoffset: 0; stroke: #cccccc; stroke-opacity: 0.6; stroke-width: 0.8"/>
     </g>
     <g id="line2d_20">
      <g>
       <use xlink:href="#me98da47540" x="70.005938" y="205.83475" style="fill: #262626; stroke: #262626; stroke-width: 0.8"/>
      </g>
     </g>
     <g id="text_11">
      <!-- −30000 -->
      <g style="fill: #262626" transform="translate(22.81375 209.633969)scale(0.1 -0.1)">
       <use xlink:href="#DejaVuSans-2212"/>
       <use xlink:href="#DejaVuSans-33" x="83.789062"/>
       <use xlink:href="#DejaVuSans-30" x="147.412109"/>
       <use xlink:href="#DejaVuSans-30" x="211.035156"/>
       <use xlink:href="#DejaVuSans-30" x="274.658203"/>
       <use xlink:href="#DejaVuSans-30" x="338.28125"/>
      </g>
     </g>
    </g>
    <g id="ytick_4">
     <g id="line2d_21">
      <path d="M 70.005938 178.11475 
L 349.005938 178.11475 
" clip-path="url(#p5d26375c5f)" style="fill: none; stroke-dasharray: 0.8,1.32; stroke-dashoffset: 0; stroke: #cccccc; stroke-opacity: 0.6; stroke-width: 0.8"/>
     </g>
     <g id="line2d_22">
      <g>
       <use xlink:href="#me98da47540" x="70.005938" y="178.11475" style="fill: #262626; stroke: #262626; stroke-width: 0.8"/>
      </g>
     </g>
     <g id="text_12">
      <!-- −25000 -->
      <g style="fill: #262626" transform="translate(22.81375 181.913969)scale(0.1 -0.1)">
       <use xlink:href="#DejaVuSans-2212"/>
       <use xlink:href="#DejaVuSans-32" x="83.789062"/>
       <use xlink:href="#DejaVuSans-35" x="147.412109"/>
       <use xlink:href="#DejaVuSans-30" x="211.035156"/>
       <use xlink:href="#DejaVuSans-30" x="274.658203"/>
       <use xlink:href="#DejaVuSans-30" x="338.28125"/>
      </g>
     </g>
    </g>
    <g id="ytick_5">
     <g id="line2d_23">
      <path d="M 70.005938 150.39475 
L 349.005938 150.39475 
" clip-path="url(#p5d26375c5f)" style="fill: none; stroke-dasharray: 0.8,1.32; stroke-dashoffset: 0; stroke: #cccccc; stroke-opacity: 0.6; stroke-width: 0.8"/>
     </g>
     <g id="line2d_24">
      <g>
       <use xlink:href="#me98da47540" x="70.005938" y="150.39475" style="fill: #262626; stroke: #262626; stroke-width: 0.8"/>
      </g>
     </g>
     <g id="text_13">
      <!-- −20000 -->
      <g style="fill: #262626" transform="translate(22.81375 154.193969)scale(0.1 -0.1)">
       <use xlink:href="#DejaVuSans-2212"/>
       <use xlink:href="#DejaVuSans-32" x="83.789062"/>
       <use xlink:href="#DejaVuSans-30" x="147.412109"/>
       <use xlink:href="#DejaVuSans-30" x="211.035156"/>
       <use xlink:href="#DejaVuSans-30" x="274.658203"/>
       <use xlink:href="#DejaVuSans-30" x="338.28125"/>
      </g>
     </g>
    </g>
    <g id="ytick_6">
     <g id="line2d_25">
      <path d="M 70.005938 122.67475 
L 349.005938 122.67475 
" clip-path="url(#p5d26375c5f)" style="fill: none; stroke-dasharray: 0.8,1.32; stroke-dashoffset: 0; stroke: #cccccc; stroke-opacity: 0.6; stroke-width: 0.8"/>
     </g>
     <g id="line2d_26">
      <g>
       <use xlink:href="#me98da47540" x="70.005938" y="122.67475" style="fill: #262626; stroke: #262626; stroke-width: 0.8"/>
      </g>
     </g>
     <g id="text_14">
      <!-- −15000 -->
      <g style="fill: #262626" transform="translate(22.81375 126.473969)scale(0.1 -0.1)">
       <use xlink:href="#DejaVuSans-2212"/>
       <use xlink:href="#DejaVuSans-31" x="83.789062"/>
       <use xlink:href="#DejaVuSans-35" x="147.412109"/>
       <use xlink:href="#DejaVuSans-30" x="211.035156"/>
       <use xlink:href="#DejaVuSans-30" x="274.658203"/>
       <use xlink:href="#DejaVuSans-30" x="338.28125"/>
      </g>
     </g>
    </g>
    <g id="ytick_7">
     <g id="line2d_27">
      <path d="M 70.005938 94.95475 
L 349.005938 94.95475 
" clip-path="url(#p5d26375c5f)" style="fill: none; stroke-dasharray: 0.8,1.32; stroke-dashoffset: 0; stroke: #cccccc; stroke-opacity: 0.6; stroke-width: 0.8"/>
     </g>
     <g id="line2d_28">
      <g>
       <use xlink:href="#me98da47540" x="70.005938" y="94.95475" style="fill: #262626; stroke: #262626; stroke-width: 0.8"/>
      </g>
     </g>
     <g id="text_15">
      <!-- −10000 -->
      <g style="fill: #262626" transform="translate(22.81375 98.753969)scale(0.1 -0.1)">
       <use xlink:href="#DejaVuSans-2212"/>
       <use xlink:href="#DejaVuSans-31" x="83.789062"/>
       <use xlink:href="#DejaVuSans-30" x="147.412109"/>
       <use xlink:href="#DejaVuSans-30" x="211.035156"/>
       <use xlink:href="#DejaVuSans-30" x="274.658203"/>
       <use xlink:href="#DejaVuSans-30" x="338.28125"/>
      </g>
     </g>
    </g>
    <g id="ytick_8">
     <g id="line2d_29">
      <path d="M 70.005938 67.23475 
L 349.005938 67.23475 
" clip-path="url(#p5d26375c5f)" style="fill: none; stroke-dasharray: 0.8,1.32; stroke-dashoffset: 0; stroke: #cccccc; stroke-opacity: 0.6; stroke-width: 0.8"/>
     </g>
     <g id="line2d_30">
      <g>
       <use xlink:href="#me98da47540" x="70.005938" y="67.23475" style="fill: #262626; stroke: #262626; stroke-width: 0.8"/>
      </g>
     </g>
     <g id="text_16">
      <!-- −5000 -->
      <g style="fill: #262626" transform="translate(29.17625 71.033969)scale(0.1 -0.1)">
       <use xlink:href="#DejaVuSans-2212"/>
       <use xlink:href="#DejaVuSans-35" x="83.789062"/>
       <use xlink:href="#DejaVuSans-30" x="147.412109"/>
       <use xlink:href="#DejaVuSans-30" x="211.035156"/>
       <use xlink:href="#DejaVuSans-30" x="274.658203"/>
      </g>
     </g>
    </g>
    <g id="ytick_9">
     <g id="line2d_31">
      <path d="M 70.005938 39.51475 
L 349.005938 39.51475 
" clip-path="url(#p5d26375c5f)" style="fill: none; stroke-dasharray: 0.8,1.32; stroke-dashoffset: 0; stroke: #cccccc; stroke-opacity: 0.6; stroke-width: 0.8"/>
     </g>
     <g id="line2d_32">
      <g>
       <use xlink:href="#me98da47540" x="70.005938" y="39.51475" style="fill: #262626; stroke: #262626; stroke-width: 0.8"/>
      </g>
     </g>
     <g id="text_17">
      <!-- 0 -->
      <g style="fill: #262626" transform="translate(56.643438 43.313969)scale(0.1 -0.1)">
       <use xlink:href="#DejaVuSans-30"/>
      </g>
     </g>
    </g>
    <g id="text_18">
     <!-- Mean Residue Ellipticity (deg·cm²·dmol⁻¹) -->
     <g style="fill: #262626" transform="translate(16.318125 275.5585)rotate(-90)scale(0.12 -0.12)">
      <defs>
       <path id="DejaVuSans-4d" d="M 628 4666 
L 1569 4666 
L 2759 1491 
L 3956 4666 
L 4897 4666 
L 4897 0 
L 4281 0 
L 4281 4097 
L 3078 897 
L 2444 897 
L 1241 4097 
L 1241 0 
L 628 0 
L 628 4666 
z
" transform="scale(0.015625)"/>
       <path id="DejaVuSans-52" d="M 2841 2188 
Q 3044 2119 3236 1894 
Q 3428 1669 3622 1275 
L 4263 0 
L 3584 0 
L 2988 1197 
Q 2756 1666 2539 1819 
Q 2322 1972 1947 1972 
L 1259 1972 
L 1259 0 
L 628 0 
L 628 4666 
L 2053 4666 
Q 2853 4666 3247 4331 
Q 3641 3997 3641 3322 
Q 3641 2881 3436 2590 
Q 3231 2300 2841 2188 
z
M 1259 4147 
L 1259 2491 
L 2053 2491 
Q 2509 2491 2742 2702 
Q 2975 2913 2975 3322 
Q 2975 3731 2742 3939 
Q 2509 4147 2053 4147 
L 1259 4147 
z
" transform="scale(0.015625)"/>
       <path id="DejaVuSans-73" d="M 2834 3397 
L 2834 2853 
Q 2591 2978 2328 3040 
Q 2066 3103 1784 3103 
Q 1356 3103 1142 2972 
Q 928 2841 928 2578 
Q 928 2378 1081 2264 
Q 1234 2150 1697 2047 
L 1894 2003 
Q 2506 1872 2764 1633 
Q 3022 1394 3022 966 
Q 3022 478 2636 193 
Q 2250 -91 1575 -91 
Q 1294 -91 989 -36 
Q 684 19 347 128 
L 347 722 
Q 666 556 975 473 
Q 1284 391 1588 391 
Q 1994 391 2212 530 
Q 2431 669 2431 922 
Q 2431 1156 2273 1281 
Q 2116 1406 1581 1522 
L 1381 1569 
Q 847 1681 609 1914 
Q 372 2147 372 2553 
Q 372 3047 722 3315 
Q 1072 3584 1716 3584 
Q 2034 3584 2315 3537 
Q 2597 3491 2834 3397 
z
" transform="scale(0.015625)"/>
       <path id="DejaVuSans-69" d="M 603 3500 
L 1178 3500 
L 1178 0 
L 603 0 
L 603 3500 
z
M 603 4863 
L 1178 4863 
L 1178 4134 
L 603 4134 
L 603 4863 
z
" transform="scale(0.015625)"/>
       <path id="DejaVuSans-64" d="M 2906 2969 
L 2906 4863 
L 3481 4863 
L 3481 0 
L 2906 0 
L 2906 525 
Q 2725 213 2448 61 
Q 2172 -91 1784 -91 
Q 1150 -91 751 415 
Q 353 922 353 1747 
Q 353 2572 751 3078 
Q 1150 3584 1784 3584 
Q 2172 3584 2448 3432 
Q 2725 3281 2906 2969 
z
M 947 1747 
Q 947 1113 1208 752 
Q 1469 391 1925 391 
Q 2381 391 2643 752 
Q 2906 1113 2906 1747 
Q 2906 2381 2643 2742 
Q 2381 3103 1925 3103 
Q 1469 3103 1208 2742 
Q 947 2381 947 1747 
z
" transform="scale(0.015625)"/>
       <path id="DejaVuSans-75" d="M 544 1381 
L 544 3500 
L 1119 3500 
L 1119 1403 
Q 1119 906 1312 657 
Q 1506 409 1894 409 
Q 2359 409 2629 706 
Q 2900 1003 2900 1516 
L 2900 3500 
L 3475 3500 
L 3475 0 
L 2900 0 
L 2900 538 
Q 2691 219 2414 64 
Q 2138 -91 1772 -91 
Q 1169 -91 856 284 
Q 544 659 544 1381 
z
M 1991 3584 
L 1991 3584 
z
" transform="scale(0.015625)"/>
       <path id="DejaVuSans-45" d="M 628 4666 
L 3578 4666 
L 3578 4134 
L 1259 4134 
L 1259 2753 
L 3481 2753 
L 3481 2222 
L 1259 2222 
L 1259 531 
L 3634 531 
L 3634 0 
L 628 0 
L 628 4666 
z
" transform="scale(0.015625)"/>
       <path id="DejaVuSans-70" d="M 1159 525 
L 1159 -1331 
L 581 -1331 
L 581 3500 
L 1159 3500 
L 1159 2969 
Q 1341 3281 1617 3432 
Q 1894 3584 2278 3584 
Q 2916 3584 3314 3078 
Q 3713 2572 3713 1747 
Q 3713 922 3314 415 
Q 2916 -91 2278 -91 
Q 1894 -91 1617 61 
Q 1341 213 1159 525 
z
M 3116 1747 
Q 3116 2381 2855 2742 
Q 2594 3103 2138 3103 
Q 1681 3103 1420 2742 
Q 1159 2381 1159 1747 
Q 1159 1113 1420 752 
Q 1681 391 2138 391 
Q 2594 391 2855 752 
Q 3116 1113 3116 1747 
z
" transform="scale(0.015625)"/>
       <path id="DejaVuSans-63" d="M 3122 3366 
L 3122 2828 
Q 2878 2963 2633 3030 
Q 2388 3097 2138 3097 
Q 1578 3097 1268 2742 
Q 959 2388 959 1747 
Q 959 1106 1268 751 
Q 1578 397 2138 397 
Q 2388 397 2633 464 
Q 2878 531 3122 666 
L 3122 134 
Q 2881 22 2623 -34 
Q 2366 -91 2075 -91 
Q 1284 -91 818 406 
Q 353 903 353 1747 
Q 353 2603 823 3093 
Q 1294 3584 2113 3584 
Q 2378 3584 2631 3529 
Q 2884 3475 3122 3366 
z
" transform="scale(0.015625)"/>
       <path id="DejaVuSans-79" d="M 2059 -325 
Q 1816 -950 1584 -1140 
Q 1353 -1331 966 -1331 
L 506 -1331 
L 506 -850 
L 844 -850 
Q 1081 -850 1212 -737 
Q 1344 -625 1503 -206 
L 1606 56 
L 191 3500 
L 800 3500 
L 1894 763 
L 2988 3500 
L 3597 3500 
L 2059 -325 
z
" transform="scale(0.015625)"/>
       <path id="DejaVuSans-b7" d="M 684 2619 
L 1344 2619 
L 1344 1825 
L 684 1825 
L 684 2619 
z
" transform="scale(0.015625)"/>
       <path id="DejaVuSans-b2" d="M 838 2444 
L 2163 2444 
L 2163 2088 
L 294 2088 
L 294 2431 
Q 400 2528 597 2703 
Q 1672 3656 1672 3950 
Q 1672 4156 1509 4282 
Q 1347 4409 1081 4409 
Q 919 4409 728 4354 
Q 538 4300 313 4191 
L 313 4575 
Q 553 4663 761 4706 
Q 969 4750 1147 4750 
Q 1600 4750 1872 4544 
Q 2144 4338 2144 4000 
Q 2144 3566 1109 2678 
Q 934 2528 838 2444 
z
" transform="scale(0.015625)"/>
       <path id="DejaVuSans-6f" d="M 1959 3097 
Q 1497 3097 1228 2736 
Q 959 2375 959 1747 
Q 959 1119 1226 758 
Q 1494 397 1959 397 
Q 2419 397 2687 759 
Q 2956 1122 2956 1747 
Q 2956 2369 2687 2733 
Q 2419 3097 1959 3097 
z
M 1959 3584 
Q 2709 3584 3137 3096 
Q 3566 2609 3566 1747 
Q 3566 888 3137 398 
Q 2709 -91 1959 -91 
Q 1206 -91 779 398 
Q 353 888 353 1747 
Q 353 2609 779 3096 
Q 1206 3584 1959 3584 
z
" transform="scale(0.015625)"/>
       <path id="DejaVuSans-207b" d="M 428 3359 
L 2950 3359 
L 2950 3063 
L 428 3063 
L 428 3359 
z
" transform="scale(0.015625)"/>
       <path id="DejaVuSans-b9" d="M 488 2431 
L 1125 2431 
L 1125 4341 
L 428 4213 
L 428 4575 
L 1147 4697 
L 1575 4697 
L 1575 2431 
L 2216 2431 
L 2216 2088 
L 488 2088 
L 488 2431 
z
" transform="scale(0.015625)"/>
      </defs>
      <use xlink:href="#DejaVuSans-4d"/>
      <use xlink:href="#DejaVuSans-65" x="86.279297"/>
      <use xlink:href="#DejaVuSans-61" x="147.802734"/>
      <use xlink:href="#DejaVuSans-6e" x="209.082031"/>
      <use xlink:href="#DejaVuSans-20" x="272.460938"/>
      <use xlink:href="#DejaVuSans-52" x="304.248047"/>
      <use xlink:href="#DejaVuSans-65" x="369.230469"/>
      <use xlink:href="#DejaVuSans-73" x="430.753906"/>
      <use xlink:href="#DejaVuSans-69" x="482.853516"/>
      <use xlink:href="#DejaVuSans-64" x="510.636719"/>
      <use xlink:href="#DejaVuSans-75" x="574.113281"/>
      <use xlink:href="#DejaVuSans-65" x="637.492188"/>
      <use xlink:href="#DejaVuSans-20" x="699.015625"/>
      <use xlink:href="#DejaVuSans-45" x="730.802734"/>
      <use xlink:href="#DejaVuSans-6c" x="793.986328"/>
      <use xlink:href="#DejaVuSans-6c" x="821.769531"/>
      <use xlink:href="#DejaVuSans-69" x="849.552734"/>
      <use xlink:href="#DejaVuSans-70" x="877.335938"/>
      <use xlink:href="#DejaVuSans-74" x="940.8125"/>
      <use xlink:href="#DejaVuSans-69" x="980.021484"/>
      <use xlink:href="#DejaVuSans-63" x="1007.804688"/>
      <use xlink:href="#DejaVuSans-69" x="1062.785156"/>
      <use xlink:href="#DejaVuSans-74" x="1090.568359"/>
      <use xlink:href="#DejaVuSans-79" x="1129.777344"/>
      <use xlink:href="#DejaVuSans-20" x="1188.957031"/>
      <use xlink:href="#DejaVuSans-28" x="1220.744141"/>
      <use xlink:href="#DejaVuSans-64" x="1259.757812"/>
      <use xlink:href="#DejaVuSans-65" x="1323.234375"/>
      <use xlink:href="#DejaVuSans-67" x="1384.757812"/>
      <use xlink:href="#DejaVuSans-b7" x="1448.234375"/>
      <use xlink:href="#DejaVuSans-63" x="1480.021484"/>
      <use xlink:href="#DejaVuSans-6d" x="1535.001953"/>
      <use xlink:href="#DejaVuSans-b2" x="1632.414062"/>
      <use xlink:href="#DejaVuSans-b7" x="1672.501953"/>
      <use xlink:href="#DejaVuSans-64" x="1704.289062"/>
      <use xlink:href="#DejaVuSans-6d" x="1767.765625"/>
      <use xlink:href="#DejaVuSans-6f" x="1865.177734"/>
      <use xlink:href="#DejaVuSans-6c" x="1926.359375"/>
      <use xlink:href="#DejaVuSans-207b" x="1954.142578"/>
      <use xlink:href="#DejaVuSans-b9" x="2006.925781"/>
      <use xlink:href="#DejaVuSans-29" x="2047.013672"/>
     </g>
    </g>
   </g>
   <g id="PolyCollection_1"/>
   <g id="PolyCollection_2"/>
   <g id="line2d_33">
    <path d="M 23.505938 122.769952 
L 24.810547 113.292122 
L 26.115156 105.156032 
L 27.419765 98.631454 
L 28.07207 96.16738 
L 28.724374 94.325374 
L 29.376679 93.172877 
L 30.028984 92.777334 
L 30.681288 93.206187 
L 31.333593 94.529681 
L 31.985897 96.838826 
L 32.638202 100.191888 
L 33.290507 104.54287 
L 34.595116 115.388046 
L 35.899725 126.752437 
L 36.55203 131.678579 
L 37.204334 135.610066 
L 37.856639 138.27391 
L 38.508944 139.520595 
L 39.161248 139.319752 
L 39.813553 137.717942 
L 40.465857 134.764991 
L 41.118162 130.492679 
L 41.770467 124.934437 
L 42.422771 118.139725 
L 43.72738 101.156158 
L 45.03199 80.358043 
L 46.988903 43.964112 
L 49.257194 -1 
M 63.794879 -1 
L 64.601128 4.563606 
L 65.905737 11.923564 
L 69.16726 27.622294 
L 70.471869 36.759321 
L 71.776479 48.548537 
L 75.038002 80.751483 
L 76.342611 91.515457 
L 78.299525 105.467069 
L 82.213352 131.226395 
L 84.170266 142.884237 
L 86.12718 152.978093 
L 88.084094 161.780284 
L 90.041008 169.691012 
L 91.997921 176.750458 
L 93.954835 182.793105 
L 95.911749 187.826297 
L 97.868663 192.098668 
L 99.825577 195.777733 
L 101.130186 197.813578 
L 102.434795 199.406072 
L 103.739404 200.487434 
L 105.044014 201.054117 
L 105.696318 201.154196 
L 106.348623 201.136948 
L 107.653232 200.766235 
L 108.957841 199.983337 
L 110.262451 198.843987 
L 111.56706 197.406317 
L 113.523974 194.835065 
L 118.090106 188.47726 
L 120.04702 186.137972 
L 122.003933 184.110453 
L 123.960847 182.39404 
L 125.917761 180.95921 
L 127.874675 179.799592 
L 129.179284 179.210047 
L 130.483893 178.798076 
L 132.440807 178.490146 
L 135.70233 178.163815 
L 139.616158 177.552744 
L 140.920767 177.562172 
L 142.877681 177.866027 
L 144.834595 178.444553 
L 153.966859 181.875094 
L 157.880687 183.621903 
L 159.185296 183.953796 
L 161.14221 184.124027 
L 165.056038 184.051125 
L 167.012952 183.897609 
L 168.969865 183.525559 
L 170.926779 182.894511 
L 172.883693 182.015493 
L 174.840607 180.894164 
L 176.797521 179.527283 
L 178.754434 177.897402 
L 180.711348 175.935102 
L 182.668262 173.561541 
L 185.277481 169.9006 
L 189.843613 163.048957 
L 191.800527 159.653031 
L 195.06205 153.337039 
L 199.628182 144.666078 
L 210.065056 125.041124 
L 213.978883 117.941429 
L 217.240406 111.383357 
L 221.154234 103.55868 
L 225.720366 94.452446 
L 228.981889 87.985586 
L 233.548022 79.607679 
L 236.809545 73.901142 
L 238.766459 70.837687 
L 240.723372 68.113501 
L 242.680286 65.693731 
L 245.289505 62.849463 
L 248.551028 59.667898 
L 252.464855 56.155964 
L 257.030988 52.337867 
L 260.292511 49.821138 
L 263.554034 47.628964 
L 267.467861 45.27481 
L 270.07708 43.968957 
L 272.033994 43.25232 
L 273.990907 42.741122 
L 276.600126 42.287921 
L 283.775477 41.205917 
L 290.950827 39.844411 
L 296.169264 39.206548 
L 298.126178 39.138627 
L 301.387701 39.342079 
L 303.996919 39.422192 
L 308.563052 39.449914 
L 314.433793 39.705613 
L 318.347621 39.554072 
L 324.218362 39.286119 
L 330.089104 39.225872 
L 333.350627 39.486138 
L 339.873673 40.142764 
L 343.135196 40.197644 
L 349.005938 40.055499 
L 349.005938 40.055499 
" clip-path="url(#p5d26375c5f)" style="fill: none; stroke: #000000; stroke-width: 1.5; stroke-linecap: round"/>
   </g>
   <g id="line2d_34">
    <path d="M 23.505938 112.864672 
L 26.115156 87.139205 
L 28.07207 68.043102 
L 29.376679 57.872948 
L 30.028984 54.061335 
L 30.681288 51.323273 
L 31.333593 49.831212 
L 31.985897 49.787426 
L 32.638202 51.347167 
L 33.290507 54.515976 
L 33.942811 59.105114 
L 35.24742 70.962651 
L 36.55203 83.2427 
L 37.204334 88.384767 
L 37.856639 92.360139 
L 38.508944 94.951868 
L 39.161248 96.072885 
L 39.813553 95.71997 
L 40.465857 93.893143 
L 41.118162 90.565219 
L 41.770467 85.715496 
L 42.422771 79.378044 
L 43.72738 62.777478 
L 45.03199 42.473111 
L 47.621796 -1 
M 68.550959 -1 
L 74.385697 63.012447 
L 76.994915 88.236301 
L 78.951829 105.106841 
L 80.908743 120.176393 
L 83.517962 138.053175 
L 86.12718 154.157029 
L 87.431789 161.281328 
L 88.736398 167.479235 
L 90.041008 172.693716 
L 91.997921 179.286262 
L 96.564054 193.543545 
L 97.868663 196.678539 
L 99.173272 198.896634 
L 100.477881 200.354939 
L 101.782491 201.392765 
L 105.044014 203.64083 
L 106.348623 204.22643 
L 107.000927 204.356539 
L 107.653232 204.357147 
L 108.305537 204.227748 
L 109.610146 203.632939 
L 110.914755 202.717063 
L 112.871669 201.031985 
L 114.828583 199.064025 
L 116.133192 197.510257 
L 118.090106 194.760944 
L 121.351629 190.039579 
L 122.656238 188.502665 
L 123.960847 187.218206 
L 125.917761 185.685781 
L 127.22237 184.891798 
L 128.52698 184.281505 
L 129.831589 183.870541 
L 131.136198 183.666163 
L 133.093112 183.631443 
L 135.70233 183.568768 
L 140.268463 183.13211 
L 142.225376 183.354929 
L 146.139204 183.929518 
L 148.748422 184.302 
L 150.705336 184.842464 
L 152.66225 185.613269 
L 157.880687 187.89106 
L 159.185296 188.213069 
L 161.14221 188.459975 
L 164.403733 188.856576 
L 166.360647 189.094072 
L 167.665256 189.063191 
L 168.969865 188.802128 
L 170.274475 188.337706 
L 172.231388 187.407149 
L 175.492911 185.569477 
L 178.10213 183.797842 
L 180.059044 182.162576 
L 181.363653 180.845234 
L 183.320567 178.464766 
L 185.929785 174.736883 
L 188.539004 170.680567 
L 190.495917 167.314402 
L 192.452831 163.532001 
L 197.671268 153.1077 
L 202.889705 143.07582 
L 214.631188 119.540153 
L 219.19732 109.816952 
L 226.372671 95.657355 
L 228.981889 90.417681 
L 232.243412 84.499853 
L 237.461849 75.445344 
L 240.071068 71.494416 
L 243.332591 67.070041 
L 245.941809 63.834716 
L 248.551028 60.91437 
L 251.160246 58.300846 
L 254.421769 55.362647 
L 260.944815 49.811853 
L 263.554034 47.872696 
L 266.163252 46.21968 
L 268.772471 44.838467 
L 272.033994 43.356012 
L 273.990907 42.680848 
L 275.947821 42.284772 
L 281.166258 41.556857 
L 287.037 40.362445 
L 290.950827 39.884703 
L 298.126178 39.205492 
L 300.735396 39.376694 
L 303.344615 39.508887 
L 309.215356 39.532202 
L 313.129184 39.714808 
L 317.695316 39.578736 
L 328.784495 39.242258 
L 332.046018 39.351164 
L 335.307541 39.697498 
L 340.525978 40.337896 
L 343.787501 40.452945 
L 349.005938 40.404637 
L 349.005938 40.404637 
" clip-path="url(#p5d26375c5f)" style="fill: none; stroke-dasharray: 5.55,2.4; stroke-dashoffset: 0; stroke: #d55e00; stroke-width: 1.5"/>
   </g>
   <g id="line2d_35">
    <path d="M 70.005938 39.51475 
L 349.005938 39.51475 
" clip-path="url(#p5d26375c5f)" style="fill: none; stroke: #808080; stroke-width: 0.5; stroke-linecap: round"/>
   </g>
   <g id="patch_3">
    <path d="M 70.005938 261.27475 
L 70.005938 39.51475 
" style="fill: none; stroke: #262626; stroke-width: 0.8; stroke-linejoin: miter; stroke-linecap: square"/>
   </g>
   <g id="patch_4">
    <path d="M 349.005938 261.27475 
L 349.005938 39.51475 
" style="fill: none; stroke: #262626; stroke-width: 0.8; stroke-linejoin: miter; stroke-linecap: square"/>
   </g>
   <g id="patch_5">
    <path d="M 70.005938 261.27475 
L 349.005938 261.27475 
" style="fill: none; stroke: #262626; stroke-width: 0.8; stroke-linejoin: miter; stroke-linecap: square"/>
   </g>
   <g id="patch_6">
    <path d="M 70.005938 39.51475 
L 349.005938 39.51475 
" style="fill: none; stroke: #262626; stroke-width: 0.8; stroke-linejoin: miter; stroke-linecap: square"/>
   </g>
   <g id="text_19">
    <!-- Circular Dichroism Spectrum -->
    <g style="fill: #262626" transform="translate(109.153281 17.837812)scale(0.14 -0.14)">
     <defs>
      <path id="DejaVuSans-43" d="M 4122 4306 
L 4122 3641 
Q 3803 3938 3442 4084 
Q 3081 4231 2675 4231 
Q 1875 4231 1450 3742 
Q 1025 3253 1025 2328 
Q 1025 1406 1450 917 
Q 1875 428 2675 428 
Q 3081 428 3442 575 
Q 3803 722 4122 1019 
L 4122 359 
Q 3791 134 3420 21 
Q 3050 -91 2638 -91 
Q 1578 -91 968 557 
Q 359 1206 359 2328 
Q 359 3453 968 4101 
Q 1578 4750 2638 4750 
Q 3056 4750 3426 4639 
Q 3797 4528 4122 4306 
z
" transform="scale(0.015625)"/>
      <path id="DejaVuSans-72" d="M 2631 2963 
Q 2534 3019 2420 3045 
Q 2306 3072 2169 3072 
Q 1681 3072 1420 2755 
Q 1159 2438 1159 1844 
L 1159 0 
L 581 0 
L 581 3500 
L 1159 3500 
L 1159 2956 
Q 1341 3275 1631 3429 
Q 1922 3584 2338 3584 
Q 2397 3584 2469 3576 
Q 2541 3569 2628 3553 
L 2631 2963 
z
" transform="scale(0.015625)"/>
      <path id="DejaVuSans-44" d="M 1259 4147 
L 1259 519 
L 2022 519 
Q 2988 519 3436 956 
Q 3884 1394 3884 2338 
Q 3884 3275 3436 3711 
Q 2988 4147 2022 4147 
L 1259 4147 
z
M 628 4666 
L 1925 4666 
Q 3281 4666 3915 4102 
Q 4550 3538 4550 2338 
Q 4550 1131 3912 565 
Q 3275 0 1925 0 
L 628 0 
L 628 4666 
z
" transform="scale(0.015625)"/>
      <path id="DejaVuSans-53" d="M 3425 4513 
L 3425 3897 
Q 3066 4069 2747 4153 
Q 2428 4238 2131 4238 
Q 1616 4238 1336 4038 
Q 1056 3838 1056 3469 
Q 1056 3159 1242 3001 
Q 1428 2844 1947 2747 
L 2328 2669 
Q 3034 2534 3370 2195 
Q 3706 1856 3706 1288 
Q 3706 609 3251 259 
Q 2797 -91 1919 -91 
Q 1588 -91 1214 -16 
Q 841 59 441 206 
L 441 856 
Q 825 641 1194 531 
Q 1563 422 1919 422 
Q 2459 422 2753 634 
Q 3047 847 3047 1241 
Q 3047 1584 2836 1778 
Q 2625 1972 2144 2069 
L 1759 2144 
Q 1053 2284 737 2584 
Q 422 2884 422 3419 
Q 422 4038 858 4394 
Q 1294 4750 2059 4750 
Q 2388 4750 2728 4690 
Q 3069 4631 3425 4513 
z
" transform="scale(0.015625)"/>
     </defs>
     <use xlink:href="#DejaVuSans-43"/>
     <use xlink:href="#DejaVuSans-69" x="69.824219"/>
     <use xlink:href="#DejaVuSans-72" x="97.607422"/>
     <use xlink:href="#DejaVuSans-63" x="136.470703"/>
     <use xlink:href="#DejaVuSans-75" x="191.451172"/>
     <use xlink:href="#DejaVuSans-6c" x="254.830078"/>
     <use xlink:href="#DejaVuSans-61" x="282.613281"/>
     <use xlink:href="#DejaVuSans-72" x="343.892578"/>
     <use xlink:href="#DejaVuSans-20" x="385.005859"/>
     <use xlink:href="#DejaVuSans-44" x="416.792969"/>
     <use xlink:href="#DejaVuSans-69" x="493.794922"/>
     <use xlink:href="#DejaVuSans-63" x="521.578125"/>
     <use xlink:href="#DejaVuSans-68" x="576.558594"/>
     <use xlink:href="#DejaVuSans-72" x="639.9375"/>
     <use xlink:href="#DejaVuSans-6f" x="678.800781"/>
     <use xlink:href="#DejaVuSans-69" x="739.982422"/>
     <use xlink:href="#DejaVuSans-73" x="767.765625"/>
     <use xlink:href="#DejaVuSans-6d" x="819.865234"/>
     <use xlink:href="#DejaVuSans-20" x="917.277344"/>
     <use xlink:href="#DejaVuSans-53" x="949.064453"/>
     <use xlink:href="#DejaVuSans-70" x="1012.541016"/>
     <use xlink:href="#DejaVuSans-65" x="1076.017578"/>
     <use xlink:href="#DejaVuSans-63" x="1137.541016"/>
     <use xlink:href="#DejaVuSans-74" x="1192.521484"/>
     <use xlink:href="#DejaVuSans-72" x="1231.730469"/>
     <use xlink:href="#DejaVuSans-75" x="1272.84375"/>
     <use xlink:href="#DejaVuSans-6d" x="1336.222656"/>
    </g>
    <!-- Sample A11 vs A11 Post-Melt -->
    <g style="fill: #262626" transform="translate(106.975625 33.51475)scale(0.14 -0.14)">
     <defs>
      <path id="DejaVuSans-41" d="M 2188 4044 
L 1331 1722 
L 3047 1722 
L 2188 4044 
z
M 1831 4666 
L 2547 4666 
L 4325 0 
L 3669 0 
L 3244 1197 
L 1141 1197 
L 716 0 
L 50 0 
L 1831 4666 
z
" transform="scale(0.015625)"/>
      <path id="DejaVuSans-50" d="M 1259 4147 
L 1259 2394 
L 2053 2394 
Q 2494 2394 2734 2622 
Q 2975 2850 2975 3272 
Q 2975 3691 2734 3919 
Q 2494 4147 2053 4147 
L 1259 4147 
z
M 628 4666 
L 2053 4666 
Q 2838 4666 3239 4311 
Q 3641 3956 3641 3272 
Q 3641 2581 3239 2228 
Q 2838 1875 2053 1875 
L 1259 1875 
L 1259 0 
L 628 0 
L 628 4666 
z
" transform="scale(0.015625)"/>
      <path id="DejaVuSans-2d" d="M 313 2009 
L 1997 2009 
L 1997 1497 
L 313 1497 
L 313 2009 
z
" transform="scale(0.015625)"/>
     </defs>
     <use xlink:href="#DejaVuSans-53"/>
     <use xlink:href="#DejaVuSans-61" x="63.476562"/>
     <use xlink:href="#DejaVuSans-6d" x="124.755859"/>
     <use xlink:href="#DejaVuSans-70" x="222.167969"/>
     <use xlink:href="#DejaVuSans-6c" x="285.644531"/>
     <use xlink:href="#DejaVuSans-65" x="313.427734"/>
     <use xlink:href="#DejaVuSans-20" x="374.951172"/>
     <use xlink:href="#DejaVuSans-41" x="406.738281"/>
     <use xlink:href="#DejaVuSans-31" x="475.146484"/>
     <use xlink:href="#DejaVuSans-31" x="538.769531"/>
     <use xlink:href="#DejaVuSans-20" x="602.392578"/>
     <use xlink:href="#DejaVuSans-76" x="634.179688"/>
     <use xlink:href="#DejaVuSans-73" x="693.359375"/>
     <use xlink:href="#DejaVuSans-20" x="745.458984"/>
     <use xlink:href="#DejaVuSans-41" x="777.246094"/>
     <use xlink:href="#DejaVuSans-31" x="845.654297"/>
     <use xlink:href="#DejaVuSans-31" x="909.277344"/>
     <use xlink:href="#DejaVuSans-20" x="972.900391"/>
     <use xlink:href="#DejaVuSans-50" x="1004.6875"/>
     <use xlink:href="#DejaVuSans-6f" x="1061.365234"/>
     <use xlink:href="#DejaVuSans-73" x="1122.546875"/>
     <use xlink:href="#DejaVuSans-74" x="1174.646484"/>
     <use xlink:href="#DejaVuSans-2d" x="1213.855469"/>
     <use xlink:href="#DejaVuSans-4d" x="1249.939453"/>
     <use xlink:href="#DejaVuSans-65" x="1336.21875"/>
     <use xlink:href="#DejaVuSans-6c" x="1397.742188"/>
     <use xlink:href="#DejaVuSans-74" x="1425.525391"/>
    </g>
   </g>
   <g id="legend_1">
    <g id="patch_7">
     <path d="M 77.005938 256.27475 
L 213.405938 256.27475 
Q 215.405938 256.27475 215.405938 254.27475 
L 215.405938 211.240375 
Q 215.405938 209.240375 213.405938 209.240375 
L 77.005938 209.240375 
Q 75.005938 209.240375 75.005938 211.240375 
L 75.005938 254.27475 
Q 75.005938 256.27475 77.005938 256.27475 
z
" style="fill: #ffffff; opacity: 0.8; stroke: #cccccc; stroke-linejoin: miter"/>
    </g>
    <g id="text_20">
     <!-- Sample -->
     <g style="fill: #262626" transform="translate(126.4575 220.838812)scale(0.1 -0.1)">
      <use xlink:href="#DejaVuSans-53"/>
      <use xlink:href="#DejaVuSans-61" x="63.476562"/>
      <use xlink:href="#DejaVuSans-6d" x="124.755859"/>
      <use xlink:href="#DejaVuSans-70" x="222.167969"/>
      <use xlink:href="#DejaVuSans-6c" x="285.644531"/>
      <use xlink:href="#DejaVuSans-65" x="313.427734"/>
     </g>
    </g>
    <g id="line2d_36">
     <path d="M 79.005938 232.016937 
L 89.005938 232.016937 
L 99.005938 232.016937 
" style="fill: none; stroke: #000000; stroke-width: 1.5; stroke-linecap: round"/>
    </g>
    <g id="text_21">
     <!-- Sample A11 Pre-Melt -->
     <g style="fill: #262626" transform="translate(107.005938 235.516937)scale(0.1 -0.1)">
      <use xlink:href="#DejaVuSans-53"/>
      <use xlink:href="#DejaVuSans-61" x="63.476562"/>
      <use xlink:href="#DejaVuSans-6d" x="124.755859"/>
      <use xlink:href="#DejaVuSans-70" x="222.167969"/>
      <use xlink:href="#DejaVuSans-6c" x="285.644531"/>
      <use xlink:href="#DejaVuSans-65" x="313.427734"/>
      <use xlink:href="#DejaVuSans-20" x="374.951172"/>
      <use xlink:href="#DejaVuSans-41" x="406.738281"/>
      <use xlink:href="#DejaVuSans-31" x="475.146484"/>
      <use xlink:href="#DejaVuSans-31" x="538.769531"/>
      <use xlink:href="#DejaVuSans-20" x="602.392578"/>
      <use xlink:href="#DejaVuSans-50" x="634.179688"/>
      <use xlink:href="#DejaVuSans-72" x="692.732422"/>
      <use xlink:href="#DejaVuSans-65" x="731.595703"/>
      <use xlink:href="#DejaVuSans-2d" x="793.119141"/>
      <use xlink:href="#DejaVuSans-4d" x="829.203125"/>
      <use xlink:href="#DejaVuSans-65" x="915.482422"/>
      <use xlink:href="#DejaVuSans-6c" x="977.005859"/>
      <use xlink:href="#DejaVuSans-74" x="1004.789062"/>
     </g>
    </g>
    <g id="line2d_37">
     <path d="M 79.005938 246.695062 
L 89.005938 246.695062 
L 99.005938 246.695062 
" style="fill: none; stroke-dasharray: 5.55,2.4; stroke-dashoffset: 0; stroke: #d55e00; stroke-width: 1.5"/>
    </g>
    <g id="text_22">
     <!-- A11 Post-Melt -->
     <g style="fill: #262626" transform="translate(107.005938 250.195062)scale(0.1 -0.1)">
      <use xlink:href="#DejaVuSans-41"/>
      <use xlink:href="#DejaVuSans-31" x="68.408203"/>
      <use xlink:href="#DejaVuSans-31" x="132.03125"/>
      <use xlink:href="#DejaVuSans-20" x="195.654297"/>
      <use xlink:href="#DejaVuSans-50" x="227.441406"/>
      <use xlink:href="#DejaVuSans-6f" x="284.119141"/>
      <use xlink:href="#DejaVuSans-73" x="345.300781"/>
      <use xlink:href="#DejaVuSans-74" x="397.400391"/>
      <use xlink:href="#DejaVuSans-2d" x="436.609375"/>
      <use xlink:href="#DejaVuSans-4d" x="472.693359"/>
      <use xlink:href="#DejaVuSans-65" x="558.972656"/>
      <use xlink:href="#DejaVuSans-6c" x="620.496094"/>
      <use xlink:href="#DejaVuSans-74" x="648.279297"/>
     </g>
    </g>
   </g>
  </g>
 </g>
 <defs>
  <clipPath id="p5d26375c5f">
   <rect x="70.005938" y="39.51475" width="279" height="221.76"/>
  </clipPath>
 </defs>
</svg>
