<?xml version="1.0" encoding="utf-8" standalone="no"?>
<!DOCTYPE svg PUBLIC "-//W3C//DTD SVG 1.1//EN"
  "http://www.w3.org/Graphics/SVG/1.1/DTD/svg11.dtd">
<svg xmlns:xlink="http://www.w3.org/1999/xlink" width="365.749687pt" height="300.766625pt" viewBox="0 0 365.749687 300.766625" xmlns="http://www.w3.org/2000/svg" version="1.1">
 <metadata>
  <rdf:RDF xmlns:dc="http://purl.org/dc/elements/1.1/" xmlns:cc="http://creativecommons.org/ns#" xmlns:rdf="http://www.w3.org/1999/02/22-rdf-syntax-ns#">
   <cc:Work>
    <dc:type rdf:resource="http://purl.org/dc/dcmitype/StillImage"/>
    <dc:date>2025-05-19T10:38:30.784012</dc:date>
    <dc:format>image/svg+xml</dc:format>
    <dc:creator>
     <cc:Agent>
      <dc:title>Matplotlib v3.9.4, https://matplotlib.org/</dc:title>
     </cc:Agent>
    </dc:creator>
   </cc:Work>
  </rdf:RDF>
 </metadata>
 <defs>
  <style type="text/css">*{stroke-linejoin: round; stroke-linecap: butt}</style>
 </defs>
 <g id="figure_1">
  <g id="patch_1">
   <path d="M 0 300.766625 
L 365.749687 300.766625 
L 365.749687 0 
L 0 0 
z
" style="fill: #ffffff"/>
  </g>
  <g id="axes_1">
   <g id="patch_2">
    <path d="M 70.005938 261.27475 
L 349.005938 261.27475 
L 349.005938 39.51475 
L 70.005938 39.51475 
z
" style="fill: #ffffff"/>
   </g>
   <g id="matplotlib.axis_1">
    <g id="xtick_1">
     <g id="line2d_1">
      <path d="M 70.005938 261.27475 
L 70.005938 39.51475 
" clip-path="url(#p1c47bde5ef)" style="fill: none; stroke-dasharray: 0.8,1.32; stroke-dashoffset: 0; stroke: #cccccc; stroke-opacity: 0.6; stroke-width: 0.8"/>
     </g>
     <g id="line2d_2">
      <defs>
       <path id="ma19634956e" d="M 0 0 
L 0 3.5 
" style="stroke: #262626; stroke-width: 0.8"/>
      </defs>
      <g>
       <use xlink:href="#ma19634956e" x="70.005938" y="261.27475" style="fill: #262626; stroke: #262626; stroke-width: 0.8"/>
      </g>
     </g>
     <g id="text_1">
      <!-- 200 -->
      <g style="fill: #262626" transform="translate(60.462188 275.873187) scale(0.1 -0.1)">
       <defs>
        <path id="DejaVuSans-32" d="M 1228 531 
L 3431 531 
L 3431 0 
L 469 0 
L 469 531 
Q 828 903 1448 1529 
Q 2069 2156 2228 2338 
Q 2531 2678 2651 2914 
Q 2772 3150 2772 3378 
Q 2772 3750 2511 3984 
Q 2250 4219 1831 4219 
Q 1534 4219 1204 4116 
Q 875 4013 500 3803 
L 500 4441 
Q 881 4594 1212 4672 
Q 1544 4750 1819 4750 
Q 2544 4750 2975 4387 
Q 3406 4025 3406 3419 
Q 3406 3131 3298 2873 
Q 3191 2616 2906 2266 
Q 2828 2175 2409 1742 
Q 1991 1309 1228 531 
z
" transform="scale(0.015625)"/>
        <path id="DejaVuSans-30" d="M 2034 4250 
Q 1547 4250 1301 3770 
Q 1056 3291 1056 2328 
Q 1056 1369 1301 889 
Q 1547 409 2034 409 
Q 2525 409 2770 889 
Q 3016 1369 3016 2328 
Q 3016 3291 2770 3770 
Q 2525 4250 2034 4250 
z
M 2034 4750 
Q 2819 4750 3233 4129 
Q 3647 3509 3647 2328 
Q 3647 1150 3233 529 
Q 2819 -91 2034 -91 
Q 1250 -91 836 529 
Q 422 1150 422 2328 
Q 422 3509 836 4129 
Q 1250 4750 2034 4750 
z
" transform="scale(0.015625)"/>
       </defs>
       <use xlink:href="#DejaVuSans-32"/>
       <use xlink:href="#DejaVuSans-30" x="63.623047"/>
       <use xlink:href="#DejaVuSans-30" x="127.246094"/>
      </g>
     </g>
    </g>
    <g id="xtick_2">
     <g id="line2d_3">
      <path d="M 116.505938 261.27475 
L 116.505938 39.51475 
" clip-path="url(#p1c47bde5ef)" style="fill: none; stroke-dasharray: 0.8,1.32; stroke-dashoffset: 0; stroke: #cccccc; stroke-opacity: 0.6; stroke-width: 0.8"/>
     </g>
     <g id="line2d_4">
      <g>
       <use xlink:href="#ma19634956e" x="116.505938" y="261.27475" style="fill: #262626; stroke: #262626; stroke-width: 0.8"/>
      </g>
     </g>
     <g id="text_2">
      <!-- 210 -->
      <g style="fill: #262626" transform="translate(106.962188 275.873187) scale(0.1 -0.1)">
       <defs>
        <path id="DejaVuSans-31" d="M 794 531 
L 1825 531 
L 1825 4091 
L 703 3866 
L 703 4441 
L 1819 4666 
L 2450 4666 
L 2450 531 
L 3481 531 
L 3481 0 
L 794 0 
L 794 531 
z
" transform="scale(0.015625)"/>
       </defs>
       <use xlink:href="#DejaVuSans-32"/>
       <use xlink:href="#DejaVuSans-31" x="63.623047"/>
       <use xlink:href="#DejaVuSans-30" x="127.246094"/>
      </g>
     </g>
    </g>
    <g id="xtick_3">
     <g id="line2d_5">
      <path d="M 163.005938 261.27475 
L 163.005938 39.51475 
" clip-path="url(#p1c47bde5ef)" style="fill: none; stroke-dasharray: 0.8,1.32; stroke-dashoffset: 0; stroke: #cccccc; stroke-opacity: 0.6; stroke-width: 0.8"/>
     </g>
     <g id="line2d_6">
      <g>
       <use xlink:href="#ma19634956e" x="163.005938" y="261.27475" style="fill: #262626; stroke: #262626; stroke-width: 0.8"/>
      </g>
     </g>
     <g id="text_3">
      <!-- 220 -->
      <g style="fill: #262626" transform="translate(153.462188 275.873187) scale(0.1 -0.1)">
       <use xlink:href="#DejaVuSans-32"/>
       <use xlink:href="#DejaVuSans-32" x="63.623047"/>
       <use xlink:href="#DejaVuSans-30" x="127.246094"/>
      </g>
     </g>
    </g>
    <g id="xtick_4">
     <g id="line2d_7">
      <path d="M 209.505938 261.27475 
L 209.505938 39.51475 
" clip-path="url(#p1c47bde5ef)" style="fill: none; stroke-dasharray: 0.8,1.32; stroke-dashoffset: 0; stroke: #cccccc; stroke-opacity: 0.6; stroke-width: 0.8"/>
     </g>
     <g id="line2d_8">
      <g>
       <use xlink:href="#ma19634956e" x="209.505938" y="261.27475" style="fill: #262626; stroke: #262626; stroke-width: 0.8"/>
      </g>
     </g>
     <g id="text_4">
      <!-- 230 -->
      <g style="fill: #262626" transform="translate(199.962188 275.873187) scale(0.1 -0.1)">
       <defs>
        <path id="DejaVuSans-33" d="M 2597 2516 
Q 3050 2419 3304 2112 
Q 3559 1806 3559 1356 
Q 3559 666 3084 287 
Q 2609 -91 1734 -91 
Q 1441 -91 1130 -33 
Q 819 25 488 141 
L 488 750 
Q 750 597 1062 519 
Q 1375 441 1716 441 
Q 2309 441 2620 675 
Q 2931 909 2931 1356 
Q 2931 1769 2642 2001 
Q 2353 2234 1838 2234 
L 1294 2234 
L 1294 2753 
L 1863 2753 
Q 2328 2753 2575 2939 
Q 2822 3125 2822 3475 
Q 2822 3834 2567 4026 
Q 2313 4219 1838 4219 
Q 1578 4219 1281 4162 
Q 984 4106 628 3988 
L 628 4550 
Q 988 4650 1302 4700 
Q 1616 4750 1894 4750 
Q 2613 4750 3031 4423 
Q 3450 4097 3450 3541 
Q 3450 3153 3228 2886 
Q 3006 2619 2597 2516 
z
" transform="scale(0.015625)"/>
       </defs>
       <use xlink:href="#DejaVuSans-32"/>
       <use xlink:href="#DejaVuSans-33" x="63.623047"/>
       <use xlink:href="#DejaVuSans-30" x="127.246094"/>
      </g>
     </g>
    </g>
    <g id="xtick_5">
     <g id="line2d_9">
      <path d="M 256.005938 261.27475 
L 256.005938 39.51475 
" clip-path="url(#p1c47bde5ef)" style="fill: none; stroke-dasharray: 0.8,1.32; stroke-dashoffset: 0; stroke: #cccccc; stroke-opacity: 0.6; stroke-width: 0.8"/>
     </g>
     <g id="line2d_10">
      <g>
       <use xlink:href="#ma19634956e" x="256.005938" y="261.27475" style="fill: #262626; stroke: #262626; stroke-width: 0.8"/>
      </g>
     </g>
     <g id="text_5">
      <!-- 240 -->
      <g style="fill: #262626" transform="translate(246.462188 275.873187) scale(0.1 -0.1)">
       <defs>
        <path id="DejaVuSans-34" d="M 2419 4116 
L 825 1625 
L 2419 1625 
L 2419 4116 
z
M 2253 4666 
L 3047 4666 
L 3047 1625 
L 3713 1625 
L 3713 1100 
L 3047 1100 
L 3047 0 
L 2419 0 
L 2419 1100 
L 313 1100 
L 313 1709 
L 2253 4666 
z
" transform="scale(0.015625)"/>
       </defs>
       <use xlink:href="#DejaVuSans-32"/>
       <use xlink:href="#DejaVuSans-34" x="63.623047"/>
       <use xlink:href="#DejaVuSans-30" x="127.246094"/>
      </g>
     </g>
    </g>
    <g id="xtick_6">
     <g id="line2d_11">
      <path d="M 302.505938 261.27475 
L 302.505938 39.51475 
" clip-path="url(#p1c47bde5ef)" style="fill: none; stroke-dasharray: 0.8,1.32; stroke-dashoffset: 0; stroke: #cccccc; stroke-opacity: 0.6; stroke-width: 0.8"/>
     </g>
     <g id="line2d_12">
      <g>
       <use xlink:href="#ma19634956e" x="302.505938" y="261.27475" style="fill: #262626; stroke: #262626; stroke-width: 0.8"/>
      </g>
     </g>
     <g id="text_6">
      <!-- 250 -->
      <g style="fill: #262626" transform="translate(292.962188 275.873187) scale(0.1 -0.1)">
       <defs>
        <path id="DejaVuSans-35" d="M 691 4666 
L 3169 4666 
L 3169 4134 
L 1269 4134 
L 1269 2991 
Q 1406 3038 1543 3061 
Q 1681 3084 1819 3084 
Q 2600 3084 3056 2656 
Q 3513 2228 3513 1497 
Q 3513 744 3044 326 
Q 2575 -91 1722 -91 
Q 1428 -91 1123 -41 
Q 819 9 494 109 
L 494 744 
Q 775 591 1075 516 
Q 1375 441 1709 441 
Q 2250 441 2565 725 
Q 2881 1009 2881 1497 
Q 2881 1984 2565 2268 
Q 2250 2553 1709 2553 
Q 1456 2553 1204 2497 
Q 953 2441 691 2322 
L 691 4666 
z
" transform="scale(0.015625)"/>
       </defs>
       <use xlink:href="#DejaVuSans-32"/>
       <use xlink:href="#DejaVuSans-35" x="63.623047"/>
       <use xlink:href="#DejaVuSans-30" x="127.246094"/>
      </g>
     </g>
    </g>
    <g id="xtick_7">
     <g id="line2d_13">
      <path d="M 349.005938 261.27475 
L 349.005938 39.51475 
" clip-path="url(#p1c47bde5ef)" style="fill: none; stroke-dasharray: 0.8,1.32; stroke-dashoffset: 0; stroke: #cccccc; stroke-opacity: 0.6; stroke-width: 0.8"/>
     </g>
     <g id="line2d_14">
      <g>
       <use xlink:href="#ma19634956e" x="349.005938" y="261.27475" style="fill: #262626; stroke: #262626; stroke-width: 0.8"/>
      </g>
     </g>
     <g id="text_7">
      <!-- 260 -->
      <g style="fill: #262626" transform="translate(339.462188 275.873187) scale(0.1 -0.1)">
       <defs>
        <path id="DejaVuSans-36" d="M 2113 2584 
Q 1688 2584 1439 2293 
Q 1191 2003 1191 1497 
Q 1191 994 1439 701 
Q 1688 409 2113 409 
Q 2538 409 2786 701 
Q 3034 994 3034 1497 
Q 3034 2003 2786 2293 
Q 2538 2584 2113 2584 
z
M 3366 4563 
L 3366 3988 
Q 3128 4100 2886 4159 
Q 2644 4219 2406 4219 
Q 1781 4219 1451 3797 
Q 1122 3375 1075 2522 
Q 1259 2794 1537 2939 
Q 1816 3084 2150 3084 
Q 2853 3084 3261 2657 
Q 3669 2231 3669 1497 
Q 3669 778 3244 343 
Q 2819 -91 2113 -91 
Q 1303 -91 875 529 
Q 447 1150 447 2328 
Q 447 3434 972 4092 
Q 1497 4750 2381 4750 
Q 2619 4750 2861 4703 
Q 3103 4656 3366 4563 
z
" transform="scale(0.015625)"/>
       </defs>
       <use xlink:href="#DejaVuSans-32"/>
       <use xlink:href="#DejaVuSans-36" x="63.623047"/>
       <use xlink:href="#DejaVuSans-30" x="127.246094"/>
      </g>
     </g>
    </g>
    <g id="text_8">
     <!-- Wavelength (nm) -->
     <g style="fill: #262626" transform="translate(157.675313 291.071) scale(0.12 -0.12)">
      <defs>
       <path id="DejaVuSans-57" d="M 213 4666 
L 850 4666 
L 1831 722 
L 2809 4666 
L 3519 4666 
L 4500 722 
L 5478 4666 
L 6119 4666 
L 4947 0 
L 4153 0 
L 3169 4050 
L 2175 0 
L 1381 0 
L 213 4666 
z
" transform="scale(0.015625)"/>
       <path id="DejaVuSans-61" d="M 2194 1759 
Q 1497 1759 1228 1600 
Q 959 1441 959 1056 
Q 959 750 1161 570 
Q 1363 391 1709 391 
Q 2188 391 2477 730 
Q 2766 1069 2766 1631 
L 2766 1759 
L 2194 1759 
z
M 3341 1997 
L 3341 0 
L 2766 0 
L 2766 531 
Q 2569 213 2275 61 
Q 1981 -91 1556 -91 
Q 1019 -91 701 211 
Q 384 513 384 1019 
Q 384 1609 779 1909 
Q 1175 2209 1959 2209 
L 2766 2209 
L 2766 2266 
Q 2766 2663 2505 2880 
Q 2244 3097 1772 3097 
Q 1472 3097 1187 3025 
Q 903 2953 641 2809 
L 641 3341 
Q 956 3463 1253 3523 
Q 1550 3584 1831 3584 
Q 2591 3584 2966 3190 
Q 3341 2797 3341 1997 
z
" transform="scale(0.015625)"/>
       <path id="DejaVuSans-76" d="M 191 3500 
L 800 3500 
L 1894 563 
L 2988 3500 
L 3597 3500 
L 2284 0 
L 1503 0 
L 191 3500 
z
" transform="scale(0.015625)"/>
       <path id="DejaVuSans-65" d="M 3597 1894 
L 3597 1613 
L 953 1613 
Q 991 1019 1311 708 
Q 1631 397 2203 397 
Q 2534 397 2845 478 
Q 3156 559 3463 722 
L 3463 178 
Q 3153 47 2828 -22 
Q 2503 -91 2169 -91 
Q 1331 -91 842 396 
Q 353 884 353 1716 
Q 353 2575 817 3079 
Q 1281 3584 2069 3584 
Q 2775 3584 3186 3129 
Q 3597 2675 3597 1894 
z
M 3022 2063 
Q 3016 2534 2758 2815 
Q 2500 3097 2075 3097 
Q 1594 3097 1305 2825 
Q 1016 2553 972 2059 
L 3022 2063 
z
" transform="scale(0.015625)"/>
       <path id="DejaVuSans-6c" d="M 603 4863 
L 1178 4863 
L 1178 0 
L 603 0 
L 603 4863 
z
" transform="scale(0.015625)"/>
       <path id="DejaVuSans-6e" d="M 3513 2113 
L 3513 0 
L 2938 0 
L 2938 2094 
Q 2938 2591 2744 2837 
Q 2550 3084 2163 3084 
Q 1697 3084 1428 2787 
Q 1159 2491 1159 1978 
L 1159 0 
L 581 0 
L 581 3500 
L 1159 3500 
L 1159 2956 
Q 1366 3272 1645 3428 
Q 1925 3584 2291 3584 
Q 2894 3584 3203 3211 
Q 3513 2838 3513 2113 
z
" transform="scale(0.015625)"/>
       <path id="DejaVuSans-67" d="M 2906 1791 
Q 2906 2416 2648 2759 
Q 2391 3103 1925 3103 
Q 1463 3103 1205 2759 
Q 947 2416 947 1791 
Q 947 1169 1205 825 
Q 1463 481 1925 481 
Q 2391 481 2648 825 
Q 2906 1169 2906 1791 
z
M 3481 434 
Q 3481 -459 3084 -895 
Q 2688 -1331 1869 -1331 
Q 1566 -1331 1297 -1286 
Q 1028 -1241 775 -1147 
L 775 -588 
Q 1028 -725 1275 -790 
Q 1522 -856 1778 -856 
Q 2344 -856 2625 -561 
Q 2906 -266 2906 331 
L 2906 616 
Q 2728 306 2450 153 
Q 2172 0 1784 0 
Q 1141 0 747 490 
Q 353 981 353 1791 
Q 353 2603 747 3093 
Q 1141 3584 1784 3584 
Q 2172 3584 2450 3431 
Q 2728 3278 2906 2969 
L 2906 3500 
L 3481 3500 
L 3481 434 
z
" transform="scale(0.015625)"/>
       <path id="DejaVuSans-74" d="M 1172 4494 
L 1172 3500 
L 2356 3500 
L 2356 3053 
L 1172 3053 
L 1172 1153 
Q 1172 725 1289 603 
Q 1406 481 1766 481 
L 2356 481 
L 2356 0 
L 1766 0 
Q 1100 0 847 248 
Q 594 497 594 1153 
L 594 3053 
L 172 3053 
L 172 3500 
L 594 3500 
L 594 4494 
L 1172 4494 
z
" transform="scale(0.015625)"/>
       <path id="DejaVuSans-68" d="M 3513 2113 
L 3513 0 
L 2938 0 
L 2938 2094 
Q 2938 2591 2744 2837 
Q 2550 3084 2163 3084 
Q 1697 3084 1428 2787 
Q 1159 2491 1159 1978 
L 1159 0 
L 581 0 
L 581 4863 
L 1159 4863 
L 1159 2956 
Q 1366 3272 1645 3428 
Q 1925 3584 2291 3584 
Q 2894 3584 3203 3211 
Q 3513 2838 3513 2113 
z
" transform="scale(0.015625)"/>
       <path id="DejaVuSans-20" transform="scale(0.015625)"/>
       <path id="DejaVuSans-28" d="M 1984 4856 
Q 1566 4138 1362 3434 
Q 1159 2731 1159 2009 
Q 1159 1288 1364 580 
Q 1569 -128 1984 -844 
L 1484 -844 
Q 1016 -109 783 600 
Q 550 1309 550 2009 
Q 550 2706 781 3412 
Q 1013 4119 1484 4856 
L 1984 4856 
z
" transform="scale(0.015625)"/>
       <path id="DejaVuSans-6d" d="M 3328 2828 
Q 3544 3216 3844 3400 
Q 4144 3584 4550 3584 
Q 5097 3584 5394 3201 
Q 5691 2819 5691 2113 
L 5691 0 
L 5113 0 
L 5113 2094 
Q 5113 2597 4934 2840 
Q 4756 3084 4391 3084 
Q 3944 3084 3684 2787 
Q 3425 2491 3425 1978 
L 3425 0 
L 2847 0 
L 2847 2094 
Q 2847 2600 2669 2842 
Q 2491 3084 2119 3084 
Q 1678 3084 1418 2786 
Q 1159 2488 1159 1978 
L 1159 0 
L 581 0 
L 581 3500 
L 1159 3500 
L 1159 2956 
Q 1356 3278 1631 3431 
Q 1906 3584 2284 3584 
Q 2666 3584 2933 3390 
Q 3200 3197 3328 2828 
z
" transform="scale(0.015625)"/>
       <path id="DejaVuSans-29" d="M 513 4856 
L 1013 4856 
Q 1481 4119 1714 3412 
Q 1947 2706 1947 2009 
Q 1947 1309 1714 600 
Q 1481 -109 1013 -844 
L 513 -844 
Q 928 -128 1133 580 
Q 1338 1288 1338 2009 
Q 1338 2731 1133 3434 
Q 928 4138 513 4856 
z
" transform="scale(0.015625)"/>
      </defs>
      <use xlink:href="#DejaVuSans-57"/>
      <use xlink:href="#DejaVuSans-61" x="92.501953"/>
      <use xlink:href="#DejaVuSans-76" x="153.78125"/>
      <use xlink:href="#DejaVuSans-65" x="212.960938"/>
      <use xlink:href="#DejaVuSans-6c" x="274.484375"/>
      <use xlink:href="#DejaVuSans-65" x="302.267578"/>
      <use xlink:href="#DejaVuSans-6e" x="363.791016"/>
      <use xlink:href="#DejaVuSans-67" x="427.169922"/>
      <use xlink:href="#DejaVuSans-74" x="490.646484"/>
      <use xlink:href="#DejaVuSans-68" x="529.855469"/>
      <use xlink:href="#DejaVuSans-20" x="593.234375"/>
      <use xlink:href="#DejaVuSans-28" x="625.021484"/>
      <use xlink:href="#DejaVuSans-6e" x="664.035156"/>
      <use xlink:href="#DejaVuSans-6d" x="727.414062"/>
      <use xlink:href="#DejaVuSans-29" x="824.826172"/>
     </g>
    </g>
   </g>
   <g id="matplotlib.axis_2">
    <g id="ytick_1">
     <g id="line2d_15">
      <path d="M 70.005938 261.27475 
L 349.005938 261.27475 
" clip-path="url(#p1c47bde5ef)" style="fill: none; stroke-dasharray: 0.8,1.32; stroke-dashoffset: 0; stroke: #cccccc; stroke-opacity: 0.6; stroke-width: 0.8"/>
     </g>
     <g id="line2d_16">
      <defs>
       <path id="ma2628ad6c8" d="M 0 0 
L -3.5 0 
" style="stroke: #262626; stroke-width: 0.8"/>
      </defs>
      <g>
       <use xlink:href="#ma2628ad6c8" x="70.005938" y="261.27475" style="fill: #262626; stroke: #262626; stroke-width: 0.8"/>
      </g>
     </g>
     <g id="text_9">
      <!-- −40000 -->
      <g style="fill: #262626" transform="translate(22.81375 265.073969) scale(0.1 -0.1)">
       <defs>
        <path id="DejaVuSans-2212" d="M 678 2272 
L 4684 2272 
L 4684 1741 
L 678 1741 
L 678 2272 
z
" transform="scale(0.015625)"/>
       </defs>
       <use xlink:href="#DejaVuSans-2212"/>
       <use xlink:href="#DejaVuSans-34" x="83.789062"/>
       <use xlink:href="#DejaVuSans-30" x="147.412109"/>
       <use xlink:href="#DejaVuSans-30" x="211.035156"/>
       <use xlink:href="#DejaVuSans-30" x="274.658203"/>
       <use xlink:href="#DejaVuSans-30" x="338.28125"/>
      </g>
     </g>
    </g>
    <g id="ytick_2">
     <g id="line2d_17">
      <path d="M 70.005938 233.55475 
L 349.005938 233.55475 
" clip-path="url(#p1c47bde5ef)" style="fill: none; stroke-dasharray: 0.8,1.32; stroke-dashoffset: 0; stroke: #cccccc; stroke-opacity: 0.6; stroke-width: 0.8"/>
     </g>
     <g id="line2d_18">
      <g>
       <use xlink:href="#ma2628ad6c8" x="70.005938" y="233.55475" style="fill: #262626; stroke: #262626; stroke-width: 0.8"/>
      </g>
     </g>
     <g id="text_10">
      <!-- −35000 -->
      <g style="fill: #262626" transform="translate(22.81375 237.353969) scale(0.1 -0.1)">
       <use xlink:href="#DejaVuSans-2212"/>
       <use xlink:href="#DejaVuSans-33" x="83.789062"/>
       <use xlink:href="#DejaVuSans-35" x="147.412109"/>
       <use xlink:href="#DejaVuSans-30" x="211.035156"/>
       <use xlink:href="#DejaVuSans-30" x="274.658203"/>
       <use xlink:href="#DejaVuSans-30" x="338.28125"/>
      </g>
     </g>
    </g>
    <g id="ytick_3">
     <g id="line2d_19">
      <path d="M 70.005938 205.83475 
L 349.005938 205.83475 
" clip-path="url(#p1c47bde5ef)" style="fill: none; stroke-dasharray: 0.8,1.32; stroke-dashoffset: 0; stroke: #cccccc; stroke-opacity: 0.6; stroke-width: 0.8"/>
     </g>
     <g id="line2d_20">
      <g>
       <use xlink:href="#ma2628ad6c8" x="70.005938" y="205.83475" style="fill: #262626; stroke: #262626; stroke-width: 0.8"/>
      </g>
     </g>
     <g id="text_11">
      <!-- −30000 -->
      <g style="fill: #262626" transform="translate(22.81375 209.633969) scale(0.1 -0.1)">
       <use xlink:href="#DejaVuSans-2212"/>
       <use xlink:href="#DejaVuSans-33" x="83.789062"/>
       <use xlink:href="#DejaVuSans-30" x="147.412109"/>
       <use xlink:href="#DejaVuSans-30" x="211.035156"/>
       <use xlink:href="#DejaVuSans-30" x="274.658203"/>
       <use xlink:href="#DejaVuSans-30" x="338.28125"/>
      </g>
     </g>
    </g>
    <g id="ytick_4">
     <g id="line2d_21">
      <path d="M 70.005938 178.11475 
L 349.005938 178.11475 
" clip-path="url(#p1c47bde5ef)" style="fill: none; stroke-dasharray: 0.8,1.32; stroke-dashoffset: 0; stroke: #cccccc; stroke-opacity: 0.6; stroke-width: 0.8"/>
     </g>
     <g id="line2d_22">
      <g>
       <use xlink:href="#ma2628ad6c8" x="70.005938" y="178.11475" style="fill: #262626; stroke: #262626; stroke-width: 0.8"/>
      </g>
     </g>
     <g id="text_12">
      <!-- −25000 -->
      <g style="fill: #262626" transform="translate(22.81375 181.913969) scale(0.1 -0.1)">
       <use xlink:href="#DejaVuSans-2212"/>
       <use xlink:href="#DejaVuSans-32" x="83.789062"/>
       <use xlink:href="#DejaVuSans-35" x="147.412109"/>
       <use xlink:href="#DejaVuSans-30" x="211.035156"/>
       <use xlink:href="#DejaVuSans-30" x="274.658203"/>
       <use xlink:href="#DejaVuSans-30" x="338.28125"/>
      </g>
     </g>
    </g>
    <g id="ytick_5">
     <g id="line2d_23">
      <path d="M 70.005938 150.39475 
L 349.005938 150.39475 
" clip-path="url(#p1c47bde5ef)" style="fill: none; stroke-dasharray: 0.8,1.32; stroke-dashoffset: 0; stroke: #cccccc; stroke-opacity: 0.6; stroke-width: 0.8"/>
     </g>
     <g id="line2d_24">
      <g>
       <use xlink:href="#ma2628ad6c8" x="70.005938" y="150.39475" style="fill: #262626; stroke: #262626; stroke-width: 0.8"/>
      </g>
     </g>
     <g id="text_13">
      <!-- −20000 -->
      <g style="fill: #262626" transform="translate(22.81375 154.193969) scale(0.1 -0.1)">
       <use xlink:href="#DejaVuSans-2212"/>
       <use xlink:href="#DejaVuSans-32" x="83.789062"/>
       <use xlink:href="#DejaVuSans-30" x="147.412109"/>
       <use xlink:href="#DejaVuSans-30" x="211.035156"/>
       <use xlink:href="#DejaVuSans-30" x="274.658203"/>
       <use xlink:href="#DejaVuSans-30" x="338.28125"/>
      </g>
     </g>
    </g>
    <g id="ytick_6">
     <g id="line2d_25">
      <path d="M 70.005938 122.67475 
L 349.005938 122.67475 
" clip-path="url(#p1c47bde5ef)" style="fill: none; stroke-dasharray: 0.8,1.32; stroke-dashoffset: 0; stroke: #cccccc; stroke-opacity: 0.6; stroke-width: 0.8"/>
     </g>
     <g id="line2d_26">
      <g>
       <use xlink:href="#ma2628ad6c8" x="70.005938" y="122.67475" style="fill: #262626; stroke: #262626; stroke-width: 0.8"/>
      </g>
     </g>
     <g id="text_14">
      <!-- −15000 -->
      <g style="fill: #262626" transform="translate(22.81375 126.473969) scale(0.1 -0.1)">
       <use xlink:href="#DejaVuSans-2212"/>
       <use xlink:href="#DejaVuSans-31" x="83.789062"/>
       <use xlink:href="#DejaVuSans-35" x="147.412109"/>
       <use xlink:href="#DejaVuSans-30" x="211.035156"/>
       <use xlink:href="#DejaVuSans-30" x="274.658203"/>
       <use xlink:href="#DejaVuSans-30" x="338.28125"/>
      </g>
     </g>
    </g>
    <g id="ytick_7">
     <g id="line2d_27">
      <path d="M 70.005938 94.95475 
L 349.005938 94.95475 
" clip-path="url(#p1c47bde5ef)" style="fill: none; stroke-dasharray: 0.8,1.32; stroke-dashoffset: 0; stroke: #cccccc; stroke-opacity: 0.6; stroke-width: 0.8"/>
     </g>
     <g id="line2d_28">
      <g>
       <use xlink:href="#ma2628ad6c8" x="70.005938" y="94.95475" style="fill: #262626; stroke: #262626; stroke-width: 0.8"/>
      </g>
     </g>
     <g id="text_15">
      <!-- −10000 -->
      <g style="fill: #262626" transform="translate(22.81375 98.753969) scale(0.1 -0.1)">
       <use xlink:href="#DejaVuSans-2212"/>
       <use xlink:href="#DejaVuSans-31" x="83.789062"/>
       <use xlink:href="#DejaVuSans-30" x="147.412109"/>
       <use xlink:href="#DejaVuSans-30" x="211.035156"/>
       <use xlink:href="#DejaVuSans-30" x="274.658203"/>
       <use xlink:href="#DejaVuSans-30" x="338.28125"/>
      </g>
     </g>
    </g>
    <g id="ytick_8">
     <g id="line2d_29">
      <path d="M 70.005938 67.23475 
L 349.005938 67.23475 
" clip-path="url(#p1c47bde5ef)" style="fill: none; stroke-dasharray: 0.8,1.32; stroke-dashoffset: 0; stroke: #cccccc; stroke-opacity: 0.6; stroke-width: 0.8"/>
     </g>
     <g id="line2d_30">
      <g>
       <use xlink:href="#ma2628ad6c8" x="70.005938" y="67.23475" style="fill: #262626; stroke: #262626; stroke-width: 0.8"/>
      </g>
     </g>
     <g id="text_16">
      <!-- −5000 -->
      <g style="fill: #262626" transform="translate(29.17625 71.033969) scale(0.1 -0.1)">
       <use xlink:href="#DejaVuSans-2212"/>
       <use xlink:href="#DejaVuSans-35" x="83.789062"/>
       <use xlink:href="#DejaVuSans-30" x="147.412109"/>
       <use xlink:href="#DejaVuSans-30" x="211.035156"/>
       <use xlink:href="#DejaVuSans-30" x="274.658203"/>
      </g>
     </g>
    </g>
    <g id="ytick_9">
     <g id="line2d_31">
      <path d="M 70.005938 39.51475 
L 349.005938 39.51475 
" clip-path="url(#p1c47bde5ef)" style="fill: none; stroke-dasharray: 0.8,1.32; stroke-dashoffset: 0; stroke: #cccccc; stroke-opacity: 0.6; stroke-width: 0.8"/>
     </g>
     <g id="line2d_32">
      <g>
       <use xlink:href="#ma2628ad6c8" x="70.005938" y="39.51475" style="fill: #262626; stroke: #262626; stroke-width: 0.8"/>
      </g>
     </g>
     <g id="text_17">
      <!-- 0 -->
      <g style="fill: #262626" transform="translate(56.643438 43.313969) scale(0.1 -0.1)">
       <use xlink:href="#DejaVuSans-30"/>
      </g>
     </g>
    </g>
    <g id="text_18">
     <!-- Mean Residue Ellipticity (deg·cm²·dmol⁻¹) -->
     <g style="fill: #262626" transform="translate(16.318125 275.5585) rotate(-90) scale(0.12 -0.12)">
      <defs>
       <path id="DejaVuSans-4d" d="M 628 4666 
L 1569 4666 
L 2759 1491 
L 3956 4666 
L 4897 4666 
L 4897 0 
L 4281 0 
L 4281 4097 
L 3078 897 
L 2444 897 
L 1241 4097 
L 1241 0 
L 628 0 
L 628 4666 
z
" transform="scale(0.015625)"/>
       <path id="DejaVuSans-52" d="M 2841 2188 
Q 3044 2119 3236 1894 
Q 3428 1669 3622 1275 
L 4263 0 
L 3584 0 
L 2988 1197 
Q 2756 1666 2539 1819 
Q 2322 1972 1947 1972 
L 1259 1972 
L 1259 0 
L 628 0 
L 628 4666 
L 2053 4666 
Q 2853 4666 3247 4331 
Q 3641 3997 3641 3322 
Q 3641 2881 3436 2590 
Q 3231 2300 2841 2188 
z
M 1259 4147 
L 1259 2491 
L 2053 2491 
Q 2509 2491 2742 2702 
Q 2975 2913 2975 3322 
Q 2975 3731 2742 3939 
Q 2509 4147 2053 4147 
L 1259 4147 
z
" transform="scale(0.015625)"/>
       <path id="DejaVuSans-73" d="M 2834 3397 
L 2834 2853 
Q 2591 2978 2328 3040 
Q 2066 3103 1784 3103 
Q 1356 3103 1142 2972 
Q 928 2841 928 2578 
Q 928 2378 1081 2264 
Q 1234 2150 1697 2047 
L 1894 2003 
Q 2506 1872 2764 1633 
Q 3022 1394 3022 966 
Q 3022 478 2636 193 
Q 2250 -91 1575 -91 
Q 1294 -91 989 -36 
Q 684 19 347 128 
L 347 722 
Q 666 556 975 473 
Q 1284 391 1588 391 
Q 1994 391 2212 530 
Q 2431 669 2431 922 
Q 2431 1156 2273 1281 
Q 2116 1406 1581 1522 
L 1381 1569 
Q 847 1681 609 1914 
Q 372 2147 372 2553 
Q 372 3047 722 3315 
Q 1072 3584 1716 3584 
Q 2034 3584 2315 3537 
Q 2597 3491 2834 3397 
z
" transform="scale(0.015625)"/>
       <path id="DejaVuSans-69" d="M 603 3500 
L 1178 3500 
L 1178 0 
L 603 0 
L 603 3500 
z
M 603 4863 
L 1178 4863 
L 1178 4134 
L 603 4134 
L 603 4863 
z
" transform="scale(0.015625)"/>
       <path id="DejaVuSans-64" d="M 2906 2969 
L 2906 4863 
L 3481 4863 
L 3481 0 
L 2906 0 
L 2906 525 
Q 2725 213 2448 61 
Q 2172 -91 1784 -91 
Q 1150 -91 751 415 
Q 353 922 353 1747 
Q 353 2572 751 3078 
Q 1150 3584 1784 3584 
Q 2172 3584 2448 3432 
Q 2725 3281 2906 2969 
z
M 947 1747 
Q 947 1113 1208 752 
Q 1469 391 1925 391 
Q 2381 391 2643 752 
Q 2906 1113 2906 1747 
Q 2906 2381 2643 2742 
Q 2381 3103 1925 3103 
Q 1469 3103 1208 2742 
Q 947 2381 947 1747 
z
" transform="scale(0.015625)"/>
       <path id="DejaVuSans-75" d="M 544 1381 
L 544 3500 
L 1119 3500 
L 1119 1403 
Q 1119 906 1312 657 
Q 1506 409 1894 409 
Q 2359 409 2629 706 
Q 2900 1003 2900 1516 
L 2900 3500 
L 3475 3500 
L 3475 0 
L 2900 0 
L 2900 538 
Q 2691 219 2414 64 
Q 2138 -91 1772 -91 
Q 1169 -91 856 284 
Q 544 659 544 1381 
z
M 1991 3584 
L 1991 3584 
z
" transform="scale(0.015625)"/>
       <path id="DejaVuSans-45" d="M 628 4666 
L 3578 4666 
L 3578 4134 
L 1259 4134 
L 1259 2753 
L 3481 2753 
L 3481 2222 
L 1259 2222 
L 1259 531 
L 3634 531 
L 3634 0 
L 628 0 
L 628 4666 
z
" transform="scale(0.015625)"/>
       <path id="DejaVuSans-70" d="M 1159 525 
L 1159 -1331 
L 581 -1331 
L 581 3500 
L 1159 3500 
L 1159 2969 
Q 1341 3281 1617 3432 
Q 1894 3584 2278 3584 
Q 2916 3584 3314 3078 
Q 3713 2572 3713 1747 
Q 3713 922 3314 415 
Q 2916 -91 2278 -91 
Q 1894 -91 1617 61 
Q 1341 213 1159 525 
z
M 3116 1747 
Q 3116 2381 2855 2742 
Q 2594 3103 2138 3103 
Q 1681 3103 1420 2742 
Q 1159 2381 1159 1747 
Q 1159 1113 1420 752 
Q 1681 391 2138 391 
Q 2594 391 2855 752 
Q 3116 1113 3116 1747 
z
" transform="scale(0.015625)"/>
       <path id="DejaVuSans-63" d="M 3122 3366 
L 3122 2828 
Q 2878 2963 2633 3030 
Q 2388 3097 2138 3097 
Q 1578 3097 1268 2742 
Q 959 2388 959 1747 
Q 959 1106 1268 751 
Q 1578 397 2138 397 
Q 2388 397 2633 464 
Q 2878 531 3122 666 
L 3122 134 
Q 2881 22 2623 -34 
Q 2366 -91 2075 -91 
Q 1284 -91 818 406 
Q 353 903 353 1747 
Q 353 2603 823 3093 
Q 1294 3584 2113 3584 
Q 2378 3584 2631 3529 
Q 2884 3475 3122 3366 
z
" transform="scale(0.015625)"/>
       <path id="DejaVuSans-79" d="M 2059 -325 
Q 1816 -950 1584 -1140 
Q 1353 -1331 966 -1331 
L 506 -1331 
L 506 -850 
L 844 -850 
Q 1081 -850 1212 -737 
Q 1344 -625 1503 -206 
L 1606 56 
L 191 3500 
L 800 3500 
L 1894 763 
L 2988 3500 
L 3597 3500 
L 2059 -325 
z
" transform="scale(0.015625)"/>
       <path id="DejaVuSans-b7" d="M 684 2619 
L 1344 2619 
L 1344 1825 
L 684 1825 
L 684 2619 
z
" transform="scale(0.015625)"/>
       <path id="DejaVuSans-b2" d="M 838 2444 
L 2163 2444 
L 2163 2088 
L 294 2088 
L 294 2431 
Q 400 2528 597 2703 
Q 1672 3656 1672 3950 
Q 1672 4156 1509 4282 
Q 1347 4409 1081 4409 
Q 919 4409 728 4354 
Q 538 4300 313 4191 
L 313 4575 
Q 553 4663 761 4706 
Q 969 4750 1147 4750 
Q 1600 4750 1872 4544 
Q 2144 4338 2144 4000 
Q 2144 3566 1109 2678 
Q 934 2528 838 2444 
z
" transform="scale(0.015625)"/>
       <path id="DejaVuSans-6f" d="M 1959 3097 
Q 1497 3097 1228 2736 
Q 959 2375 959 1747 
Q 959 1119 1226 758 
Q 1494 397 1959 397 
Q 2419 397 2687 759 
Q 2956 1122 2956 1747 
Q 2956 2369 2687 2733 
Q 2419 3097 1959 3097 
z
M 1959 3584 
Q 2709 3584 3137 3096 
Q 3566 2609 3566 1747 
Q 3566 888 3137 398 
Q 2709 -91 1959 -91 
Q 1206 -91 779 398 
Q 353 888 353 1747 
Q 353 2609 779 3096 
Q 1206 3584 1959 3584 
z
" transform="scale(0.015625)"/>
       <path id="DejaVuSans-207b" d="M 428 3359 
L 2950 3359 
L 2950 3063 
L 428 3063 
L 428 3359 
z
" transform="scale(0.015625)"/>
       <path id="DejaVuSans-b9" d="M 488 2431 
L 1125 2431 
L 1125 4341 
L 428 4213 
L 428 4575 
L 1147 4697 
L 1575 4697 
L 1575 2431 
L 2216 2431 
L 2216 2088 
L 488 2088 
L 488 2431 
z
" transform="scale(0.015625)"/>
      </defs>
      <use xlink:href="#DejaVuSans-4d"/>
      <use xlink:href="#DejaVuSans-65" x="86.279297"/>
      <use xlink:href="#DejaVuSans-61" x="147.802734"/>
      <use xlink:href="#DejaVuSans-6e" x="209.082031"/>
      <use xlink:href="#DejaVuSans-20" x="272.460938"/>
      <use xlink:href="#DejaVuSans-52" x="304.248047"/>
      <use xlink:href="#DejaVuSans-65" x="369.230469"/>
      <use xlink:href="#DejaVuSans-73" x="430.753906"/>
      <use xlink:href="#DejaVuSans-69" x="482.853516"/>
      <use xlink:href="#DejaVuSans-64" x="510.636719"/>
      <use xlink:href="#DejaVuSans-75" x="574.113281"/>
      <use xlink:href="#DejaVuSans-65" x="637.492188"/>
      <use xlink:href="#DejaVuSans-20" x="699.015625"/>
      <use xlink:href="#DejaVuSans-45" x="730.802734"/>
      <use xlink:href="#DejaVuSans-6c" x="793.986328"/>
      <use xlink:href="#DejaVuSans-6c" x="821.769531"/>
      <use xlink:href="#DejaVuSans-69" x="849.552734"/>
      <use xlink:href="#DejaVuSans-70" x="877.335938"/>
      <use xlink:href="#DejaVuSans-74" x="940.8125"/>
      <use xlink:href="#DejaVuSans-69" x="980.021484"/>
      <use xlink:href="#DejaVuSans-63" x="1007.804688"/>
      <use xlink:href="#DejaVuSans-69" x="1062.785156"/>
      <use xlink:href="#DejaVuSans-74" x="1090.568359"/>
      <use xlink:href="#DejaVuSans-79" x="1129.777344"/>
      <use xlink:href="#DejaVuSans-20" x="1188.957031"/>
      <use xlink:href="#DejaVuSans-28" x="1220.744141"/>
      <use xlink:href="#DejaVuSans-64" x="1259.757812"/>
      <use xlink:href="#DejaVuSans-65" x="1323.234375"/>
      <use xlink:href="#DejaVuSans-67" x="1384.757812"/>
      <use xlink:href="#DejaVuSans-b7" x="1448.234375"/>
      <use xlink:href="#DejaVuSans-63" x="1480.021484"/>
      <use xlink:href="#DejaVuSans-6d" x="1535.001953"/>
      <use xlink:href="#DejaVuSans-b2" x="1632.414062"/>
      <use xlink:href="#DejaVuSans-b7" x="1672.501953"/>
      <use xlink:href="#DejaVuSans-64" x="1704.289062"/>
      <use xlink:href="#DejaVuSans-6d" x="1767.765625"/>
      <use xlink:href="#DejaVuSans-6f" x="1865.177734"/>
      <use xlink:href="#DejaVuSans-6c" x="1926.359375"/>
      <use xlink:href="#DejaVuSans-207b" x="1954.142578"/>
      <use xlink:href="#DejaVuSans-b9" x="2006.925781"/>
      <use xlink:href="#DejaVuSans-29" x="2047.013672"/>
     </g>
    </g>
   </g>
   <g id="PolyCollection_1"/>
   <g id="PolyCollection_2"/>
   <g id="line2d_33">
    <path d="M 23.505938 230.385786 
L 24.810547 193.754379 
L 25.462851 179.498151 
L 26.115156 168.253293 
L 26.767461 159.4097 
L 27.419765 152.662321 
L 28.07207 147.706104 
L 28.724374 144.235997 
L 29.376679 141.94695 
L 30.028984 140.533909 
L 30.681288 139.691823 
L 31.985897 138.455105 
L 32.638202 137.430021 
L 33.290507 135.891769 
L 34.595116 131.639559 
L 35.24742 129.478523 
L 35.899725 127.728088 
L 36.55203 126.72144 
L 37.204334 126.761988 
L 37.856639 128.020678 
L 38.508944 130.486558 
L 39.161248 133.973154 
L 40.465857 142.80442 
L 42.422771 156.354571 
L 43.075076 159.76822 
L 43.72738 162.079072 
L 44.379685 162.929172 
L 45.03199 161.957524 
L 45.684294 158.771691 
L 46.336599 152.983121 
L 46.988903 144.386687 
L 47.641208 133.066363 
L 48.945817 104.022224 
L 52.20734 23.279755 
L 53.408439 -1 
M 76.620412 -1 
L 82.865657 45.399649 
L 87.431789 77.651875 
L 88.736398 85.662789 
L 90.041008 92.627831 
L 91.997921 101.729983 
L 97.216358 124.521849 
L 98.520968 129.148608 
L 99.825577 133.049028 
L 105.696318 148.650733 
L 107.000927 151.458444 
L 108.305537 153.434613 
L 108.957841 154.115132 
L 110.262451 155.003276 
L 111.56706 155.464525 
L 112.871669 155.675911 
L 114.176278 155.61873 
L 114.828583 155.443225 
L 115.480887 155.141983 
L 116.133192 154.695061 
L 117.437801 153.351133 
L 119.394715 150.609937 
L 120.699324 148.80047 
L 122.003933 147.348722 
L 123.960847 145.730836 
L 125.265457 144.631751 
L 126.570066 143.241361 
L 129.179284 140.102521 
L 130.483893 139.030963 
L 131.136198 138.73587 
L 131.788503 138.595035 
L 133.093112 138.639058 
L 135.70233 138.952095 
L 137.659244 138.782925 
L 139.616158 138.665777 
L 140.920767 138.848092 
L 142.225376 139.271453 
L 143.529986 139.891183 
L 145.486899 141.094543 
L 153.314555 146.380862 
L 155.271469 147.255936 
L 157.228382 147.832205 
L 159.185296 148.090524 
L 161.14221 148.068156 
L 163.751428 147.783119 
L 167.012952 147.433706 
L 168.969865 147.464123 
L 174.840607 147.896126 
L 177.449825 147.740395 
L 179.406739 147.375226 
L 180.711348 146.93286 
L 182.015958 146.275274 
L 183.972871 144.931794 
L 187.234394 142.533028 
L 191.148222 139.898074 
L 193.105136 138.287381 
L 195.714354 135.843169 
L 198.323573 133.167914 
L 200.280487 130.924514 
L 202.2374 128.402031 
L 204.846619 124.608848 
L 208.108142 119.333847 
L 213.978883 109.460705 
L 221.806539 95.378141 
L 225.068062 89.864363 
L 233.548022 74.950567 
L 236.15724 71.133234 
L 240.071068 65.770959 
L 242.027982 63.412867 
L 243.984895 61.462501 
L 247.246418 58.690732 
L 251.160246 55.279904 
L 257.683292 49.440919 
L 261.59712 46.424545 
L 264.858643 44.167666 
L 267.467861 42.634279 
L 270.729384 40.991203 
L 273.338603 39.878134 
L 275.295517 39.271247 
L 283.123172 37.310857 
L 286.384695 36.485622 
L 289.646218 35.912416 
L 295.51696 35.16132 
L 298.126178 35.006219 
L 305.301529 34.989723 
L 309.215356 34.804228 
L 313.129184 34.896641 
L 316.390707 34.912704 
L 322.913753 34.54966 
L 326.175276 34.710924 
L 332.046018 34.642365 
L 335.307541 35.090277 
L 339.221368 35.666783 
L 341.830587 35.810163 
L 349.005938 35.972376 
L 349.005938 35.972376 
" clip-path="url(#p1c47bde5ef)" style="fill: none; stroke: #000000; stroke-width: 1.5; stroke-linecap: round"/>
   </g>
   <g id="line2d_34">
    <path d="M 23.505938 74.988287 
L 24.810547 50.375651 
L 26.115156 31.745627 
L 26.767461 24.632298 
L 27.419765 18.907147 
L 28.07207 14.522407 
L 28.724374 11.430312 
L 29.376679 9.583095 
L 30.028984 8.932989 
L 30.681288 9.432227 
L 31.333593 11.033613 
L 31.985897 13.694168 
L 32.638202 17.364263 
L 33.290507 21.973075 
L 34.595116 33.58811 
L 35.899725 47.514284 
L 39.161248 85.83545 
L 41.770467 118.554017 
L 43.72738 143.300873 
L 44.379685 148.966396 
L 45.03199 151.831289 
L 45.684294 150.914432 
L 46.336599 145.245747 
L 46.988903 134.299524 
L 47.641208 118.25041 
L 48.945817 75.011904 
L 50.902731 5.163242 
L 51.116809 -1 
M 76.977619 -1 
L 84.170266 60.346851 
L 86.779485 80.750032 
L 88.736398 94.702221 
L 90.693312 107.155433 
L 93.302531 122.111845 
L 95.259445 132.511817 
L 96.564054 138.757886 
L 97.868663 144.124023 
L 99.173272 148.453358 
L 100.477881 151.870099 
L 101.782491 154.637462 
L 103.739404 158.071232 
L 105.044014 159.983888 
L 106.348623 161.530325 
L 107.653232 162.65078 
L 108.957841 163.331742 
L 110.262451 163.616547 
L 111.56706 163.560564 
L 112.871669 163.220439 
L 114.176278 162.663834 
L 116.785497 161.20288 
L 120.699324 158.750374 
L 127.874675 153.887459 
L 129.831589 152.963106 
L 131.788503 152.298986 
L 137.659244 150.82399 
L 139.616158 150.517285 
L 140.920767 150.513599 
L 142.877681 150.802859 
L 144.834595 151.343448 
L 148.748422 152.5211 
L 150.705336 152.790992 
L 152.66225 153.017436 
L 153.966859 153.338148 
L 155.923773 154.163401 
L 159.185296 155.666429 
L 168.317561 158.791428 
L 169.62217 158.926803 
L 171.579084 158.838954 
L 173.535998 158.475879 
L 178.754434 157.074309 
L 180.711348 156.387336 
L 182.015958 155.693487 
L 183.972871 154.271059 
L 191.800527 147.718963 
L 193.757441 145.552075 
L 197.671268 140.777347 
L 202.2374 134.957004 
L 204.194314 132.228662 
L 206.151228 129.175483 
L 210.71736 121.381932 
L 213.326579 116.759595 
L 215.283493 112.887985 
L 219.849625 103.56398 
L 223.111148 97.793681 
L 230.286499 85.38757 
L 238.114154 72.862834 
L 240.723372 69.117846 
L 243.332591 65.830048 
L 245.941809 62.962748 
L 257.683292 51.021082 
L 261.59712 47.508118 
L 264.206338 45.380584 
L 266.163252 44.057109 
L 268.120166 42.990171 
L 271.381689 41.49295 
L 273.990907 40.471193 
L 275.947821 39.892254 
L 278.55704 39.36991 
L 286.384695 38.12279 
L 288.993913 37.670153 
L 294.864655 37.021737 
L 297.473873 36.587137 
L 299.430787 36.543273 
L 303.344615 36.682839 
L 305.953833 36.462397 
L 310.519966 36.048114 
L 315.086098 35.847186 
L 318.347621 35.925069 
L 321.609144 35.975367 
L 328.13219 35.773386 
L 331.393713 35.780593 
L 334.655236 35.712501 
L 336.61215 35.89815 
L 341.830587 36.620732 
L 349.005938 37.032675 
L 349.005938 37.032675 
" clip-path="url(#p1c47bde5ef)" style="fill: none; stroke-dasharray: 5.55,2.4; stroke-dashoffset: 0; stroke: #d55e00; stroke-width: 1.5"/>
   </g>
   <g id="line2d_35">
    <path d="M 70.005938 39.51475 
L 349.005938 39.51475 
" clip-path="url(#p1c47bde5ef)" style="fill: none; stroke: #808080; stroke-width: 0.5; stroke-linecap: round"/>
   </g>
   <g id="patch_3">
    <path d="M 70.005938 261.27475 
L 70.005938 39.51475 
" style="fill: none; stroke: #262626; stroke-width: 0.8; stroke-linejoin: miter; stroke-linecap: square"/>
   </g>
   <g id="patch_4">
    <path d="M 349.005938 261.27475 
L 349.005938 39.51475 
" style="fill: none; stroke: #262626; stroke-width: 0.8; stroke-linejoin: miter; stroke-linecap: square"/>
   </g>
   <g id="patch_5">
    <path d="M 70.005938 261.27475 
L 349.005938 261.27475 
" style="fill: none; stroke: #262626; stroke-width: 0.8; stroke-linejoin: miter; stroke-linecap: square"/>
   </g>
   <g id="patch_6">
    <path d="M 70.005938 39.51475 
L 349.005938 39.51475 
" style="fill: none; stroke: #262626; stroke-width: 0.8; stroke-linejoin: miter; stroke-linecap: square"/>
   </g>
   <g id="text_19">
    <!-- Circular Dichroism Spectrum -->
    <g style="fill: #262626" transform="translate(109.153281 17.837812) scale(0.14 -0.14)">
     <defs>
      <path id="DejaVuSans-43" d="M 4122 4306 
L 4122 3641 
Q 3803 3938 3442 4084 
Q 3081 4231 2675 4231 
Q 1875 4231 1450 3742 
Q 1025 3253 1025 2328 
Q 1025 1406 1450 917 
Q 1875 428 2675 428 
Q 3081 428 3442 575 
Q 3803 722 4122 1019 
L 4122 359 
Q 3791 134 3420 21 
Q 3050 -91 2638 -91 
Q 1578 -91 968 557 
Q 359 1206 359 2328 
Q 359 3453 968 4101 
Q 1578 4750 2638 4750 
Q 3056 4750 3426 4639 
Q 3797 4528 4122 4306 
z
" transform="scale(0.015625)"/>
      <path id="DejaVuSans-72" d="M 2631 2963 
Q 2534 3019 2420 3045 
Q 2306 3072 2169 3072 
Q 1681 3072 1420 2755 
Q 1159 2438 1159 1844 
L 1159 0 
L 581 0 
L 581 3500 
L 1159 3500 
L 1159 2956 
Q 1341 3275 1631 3429 
Q 1922 3584 2338 3584 
Q 2397 3584 2469 3576 
Q 2541 3569 2628 3553 
L 2631 2963 
z
" transform="scale(0.015625)"/>
      <path id="DejaVuSans-44" d="M 1259 4147 
L 1259 519 
L 2022 519 
Q 2988 519 3436 956 
Q 3884 1394 3884 2338 
Q 3884 3275 3436 3711 
Q 2988 4147 2022 4147 
L 1259 4147 
z
M 628 4666 
L 1925 4666 
Q 3281 4666 3915 4102 
Q 4550 3538 4550 2338 
Q 4550 1131 3912 565 
Q 3275 0 1925 0 
L 628 0 
L 628 4666 
z
" transform="scale(0.015625)"/>
      <path id="DejaVuSans-53" d="M 3425 4513 
L 3425 3897 
Q 3066 4069 2747 4153 
Q 2428 4238 2131 4238 
Q 1616 4238 1336 4038 
Q 1056 3838 1056 3469 
Q 1056 3159 1242 3001 
Q 1428 2844 1947 2747 
L 2328 2669 
Q 3034 2534 3370 2195 
Q 3706 1856 3706 1288 
Q 3706 609 3251 259 
Q 2797 -91 1919 -91 
Q 1588 -91 1214 -16 
Q 841 59 441 206 
L 441 856 
Q 825 641 1194 531 
Q 1563 422 1919 422 
Q 2459 422 2753 634 
Q 3047 847 3047 1241 
Q 3047 1584 2836 1778 
Q 2625 1972 2144 2069 
L 1759 2144 
Q 1053 2284 737 2584 
Q 422 2884 422 3419 
Q 422 4038 858 4394 
Q 1294 4750 2059 4750 
Q 2388 4750 2728 4690 
Q 3069 4631 3425 4513 
z
" transform="scale(0.015625)"/>
     </defs>
     <use xlink:href="#DejaVuSans-43"/>
     <use xlink:href="#DejaVuSans-69" x="69.824219"/>
     <use xlink:href="#DejaVuSans-72" x="97.607422"/>
     <use xlink:href="#DejaVuSans-63" x="136.470703"/>
     <use xlink:href="#DejaVuSans-75" x="191.451172"/>
     <use xlink:href="#DejaVuSans-6c" x="254.830078"/>
     <use xlink:href="#DejaVuSans-61" x="282.613281"/>
     <use xlink:href="#DejaVuSans-72" x="343.892578"/>
     <use xlink:href="#DejaVuSans-20" x="385.005859"/>
     <use xlink:href="#DejaVuSans-44" x="416.792969"/>
     <use xlink:href="#DejaVuSans-69" x="493.794922"/>
     <use xlink:href="#DejaVuSans-63" x="521.578125"/>
     <use xlink:href="#DejaVuSans-68" x="576.558594"/>
     <use xlink:href="#DejaVuSans-72" x="639.9375"/>
     <use xlink:href="#DejaVuSans-6f" x="678.800781"/>
     <use xlink:href="#DejaVuSans-69" x="739.982422"/>
     <use xlink:href="#DejaVuSans-73" x="767.765625"/>
     <use xlink:href="#DejaVuSans-6d" x="819.865234"/>
     <use xlink:href="#DejaVuSans-20" x="917.277344"/>
     <use xlink:href="#DejaVuSans-53" x="949.064453"/>
     <use xlink:href="#DejaVuSans-70" x="1012.541016"/>
     <use xlink:href="#DejaVuSans-65" x="1076.017578"/>
     <use xlink:href="#DejaVuSans-63" x="1137.541016"/>
     <use xlink:href="#DejaVuSans-74" x="1192.521484"/>
     <use xlink:href="#DejaVuSans-72" x="1231.730469"/>
     <use xlink:href="#DejaVuSans-75" x="1272.84375"/>
     <use xlink:href="#DejaVuSans-6d" x="1336.222656"/>
    </g>
    <!-- L5IIIN Pre vs Post-Melt -->
    <g style="fill: #262626" transform="translate(131.928438 33.51475) scale(0.14 -0.14)">
     <defs>
      <path id="DejaVuSans-4c" d="M 628 4666 
L 1259 4666 
L 1259 531 
L 3531 531 
L 3531 0 
L 628 0 
L 628 4666 
z
" transform="scale(0.015625)"/>
      <path id="DejaVuSans-49" d="M 628 4666 
L 1259 4666 
L 1259 0 
L 628 0 
L 628 4666 
z
" transform="scale(0.015625)"/>
      <path id="DejaVuSans-4e" d="M 628 4666 
L 1478 4666 
L 3547 763 
L 3547 4666 
L 4159 4666 
L 4159 0 
L 3309 0 
L 1241 3903 
L 1241 0 
L 628 0 
L 628 4666 
z
" transform="scale(0.015625)"/>
      <path id="DejaVuSans-50" d="M 1259 4147 
L 1259 2394 
L 2053 2394 
Q 2494 2394 2734 2622 
Q 2975 2850 2975 3272 
Q 2975 3691 2734 3919 
Q 2494 4147 2053 4147 
L 1259 4147 
z
M 628 4666 
L 2053 4666 
Q 2838 4666 3239 4311 
Q 3641 3956 3641 3272 
Q 3641 2581 3239 2228 
Q 2838 1875 2053 1875 
L 1259 1875 
L 1259 0 
L 628 0 
L 628 4666 
z
" transform="scale(0.015625)"/>
      <path id="DejaVuSans-2d" d="M 313 2009 
L 1997 2009 
L 1997 1497 
L 313 1497 
L 313 2009 
z
" transform="scale(0.015625)"/>
     </defs>
     <use xlink:href="#DejaVuSans-4c"/>
     <use xlink:href="#DejaVuSans-35" x="55.712891"/>
     <use xlink:href="#DejaVuSans-49" x="119.335938"/>
     <use xlink:href="#DejaVuSans-49" x="148.828125"/>
     <use xlink:href="#DejaVuSans-49" x="178.320312"/>
     <use xlink:href="#DejaVuSans-4e" x="207.8125"/>
     <use xlink:href="#DejaVuSans-20" x="282.617188"/>
     <use xlink:href="#DejaVuSans-50" x="314.404297"/>
     <use xlink:href="#DejaVuSans-72" x="372.957031"/>
     <use xlink:href="#DejaVuSans-65" x="411.820312"/>
     <use xlink:href="#DejaVuSans-20" x="473.34375"/>
     <use xlink:href="#DejaVuSans-76" x="505.130859"/>
     <use xlink:href="#DejaVuSans-73" x="564.310547"/>
     <use xlink:href="#DejaVuSans-20" x="616.410156"/>
     <use xlink:href="#DejaVuSans-50" x="648.197266"/>
     <use xlink:href="#DejaVuSans-6f" x="704.875"/>
     <use xlink:href="#DejaVuSans-73" x="766.056641"/>
     <use xlink:href="#DejaVuSans-74" x="818.15625"/>
     <use xlink:href="#DejaVuSans-2d" x="857.365234"/>
     <use xlink:href="#DejaVuSans-4d" x="893.449219"/>
     <use xlink:href="#DejaVuSans-65" x="979.728516"/>
     <use xlink:href="#DejaVuSans-6c" x="1041.251953"/>
     <use xlink:href="#DejaVuSans-74" x="1069.035156"/>
    </g>
   </g>
   <g id="legend_1">
    <g id="patch_7">
     <path d="M 231.446563 256.27475 
L 342.005938 256.27475 
Q 344.005938 256.27475 344.005938 254.27475 
L 344.005938 225.9185 
Q 344.005938 223.9185 342.005938 223.9185 
L 231.446563 223.9185 
Q 229.446563 223.9185 229.446563 225.9185 
L 229.446563 254.27475 
Q 229.446563 256.27475 231.446563 256.27475 
z
" style="fill: #ffffff; opacity: 0.8; stroke: #cccccc; stroke-linejoin: miter"/>
    </g>
    <g id="line2d_36">
     <path d="M 233.446563 232.016937 
L 243.446563 232.016937 
L 253.446563 232.016937 
" style="fill: none; stroke: #000000; stroke-width: 1.5; stroke-linecap: round"/>
    </g>
    <g id="text_20">
     <!-- L5IIIN Pre-melt -->
     <g style="fill: #262626" transform="translate(261.446563 235.516937) scale(0.1 -0.1)">
      <use xlink:href="#DejaVuSans-4c"/>
      <use xlink:href="#DejaVuSans-35" x="55.712891"/>
      <use xlink:href="#DejaVuSans-49" x="119.335938"/>
      <use xlink:href="#DejaVuSans-49" x="148.828125"/>
      <use xlink:href="#DejaVuSans-49" x="178.320312"/>
      <use xlink:href="#DejaVuSans-4e" x="207.8125"/>
      <use xlink:href="#DejaVuSans-20" x="282.617188"/>
      <use xlink:href="#DejaVuSans-50" x="314.404297"/>
      <use xlink:href="#DejaVuSans-72" x="372.957031"/>
      <use xlink:href="#DejaVuSans-65" x="411.820312"/>
      <use xlink:href="#DejaVuSans-2d" x="473.34375"/>
      <use xlink:href="#DejaVuSans-6d" x="509.427734"/>
      <use xlink:href="#DejaVuSans-65" x="606.839844"/>
      <use xlink:href="#DejaVuSans-6c" x="668.363281"/>
      <use xlink:href="#DejaVuSans-74" x="696.146484"/>
     </g>
    </g>
    <g id="line2d_37">
     <path d="M 233.446563 246.695062 
L 243.446563 246.695062 
L 253.446563 246.695062 
" style="fill: none; stroke-dasharray: 5.55,2.4; stroke-dashoffset: 0; stroke: #d55e00; stroke-width: 1.5"/>
    </g>
    <g id="text_21">
     <!-- L5IIIN Post-melt -->
     <g style="fill: #262626" transform="translate(261.446563 250.195062) scale(0.1 -0.1)">
      <use xlink:href="#DejaVuSans-4c"/>
      <use xlink:href="#DejaVuSans-35" x="55.712891"/>
      <use xlink:href="#DejaVuSans-49" x="119.335938"/>
      <use xlink:href="#DejaVuSans-49" x="148.828125"/>
      <use xlink:href="#DejaVuSans-49" x="178.320312"/>
      <use xlink:href="#DejaVuSans-4e" x="207.8125"/>
      <use xlink:href="#DejaVuSans-20" x="282.617188"/>
      <use xlink:href="#DejaVuSans-50" x="314.404297"/>
      <use xlink:href="#DejaVuSans-6f" x="371.082031"/>
      <use xlink:href="#DejaVuSans-73" x="432.263672"/>
      <use xlink:href="#DejaVuSans-74" x="484.363281"/>
      <use xlink:href="#DejaVuSans-2d" x="523.572266"/>
      <use xlink:href="#DejaVuSans-6d" x="559.65625"/>
      <use xlink:href="#DejaVuSans-65" x="657.068359"/>
      <use xlink:href="#DejaVuSans-6c" x="718.591797"/>
      <use xlink:href="#DejaVuSans-74" x="746.375"/>
     </g>
    </g>
   </g>
  </g>
 </g>
 <defs>
  <clipPath id="p1c47bde5ef">
   <rect x="70.005938" y="39.51475" width="279" height="221.76"/>
  </clipPath>
 </defs>
</svg>
