<?xml version="1.0" encoding="utf-8" standalone="no"?>
<!DOCTYPE svg PUBLIC "-//W3C//DTD SVG 1.1//EN"
  "http://www.w3.org/Graphics/SVG/1.1/DTD/svg11.dtd">
<svg xmlns:xlink="http://www.w3.org/1999/xlink" width="360pt" height="216pt" viewBox="0 0 360 216" xmlns="http://www.w3.org/2000/svg" version="1.1">
 <metadata>
  <rdf:RDF xmlns:dc="http://purl.org/dc/elements/1.1/" xmlns:cc="http://creativecommons.org/ns#" xmlns:rdf="http://www.w3.org/1999/02/22-rdf-syntax-ns#">
   <cc:Work>
    <dc:type rdf:resource="http://purl.org/dc/dcmitype/StillImage"/>
    <dc:date>2025-04-16T18:27:19.529432</dc:date>
    <dc:format>image/svg+xml</dc:format>
    <dc:creator>
     <cc:Agent>
      <dc:title>Matplotlib v3.5.3, https://matplotlib.org/</dc:title>
     </cc:Agent>
    </dc:creator>
   </cc:Work>
  </rdf:RDF>
 </metadata>
 <defs>
  <style type="text/css">*{stroke-linejoin: round; stroke-linecap: butt}</style>
 </defs>
 <g id="figure_1">
  <g id="patch_1">
   <path d="M 0 216 
L 360 216 
L 360 0 
L 0 0 
z
" style="fill: #ffffff"/>
  </g>
  <g id="axes_1">
   <g id="patch_2">
    <path d="M 47.81 173.93875 
L 344.033622 173.93875 
L 344.033622 13.572 
L 47.81 13.572 
z
" style="fill: #ffffff"/>
   </g>
   <g id="PolyCollection_1"/>
   <g id="PolyCollection_2"/>
   <g id="PolyCollection_3"/>
   <g id="PolyCollection_4"/>
   <g id="PolyCollection_5"/>
   <g id="PolyCollection_6"/>
   <g id="PolyCollection_7"/>
   <g id="PolyCollection_8"/>
   <g id="PolyCollection_9"/>
   <g id="matplotlib.axis_1">
    <g id="xtick_1">
     <g id="line2d_1">
      <path d="M 47.81 173.93875 
L 47.81 13.572 
" clip-path="url(#pe8706863ea)" style="fill: none; stroke-dasharray: 2.96,1.28; stroke-dashoffset: 0; stroke: #b0b0b0; stroke-opacity: 0.5; stroke-width: 0.8"/>
     </g>
     <g id="line2d_2">
      <defs>
       <path id="mf9b5cf6114" d="M 0 0 
L 0 3.5 
" style="stroke: #000000; stroke-width: 0.8"/>
      </defs>
      <g>
       <use xlink:href="#mf9b5cf6114" x="47.81" y="173.93875" style="stroke: #000000; stroke-width: 0.8"/>
      </g>
     </g>
     <g id="text_1">
      <!-- 9 -->
      <g transform="translate(44.62875 188.537188)scale(0.1 -0.1)">
       <defs>
        <path id="DejaVuSans-39" d="M 703 97 
L 703 672 
Q 941 559 1184 500 
Q 1428 441 1663 441 
Q 2288 441 2617 861 
Q 2947 1281 2994 2138 
Q 2813 1869 2534 1725 
Q 2256 1581 1919 1581 
Q 1219 1581 811 2004 
Q 403 2428 403 3163 
Q 403 3881 828 4315 
Q 1253 4750 1959 4750 
Q 2769 4750 3195 4129 
Q 3622 3509 3622 2328 
Q 3622 1225 3098 567 
Q 2575 -91 1691 -91 
Q 1453 -91 1209 -44 
Q 966 3 703 97 
z
M 1959 2075 
Q 2384 2075 2632 2365 
Q 2881 2656 2881 3163 
Q 2881 3666 2632 3958 
Q 2384 4250 1959 4250 
Q 1534 4250 1286 3958 
Q 1038 3666 1038 3163 
Q 1038 2656 1286 2365 
Q 1534 2075 1959 2075 
z
" transform="scale(0.015625)"/>
       </defs>
       <use xlink:href="#DejaVuSans-39"/>
      </g>
     </g>
    </g>
    <g id="xtick_2">
     <g id="line2d_3">
      <path d="M 80.723736 173.93875 
L 80.723736 13.572 
" clip-path="url(#pe8706863ea)" style="fill: none; stroke-dasharray: 2.96,1.28; stroke-dashoffset: 0; stroke: #b0b0b0; stroke-opacity: 0.5; stroke-width: 0.8"/>
     </g>
     <g id="line2d_4">
      <g>
       <use xlink:href="#mf9b5cf6114" x="80.723736" y="173.93875" style="stroke: #000000; stroke-width: 0.8"/>
      </g>
     </g>
     <g id="text_2">
      <!-- 10 -->
      <g transform="translate(74.361236 188.537188)scale(0.1 -0.1)">
       <defs>
        <path id="DejaVuSans-31" d="M 794 531 
L 1825 531 
L 1825 4091 
L 703 3866 
L 703 4441 
L 1819 4666 
L 2450 4666 
L 2450 531 
L 3481 531 
L 3481 0 
L 794 0 
L 794 531 
z
" transform="scale(0.015625)"/>
        <path id="DejaVuSans-30" d="M 2034 4250 
Q 1547 4250 1301 3770 
Q 1056 3291 1056 2328 
Q 1056 1369 1301 889 
Q 1547 409 2034 409 
Q 2525 409 2770 889 
Q 3016 1369 3016 2328 
Q 3016 3291 2770 3770 
Q 2525 4250 2034 4250 
z
M 2034 4750 
Q 2819 4750 3233 4129 
Q 3647 3509 3647 2328 
Q 3647 1150 3233 529 
Q 2819 -91 2034 -91 
Q 1250 -91 836 529 
Q 422 1150 422 2328 
Q 422 3509 836 4129 
Q 1250 4750 2034 4750 
z
" transform="scale(0.015625)"/>
       </defs>
       <use xlink:href="#DejaVuSans-31"/>
       <use xlink:href="#DejaVuSans-30" x="63.623047"/>
      </g>
     </g>
    </g>
    <g id="xtick_3">
     <g id="line2d_5">
      <path d="M 113.637472 173.93875 
L 113.637472 13.572 
" clip-path="url(#pe8706863ea)" style="fill: none; stroke-dasharray: 2.96,1.28; stroke-dashoffset: 0; stroke: #b0b0b0; stroke-opacity: 0.5; stroke-width: 0.8"/>
     </g>
     <g id="line2d_6">
      <g>
       <use xlink:href="#mf9b5cf6114" x="113.637472" y="173.93875" style="stroke: #000000; stroke-width: 0.8"/>
      </g>
     </g>
     <g id="text_3">
      <!-- 11 -->
      <g transform="translate(107.274972 188.537188)scale(0.1 -0.1)">
       <use xlink:href="#DejaVuSans-31"/>
       <use xlink:href="#DejaVuSans-31" x="63.623047"/>
      </g>
     </g>
    </g>
    <g id="xtick_4">
     <g id="line2d_7">
      <path d="M 146.551207 173.93875 
L 146.551207 13.572 
" clip-path="url(#pe8706863ea)" style="fill: none; stroke-dasharray: 2.96,1.28; stroke-dashoffset: 0; stroke: #b0b0b0; stroke-opacity: 0.5; stroke-width: 0.8"/>
     </g>
     <g id="line2d_8">
      <g>
       <use xlink:href="#mf9b5cf6114" x="146.551207" y="173.93875" style="stroke: #000000; stroke-width: 0.8"/>
      </g>
     </g>
     <g id="text_4">
      <!-- 12 -->
      <g transform="translate(140.188707 188.537188)scale(0.1 -0.1)">
       <defs>
        <path id="DejaVuSans-32" d="M 1228 531 
L 3431 531 
L 3431 0 
L 469 0 
L 469 531 
Q 828 903 1448 1529 
Q 2069 2156 2228 2338 
Q 2531 2678 2651 2914 
Q 2772 3150 2772 3378 
Q 2772 3750 2511 3984 
Q 2250 4219 1831 4219 
Q 1534 4219 1204 4116 
Q 875 4013 500 3803 
L 500 4441 
Q 881 4594 1212 4672 
Q 1544 4750 1819 4750 
Q 2544 4750 2975 4387 
Q 3406 4025 3406 3419 
Q 3406 3131 3298 2873 
Q 3191 2616 2906 2266 
Q 2828 2175 2409 1742 
Q 1991 1309 1228 531 
z
" transform="scale(0.015625)"/>
       </defs>
       <use xlink:href="#DejaVuSans-31"/>
       <use xlink:href="#DejaVuSans-32" x="63.623047"/>
      </g>
     </g>
    </g>
    <g id="xtick_5">
     <g id="line2d_9">
      <path d="M 179.464943 173.93875 
L 179.464943 13.572 
" clip-path="url(#pe8706863ea)" style="fill: none; stroke-dasharray: 2.96,1.28; stroke-dashoffset: 0; stroke: #b0b0b0; stroke-opacity: 0.5; stroke-width: 0.8"/>
     </g>
     <g id="line2d_10">
      <g>
       <use xlink:href="#mf9b5cf6114" x="179.464943" y="173.93875" style="stroke: #000000; stroke-width: 0.8"/>
      </g>
     </g>
     <g id="text_5">
      <!-- 13 -->
      <g transform="translate(173.102443 188.537188)scale(0.1 -0.1)">
       <defs>
        <path id="DejaVuSans-33" d="M 2597 2516 
Q 3050 2419 3304 2112 
Q 3559 1806 3559 1356 
Q 3559 666 3084 287 
Q 2609 -91 1734 -91 
Q 1441 -91 1130 -33 
Q 819 25 488 141 
L 488 750 
Q 750 597 1062 519 
Q 1375 441 1716 441 
Q 2309 441 2620 675 
Q 2931 909 2931 1356 
Q 2931 1769 2642 2001 
Q 2353 2234 1838 2234 
L 1294 2234 
L 1294 2753 
L 1863 2753 
Q 2328 2753 2575 2939 
Q 2822 3125 2822 3475 
Q 2822 3834 2567 4026 
Q 2313 4219 1838 4219 
Q 1578 4219 1281 4162 
Q 984 4106 628 3988 
L 628 4550 
Q 988 4650 1302 4700 
Q 1616 4750 1894 4750 
Q 2613 4750 3031 4423 
Q 3450 4097 3450 3541 
Q 3450 3153 3228 2886 
Q 3006 2619 2597 2516 
z
" transform="scale(0.015625)"/>
       </defs>
       <use xlink:href="#DejaVuSans-31"/>
       <use xlink:href="#DejaVuSans-33" x="63.623047"/>
      </g>
     </g>
    </g>
    <g id="xtick_6">
     <g id="line2d_11">
      <path d="M 212.378679 173.93875 
L 212.378679 13.572 
" clip-path="url(#pe8706863ea)" style="fill: none; stroke-dasharray: 2.96,1.28; stroke-dashoffset: 0; stroke: #b0b0b0; stroke-opacity: 0.5; stroke-width: 0.8"/>
     </g>
     <g id="line2d_12">
      <g>
       <use xlink:href="#mf9b5cf6114" x="212.378679" y="173.93875" style="stroke: #000000; stroke-width: 0.8"/>
      </g>
     </g>
     <g id="text_6">
      <!-- 14 -->
      <g transform="translate(206.016179 188.537188)scale(0.1 -0.1)">
       <defs>
        <path id="DejaVuSans-34" d="M 2419 4116 
L 825 1625 
L 2419 1625 
L 2419 4116 
z
M 2253 4666 
L 3047 4666 
L 3047 1625 
L 3713 1625 
L 3713 1100 
L 3047 1100 
L 3047 0 
L 2419 0 
L 2419 1100 
L 313 1100 
L 313 1709 
L 2253 4666 
z
" transform="scale(0.015625)"/>
       </defs>
       <use xlink:href="#DejaVuSans-31"/>
       <use xlink:href="#DejaVuSans-34" x="63.623047"/>
      </g>
     </g>
    </g>
    <g id="xtick_7">
     <g id="line2d_13">
      <path d="M 245.292415 173.93875 
L 245.292415 13.572 
" clip-path="url(#pe8706863ea)" style="fill: none; stroke-dasharray: 2.96,1.28; stroke-dashoffset: 0; stroke: #b0b0b0; stroke-opacity: 0.5; stroke-width: 0.8"/>
     </g>
     <g id="line2d_14">
      <g>
       <use xlink:href="#mf9b5cf6114" x="245.292415" y="173.93875" style="stroke: #000000; stroke-width: 0.8"/>
      </g>
     </g>
     <g id="text_7">
      <!-- 15 -->
      <g transform="translate(238.929915 188.537188)scale(0.1 -0.1)">
       <defs>
        <path id="DejaVuSans-35" d="M 691 4666 
L 3169 4666 
L 3169 4134 
L 1269 4134 
L 1269 2991 
Q 1406 3038 1543 3061 
Q 1681 3084 1819 3084 
Q 2600 3084 3056 2656 
Q 3513 2228 3513 1497 
Q 3513 744 3044 326 
Q 2575 -91 1722 -91 
Q 1428 -91 1123 -41 
Q 819 9 494 109 
L 494 744 
Q 775 591 1075 516 
Q 1375 441 1709 441 
Q 2250 441 2565 725 
Q 2881 1009 2881 1497 
Q 2881 1984 2565 2268 
Q 2250 2553 1709 2553 
Q 1456 2553 1204 2497 
Q 953 2441 691 2322 
L 691 4666 
z
" transform="scale(0.015625)"/>
       </defs>
       <use xlink:href="#DejaVuSans-31"/>
       <use xlink:href="#DejaVuSans-35" x="63.623047"/>
      </g>
     </g>
    </g>
    <g id="xtick_8">
     <g id="line2d_15">
      <path d="M 278.206151 173.93875 
L 278.206151 13.572 
" clip-path="url(#pe8706863ea)" style="fill: none; stroke-dasharray: 2.96,1.28; stroke-dashoffset: 0; stroke: #b0b0b0; stroke-opacity: 0.5; stroke-width: 0.8"/>
     </g>
     <g id="line2d_16">
      <g>
       <use xlink:href="#mf9b5cf6114" x="278.206151" y="173.93875" style="stroke: #000000; stroke-width: 0.8"/>
      </g>
     </g>
     <g id="text_8">
      <!-- 16 -->
      <g transform="translate(271.843651 188.537188)scale(0.1 -0.1)">
       <defs>
        <path id="DejaVuSans-36" d="M 2113 2584 
Q 1688 2584 1439 2293 
Q 1191 2003 1191 1497 
Q 1191 994 1439 701 
Q 1688 409 2113 409 
Q 2538 409 2786 701 
Q 3034 994 3034 1497 
Q 3034 2003 2786 2293 
Q 2538 2584 2113 2584 
z
M 3366 4563 
L 3366 3988 
Q 3128 4100 2886 4159 
Q 2644 4219 2406 4219 
Q 1781 4219 1451 3797 
Q 1122 3375 1075 2522 
Q 1259 2794 1537 2939 
Q 1816 3084 2150 3084 
Q 2853 3084 3261 2657 
Q 3669 2231 3669 1497 
Q 3669 778 3244 343 
Q 2819 -91 2113 -91 
Q 1303 -91 875 529 
Q 447 1150 447 2328 
Q 447 3434 972 4092 
Q 1497 4750 2381 4750 
Q 2619 4750 2861 4703 
Q 3103 4656 3366 4563 
z
" transform="scale(0.015625)"/>
       </defs>
       <use xlink:href="#DejaVuSans-31"/>
       <use xlink:href="#DejaVuSans-36" x="63.623047"/>
      </g>
     </g>
    </g>
    <g id="xtick_9">
     <g id="line2d_17">
      <path d="M 311.119886 173.93875 
L 311.119886 13.572 
" clip-path="url(#pe8706863ea)" style="fill: none; stroke-dasharray: 2.96,1.28; stroke-dashoffset: 0; stroke: #b0b0b0; stroke-opacity: 0.5; stroke-width: 0.8"/>
     </g>
     <g id="line2d_18">
      <g>
       <use xlink:href="#mf9b5cf6114" x="311.119886" y="173.93875" style="stroke: #000000; stroke-width: 0.8"/>
      </g>
     </g>
     <g id="text_9">
      <!-- 17 -->
      <g transform="translate(304.757386 188.537188)scale(0.1 -0.1)">
       <defs>
        <path id="DejaVuSans-37" d="M 525 4666 
L 3525 4666 
L 3525 4397 
L 1831 0 
L 1172 0 
L 2766 4134 
L 525 4134 
L 525 4666 
z
" transform="scale(0.015625)"/>
       </defs>
       <use xlink:href="#DejaVuSans-31"/>
       <use xlink:href="#DejaVuSans-37" x="63.623047"/>
      </g>
     </g>
    </g>
    <g id="xtick_10">
     <g id="line2d_19">
      <path d="M 344.033622 173.93875 
L 344.033622 13.572 
" clip-path="url(#pe8706863ea)" style="fill: none; stroke-dasharray: 2.96,1.28; stroke-dashoffset: 0; stroke: #b0b0b0; stroke-opacity: 0.5; stroke-width: 0.8"/>
     </g>
     <g id="line2d_20">
      <g>
       <use xlink:href="#mf9b5cf6114" x="344.033622" y="173.93875" style="stroke: #000000; stroke-width: 0.8"/>
      </g>
     </g>
     <g id="text_10">
      <!-- 18 -->
      <g transform="translate(337.671122 188.537188)scale(0.1 -0.1)">
       <defs>
        <path id="DejaVuSans-38" d="M 2034 2216 
Q 1584 2216 1326 1975 
Q 1069 1734 1069 1313 
Q 1069 891 1326 650 
Q 1584 409 2034 409 
Q 2484 409 2743 651 
Q 3003 894 3003 1313 
Q 3003 1734 2745 1975 
Q 2488 2216 2034 2216 
z
M 1403 2484 
Q 997 2584 770 2862 
Q 544 3141 544 3541 
Q 544 4100 942 4425 
Q 1341 4750 2034 4750 
Q 2731 4750 3128 4425 
Q 3525 4100 3525 3541 
Q 3525 3141 3298 2862 
Q 3072 2584 2669 2484 
Q 3125 2378 3379 2068 
Q 3634 1759 3634 1313 
Q 3634 634 3220 271 
Q 2806 -91 2034 -91 
Q 1263 -91 848 271 
Q 434 634 434 1313 
Q 434 1759 690 2068 
Q 947 2378 1403 2484 
z
M 1172 3481 
Q 1172 3119 1398 2916 
Q 1625 2713 2034 2713 
Q 2441 2713 2670 2916 
Q 2900 3119 2900 3481 
Q 2900 3844 2670 4047 
Q 2441 4250 2034 4250 
Q 1625 4250 1398 4047 
Q 1172 3844 1172 3481 
z
" transform="scale(0.015625)"/>
       </defs>
       <use xlink:href="#DejaVuSans-31"/>
       <use xlink:href="#DejaVuSans-38" x="63.623047"/>
      </g>
     </g>
    </g>
    <g id="text_11">
     <!-- Volume (mL) -->
     <g transform="translate(164.178061 202.215313)scale(0.1 -0.1)">
      <defs>
       <path id="DejaVuSans-56" d="M 1831 0 
L 50 4666 
L 709 4666 
L 2188 738 
L 3669 4666 
L 4325 4666 
L 2547 0 
L 1831 0 
z
" transform="scale(0.015625)"/>
       <path id="DejaVuSans-6f" d="M 1959 3097 
Q 1497 3097 1228 2736 
Q 959 2375 959 1747 
Q 959 1119 1226 758 
Q 1494 397 1959 397 
Q 2419 397 2687 759 
Q 2956 1122 2956 1747 
Q 2956 2369 2687 2733 
Q 2419 3097 1959 3097 
z
M 1959 3584 
Q 2709 3584 3137 3096 
Q 3566 2609 3566 1747 
Q 3566 888 3137 398 
Q 2709 -91 1959 -91 
Q 1206 -91 779 398 
Q 353 888 353 1747 
Q 353 2609 779 3096 
Q 1206 3584 1959 3584 
z
" transform="scale(0.015625)"/>
       <path id="DejaVuSans-6c" d="M 603 4863 
L 1178 4863 
L 1178 0 
L 603 0 
L 603 4863 
z
" transform="scale(0.015625)"/>
       <path id="DejaVuSans-75" d="M 544 1381 
L 544 3500 
L 1119 3500 
L 1119 1403 
Q 1119 906 1312 657 
Q 1506 409 1894 409 
Q 2359 409 2629 706 
Q 2900 1003 2900 1516 
L 2900 3500 
L 3475 3500 
L 3475 0 
L 2900 0 
L 2900 538 
Q 2691 219 2414 64 
Q 2138 -91 1772 -91 
Q 1169 -91 856 284 
Q 544 659 544 1381 
z
M 1991 3584 
L 1991 3584 
z
" transform="scale(0.015625)"/>
       <path id="DejaVuSans-6d" d="M 3328 2828 
Q 3544 3216 3844 3400 
Q 4144 3584 4550 3584 
Q 5097 3584 5394 3201 
Q 5691 2819 5691 2113 
L 5691 0 
L 5113 0 
L 5113 2094 
Q 5113 2597 4934 2840 
Q 4756 3084 4391 3084 
Q 3944 3084 3684 2787 
Q 3425 2491 3425 1978 
L 3425 0 
L 2847 0 
L 2847 2094 
Q 2847 2600 2669 2842 
Q 2491 3084 2119 3084 
Q 1678 3084 1418 2786 
Q 1159 2488 1159 1978 
L 1159 0 
L 581 0 
L 581 3500 
L 1159 3500 
L 1159 2956 
Q 1356 3278 1631 3431 
Q 1906 3584 2284 3584 
Q 2666 3584 2933 3390 
Q 3200 3197 3328 2828 
z
" transform="scale(0.015625)"/>
       <path id="DejaVuSans-65" d="M 3597 1894 
L 3597 1613 
L 953 1613 
Q 991 1019 1311 708 
Q 1631 397 2203 397 
Q 2534 397 2845 478 
Q 3156 559 3463 722 
L 3463 178 
Q 3153 47 2828 -22 
Q 2503 -91 2169 -91 
Q 1331 -91 842 396 
Q 353 884 353 1716 
Q 353 2575 817 3079 
Q 1281 3584 2069 3584 
Q 2775 3584 3186 3129 
Q 3597 2675 3597 1894 
z
M 3022 2063 
Q 3016 2534 2758 2815 
Q 2500 3097 2075 3097 
Q 1594 3097 1305 2825 
Q 1016 2553 972 2059 
L 3022 2063 
z
" transform="scale(0.015625)"/>
       <path id="DejaVuSans-20" transform="scale(0.015625)"/>
       <path id="DejaVuSans-28" d="M 1984 4856 
Q 1566 4138 1362 3434 
Q 1159 2731 1159 2009 
Q 1159 1288 1364 580 
Q 1569 -128 1984 -844 
L 1484 -844 
Q 1016 -109 783 600 
Q 550 1309 550 2009 
Q 550 2706 781 3412 
Q 1013 4119 1484 4856 
L 1984 4856 
z
" transform="scale(0.015625)"/>
       <path id="DejaVuSans-4c" d="M 628 4666 
L 1259 4666 
L 1259 531 
L 3531 531 
L 3531 0 
L 628 0 
L 628 4666 
z
" transform="scale(0.015625)"/>
       <path id="DejaVuSans-29" d="M 513 4856 
L 1013 4856 
Q 1481 4119 1714 3412 
Q 1947 2706 1947 2009 
Q 1947 1309 1714 600 
Q 1481 -109 1013 -844 
L 513 -844 
Q 928 -128 1133 580 
Q 1338 1288 1338 2009 
Q 1338 2731 1133 3434 
Q 928 4138 513 4856 
z
" transform="scale(0.015625)"/>
      </defs>
      <use xlink:href="#DejaVuSans-56"/>
      <use xlink:href="#DejaVuSans-6f" x="60.658203"/>
      <use xlink:href="#DejaVuSans-6c" x="121.839844"/>
      <use xlink:href="#DejaVuSans-75" x="149.623047"/>
      <use xlink:href="#DejaVuSans-6d" x="213.001953"/>
      <use xlink:href="#DejaVuSans-65" x="310.414062"/>
      <use xlink:href="#DejaVuSans-20" x="371.9375"/>
      <use xlink:href="#DejaVuSans-28" x="403.724609"/>
      <use xlink:href="#DejaVuSans-6d" x="442.738281"/>
      <use xlink:href="#DejaVuSans-4c" x="540.150391"/>
      <use xlink:href="#DejaVuSans-29" x="595.863281"/>
     </g>
    </g>
   </g>
   <g id="matplotlib.axis_2">
    <g id="ytick_1">
     <g id="line2d_21">
      <path d="M 47.81 173.93875 
L 344.033622 173.93875 
" clip-path="url(#pe8706863ea)" style="fill: none; stroke-dasharray: 2.96,1.28; stroke-dashoffset: 0; stroke: #b0b0b0; stroke-opacity: 0.5; stroke-width: 0.8"/>
     </g>
     <g id="line2d_22">
      <defs>
       <path id="m0316308ecc" d="M 0 0 
L -3.5 0 
" style="stroke: #000000; stroke-width: 0.8"/>
      </defs>
      <g>
       <use xlink:href="#m0316308ecc" x="47.81" y="173.93875" style="stroke: #000000; stroke-width: 0.8"/>
      </g>
     </g>
     <g id="text_12">
      <!-- 0.0 -->
      <g transform="translate(24.906875 177.737969)scale(0.1 -0.1)">
       <defs>
        <path id="DejaVuSans-2e" d="M 684 794 
L 1344 794 
L 1344 0 
L 684 0 
L 684 794 
z
" transform="scale(0.015625)"/>
       </defs>
       <use xlink:href="#DejaVuSans-30"/>
       <use xlink:href="#DejaVuSans-2e" x="63.623047"/>
       <use xlink:href="#DejaVuSans-30" x="95.410156"/>
      </g>
     </g>
    </g>
    <g id="ytick_2">
     <g id="line2d_23">
      <path d="M 47.81 144.781159 
L 344.033622 144.781159 
" clip-path="url(#pe8706863ea)" style="fill: none; stroke-dasharray: 2.96,1.28; stroke-dashoffset: 0; stroke: #b0b0b0; stroke-opacity: 0.5; stroke-width: 0.8"/>
     </g>
     <g id="line2d_24">
      <g>
       <use xlink:href="#m0316308ecc" x="47.81" y="144.781159" style="stroke: #000000; stroke-width: 0.8"/>
      </g>
     </g>
     <g id="text_13">
      <!-- 0.2 -->
      <g transform="translate(24.906875 148.580378)scale(0.1 -0.1)">
       <use xlink:href="#DejaVuSans-30"/>
       <use xlink:href="#DejaVuSans-2e" x="63.623047"/>
       <use xlink:href="#DejaVuSans-32" x="95.410156"/>
      </g>
     </g>
    </g>
    <g id="ytick_3">
     <g id="line2d_25">
      <path d="M 47.81 115.623568 
L 344.033622 115.623568 
" clip-path="url(#pe8706863ea)" style="fill: none; stroke-dasharray: 2.96,1.28; stroke-dashoffset: 0; stroke: #b0b0b0; stroke-opacity: 0.5; stroke-width: 0.8"/>
     </g>
     <g id="line2d_26">
      <g>
       <use xlink:href="#m0316308ecc" x="47.81" y="115.623568" style="stroke: #000000; stroke-width: 0.8"/>
      </g>
     </g>
     <g id="text_14">
      <!-- 0.4 -->
      <g transform="translate(24.906875 119.422787)scale(0.1 -0.1)">
       <use xlink:href="#DejaVuSans-30"/>
       <use xlink:href="#DejaVuSans-2e" x="63.623047"/>
       <use xlink:href="#DejaVuSans-34" x="95.410156"/>
      </g>
     </g>
    </g>
    <g id="ytick_4">
     <g id="line2d_27">
      <path d="M 47.81 86.465977 
L 344.033622 86.465977 
" clip-path="url(#pe8706863ea)" style="fill: none; stroke-dasharray: 2.96,1.28; stroke-dashoffset: 0; stroke: #b0b0b0; stroke-opacity: 0.5; stroke-width: 0.8"/>
     </g>
     <g id="line2d_28">
      <g>
       <use xlink:href="#m0316308ecc" x="47.81" y="86.465977" style="stroke: #000000; stroke-width: 0.8"/>
      </g>
     </g>
     <g id="text_15">
      <!-- 0.6 -->
      <g transform="translate(24.906875 90.265196)scale(0.1 -0.1)">
       <use xlink:href="#DejaVuSans-30"/>
       <use xlink:href="#DejaVuSans-2e" x="63.623047"/>
       <use xlink:href="#DejaVuSans-36" x="95.410156"/>
      </g>
     </g>
    </g>
    <g id="ytick_5">
     <g id="line2d_29">
      <path d="M 47.81 57.308386 
L 344.033622 57.308386 
" clip-path="url(#pe8706863ea)" style="fill: none; stroke-dasharray: 2.96,1.28; stroke-dashoffset: 0; stroke: #b0b0b0; stroke-opacity: 0.5; stroke-width: 0.8"/>
     </g>
     <g id="line2d_30">
      <g>
       <use xlink:href="#m0316308ecc" x="47.81" y="57.308386" style="stroke: #000000; stroke-width: 0.8"/>
      </g>
     </g>
     <g id="text_16">
      <!-- 0.8 -->
      <g transform="translate(24.906875 61.107605)scale(0.1 -0.1)">
       <use xlink:href="#DejaVuSans-30"/>
       <use xlink:href="#DejaVuSans-2e" x="63.623047"/>
       <use xlink:href="#DejaVuSans-38" x="95.410156"/>
      </g>
     </g>
    </g>
    <g id="ytick_6">
     <g id="line2d_31">
      <path d="M 47.81 28.150795 
L 344.033622 28.150795 
" clip-path="url(#pe8706863ea)" style="fill: none; stroke-dasharray: 2.96,1.28; stroke-dashoffset: 0; stroke: #b0b0b0; stroke-opacity: 0.5; stroke-width: 0.8"/>
     </g>
     <g id="line2d_32">
      <g>
       <use xlink:href="#m0316308ecc" x="47.81" y="28.150795" style="stroke: #000000; stroke-width: 0.8"/>
      </g>
     </g>
     <g id="text_17">
      <!-- 1.0 -->
      <g transform="translate(24.906875 31.950014)scale(0.1 -0.1)">
       <use xlink:href="#DejaVuSans-31"/>
       <use xlink:href="#DejaVuSans-2e" x="63.623047"/>
       <use xlink:href="#DejaVuSans-30" x="95.410156"/>
      </g>
     </g>
    </g>
    <g id="text_18">
     <!-- Intensity -->
     <g transform="translate(18.827187 115.517875)rotate(-90)scale(0.1 -0.1)">
      <defs>
       <path id="DejaVuSans-49" d="M 628 4666 
L 1259 4666 
L 1259 0 
L 628 0 
L 628 4666 
z
" transform="scale(0.015625)"/>
       <path id="DejaVuSans-6e" d="M 3513 2113 
L 3513 0 
L 2938 0 
L 2938 2094 
Q 2938 2591 2744 2837 
Q 2550 3084 2163 3084 
Q 1697 3084 1428 2787 
Q 1159 2491 1159 1978 
L 1159 0 
L 581 0 
L 581 3500 
L 1159 3500 
L 1159 2956 
Q 1366 3272 1645 3428 
Q 1925 3584 2291 3584 
Q 2894 3584 3203 3211 
Q 3513 2838 3513 2113 
z
" transform="scale(0.015625)"/>
       <path id="DejaVuSans-74" d="M 1172 4494 
L 1172 3500 
L 2356 3500 
L 2356 3053 
L 1172 3053 
L 1172 1153 
Q 1172 725 1289 603 
Q 1406 481 1766 481 
L 2356 481 
L 2356 0 
L 1766 0 
Q 1100 0 847 248 
Q 594 497 594 1153 
L 594 3053 
L 172 3053 
L 172 3500 
L 594 3500 
L 594 4494 
L 1172 4494 
z
" transform="scale(0.015625)"/>
       <path id="DejaVuSans-73" d="M 2834 3397 
L 2834 2853 
Q 2591 2978 2328 3040 
Q 2066 3103 1784 3103 
Q 1356 3103 1142 2972 
Q 928 2841 928 2578 
Q 928 2378 1081 2264 
Q 1234 2150 1697 2047 
L 1894 2003 
Q 2506 1872 2764 1633 
Q 3022 1394 3022 966 
Q 3022 478 2636 193 
Q 2250 -91 1575 -91 
Q 1294 -91 989 -36 
Q 684 19 347 128 
L 347 722 
Q 666 556 975 473 
Q 1284 391 1588 391 
Q 1994 391 2212 530 
Q 2431 669 2431 922 
Q 2431 1156 2273 1281 
Q 2116 1406 1581 1522 
L 1381 1569 
Q 847 1681 609 1914 
Q 372 2147 372 2553 
Q 372 3047 722 3315 
Q 1072 3584 1716 3584 
Q 2034 3584 2315 3537 
Q 2597 3491 2834 3397 
z
" transform="scale(0.015625)"/>
       <path id="DejaVuSans-69" d="M 603 3500 
L 1178 3500 
L 1178 0 
L 603 0 
L 603 3500 
z
M 603 4863 
L 1178 4863 
L 1178 4134 
L 603 4134 
L 603 4863 
z
" transform="scale(0.015625)"/>
       <path id="DejaVuSans-79" d="M 2059 -325 
Q 1816 -950 1584 -1140 
Q 1353 -1331 966 -1331 
L 506 -1331 
L 506 -850 
L 844 -850 
Q 1081 -850 1212 -737 
Q 1344 -625 1503 -206 
L 1606 56 
L 191 3500 
L 800 3500 
L 1894 763 
L 2988 3500 
L 3597 3500 
L 2059 -325 
z
" transform="scale(0.015625)"/>
      </defs>
      <use xlink:href="#DejaVuSans-49"/>
      <use xlink:href="#DejaVuSans-6e" x="29.492188"/>
      <use xlink:href="#DejaVuSans-74" x="92.871094"/>
      <use xlink:href="#DejaVuSans-65" x="132.080078"/>
      <use xlink:href="#DejaVuSans-6e" x="193.603516"/>
      <use xlink:href="#DejaVuSans-73" x="256.982422"/>
      <use xlink:href="#DejaVuSans-69" x="309.082031"/>
      <use xlink:href="#DejaVuSans-74" x="336.865234"/>
      <use xlink:href="#DejaVuSans-79" x="376.074219"/>
     </g>
    </g>
   </g>
   <g id="line2d_33">
    <path d="M 47.590575 173.903392 
L 53.076198 173.906928 
L 53.953897 173.878641 
L 65.144567 173.882177 
L 65.363993 173.712459 
L 65.583417 173.708923 
L 65.802842 173.882177 
L 68.435941 173.878641 
L 69.313641 173.906928 
L 80.723736 173.885713 
L 80.943161 173.712459 
L 81.162586 173.882177 
L 82.25971 173.882177 
L 82.479135 173.708923 
L 82.69856 173.712459 
L 82.917985 173.885713 
L 89.939582 173.708923 
L 90.159007 173.882177 
L 90.378432 173.882177 
L 90.597857 173.723066 
L 90.817281 173.878641 
L 91.256131 173.878641 
L 91.475556 173.712459 
L 91.694981 173.708923 
L 91.914406 173.878641 
L 92.133831 173.882177 
L 92.353256 173.708923 
L 92.572681 173.878641 
L 98.716578 173.882177 
L 98.936003 173.708923 
L 99.155428 173.783175 
L 99.594278 173.708923 
L 110.565523 173.624064 
L 111.443223 173.599314 
L 115.612296 173.514454 
L 116.70942 173.482632 
L 132.508014 173.6276 
L 137.993636 173.6276 
L 138.651911 173.6276 
L 145.892933 173.616993 
L 148.745456 173.655886 
L 152.695105 173.624064 
L 153.572804 173.659422 
L 157.083603 173.648815 
L 159.716702 173.624064 
L 163.446925 173.602849 
L 164.1052 173.574563 
L 167.835423 173.464953 
L 172.662771 172.849725 
L 175.515295 171.771307 
L 176.392994 171.134864 
L 177.490119 170.081196 
L 178.367819 168.893169 
L 179.245518 167.323275 
L 180.123218 165.290192 
L 181.000917 162.489841 
L 181.878617 158.752505 
L 182.756317 154.032217 
L 183.414591 149.750367 
L 184.292291 142.629273 
L 185.169991 134.104468 
L 186.267115 121.287207 
L 188.022514 96.430559 
L 191.094463 51.23601 
L 191.972163 41.257992 
L 192.849862 33.786855 
L 193.508137 30.19095 
L 193.946987 28.709451 
L 194.385837 28.17201 
L 194.605262 28.150795 
L 195.044112 28.596306 
L 195.482961 29.918694 
L 195.921811 31.912883 
L 196.580086 36.279591 
L 197.457785 43.878018 
L 198.55491 55.892654 
L 200.090884 74.901095 
L 202.285133 102.006509 
L 203.821108 118.575251 
L 204.918232 128.581555 
L 206.234782 138.701004 
L 207.770756 147.968326 
L 208.648456 152.264318 
L 210.62328 159.502094 
L 211.720404 162.48277 
L 212.817529 164.819931 
L 213.914653 166.686832 
L 214.353503 167.178307 
L 215.231203 168.253189 
L 216.328327 169.366965 
L 217.206027 170.059981 
L 218.742001 170.905037 
L 220.058551 171.449549 
L 222.033375 172.061242 
L 228.396697 172.885083 
L 249.022638 173.440203 
L 269.429154 173.546277 
L 270.526279 173.574563 
L 303.440015 173.472025 
L 307.389663 173.189161 
L 311.558736 172.34057 
L 315.947234 171.301046 
L 317.483209 171.170221 
L 322.529981 171.824344 
L 323.846531 172.093064 
L 331.087553 172.931048 
L 336.7926 173.104302 
L 344.253047 173.185625 
L 344.253047 173.185625 
" clip-path="url(#pe8706863ea)" style="fill: none; stroke: #0173b2; stroke-linecap: square"/>
   </g>
   <g id="line2d_34">
    <path d="M 47.590575 173.757918 
L 49.126549 173.762027 
L 51.979073 173.762027 
L 54.173322 173.774357 
L 62.730894 173.747643 
L 66.241692 173.755863 
L 73.263289 173.778467 
L 89.720157 173.69627 
L 90.159007 173.597634 
L 94.76693 173.496943 
L 97.180604 173.44968 
L 104.860475 173.505163 
L 105.9576 173.498998 
L 108.151849 173.562701 
L 109.687823 173.581195 
L 139.96846 173.759972 
L 141.28501 173.741478 
L 143.918109 173.690105 
L 144.356958 173.593524 
L 147.209482 173.515438 
L 151.15913 173.085961 
L 152.91453 172.564012 
L 154.011654 171.990691 
L 155.108779 171.135847 
L 155.986478 170.040577 
L 156.864178 168.466513 
L 157.522453 166.810252 
L 158.180727 164.582725 
L 159.058427 160.602356 
L 159.936127 154.982165 
L 160.594401 149.575685 
L 161.472101 140.616259 
L 162.569225 126.612017 
L 164.1052 103.089413 
L 166.299449 68.250394 
L 167.615998 50.871984 
L 168.493698 41.766658 
L 169.371398 34.975166 
L 170.029672 31.446878 
L 170.687947 29.184417 
L 171.126797 28.378891 
L 171.565647 28.150795 
L 171.785071 28.237102 
L 172.223921 28.810423 
L 172.662771 29.868704 
L 173.321046 32.318162 
L 173.979321 35.663562 
L 174.85702 41.460476 
L 175.954145 50.456891 
L 177.490119 65.128979 
L 182.756317 117.568339 
L 184.292291 129.780695 
L 185.60884 138.627102 
L 186.92539 146.051507 
L 188.022514 151.178518 
L 189.119639 155.432191 
L 190.655613 160.170824 
L 191.752738 162.764126 
L 192.849862 164.907401 
L 193.946987 166.652024 
L 195.482961 168.472678 
L 196.799511 169.567947 
L 198.11606 170.449505 
L 199.213185 171.014607 
L 200.529734 171.522171 
L 205.576507 172.605111 
L 215.231203 173.225695 
L 240.026217 173.581195 
L 246.828389 173.597634 
L 247.047814 173.69627 
L 247.486664 173.593524 
L 249.242063 173.69627 
L 250.558613 173.710655 
L 264.162957 173.743533 
L 265.479506 173.725039 
L 266.796056 173.727094 
L 275.353627 173.743533 
L 276.889601 173.759972 
L 307.828513 173.69627 
L 308.267363 173.597634 
L 310.681036 173.484614 
L 312.655861 173.355154 
L 317.702634 173.040752 
L 321.652282 173.09829 
L 325.382505 173.277068 
L 327.357329 173.357209 
L 329.332154 173.435296 
L 344.253047 173.511328 
L 344.253047 173.511328 
" clip-path="url(#pe8706863ea)" style="fill: none; stroke: #de8f05; stroke-linecap: square"/>
   </g>
   <g id="line2d_35">
    <path d="M 47.590575 173.843805 
L 49.126549 173.845442 
L 62.292044 173.855264 
L 73.921564 173.842168 
L 76.993512 173.804517 
L 81.162586 173.793059 
L 95.864054 173.793059 
L 104.860475 173.820887 
L 111.443223 173.830709 
L 130.533189 173.729216 
L 133.385713 173.635908 
L 134.702263 173.545874 
L 136.238237 173.391998 
L 137.554786 173.110437 
L 138.651911 172.730657 
L 139.749035 172.075865 
L 140.626735 171.231182 
L 141.504434 170.014905 
L 142.382134 168.15202 
L 143.040409 166.213833 
L 143.918109 162.776172 
L 144.576383 159.294312 
L 145.454083 153.386445 
L 146.331783 145.722096 
L 147.209482 136.206321 
L 148.306607 121.73704 
L 149.623156 101.430282 
L 152.695105 52.841391 
L 153.572804 42.160085 
L 154.231079 36.021404 
L 154.889354 31.465683 
L 155.328204 29.583154 
L 155.767053 28.43563 
L 155.986478 28.178624 
L 156.205903 28.150795 
L 156.425328 28.288302 
L 156.864178 29.223018 
L 157.303028 30.86 
L 157.961302 34.638154 
L 158.619577 39.79792 
L 159.497277 48.393711 
L 160.813826 63.579991 
L 164.1052 103.591098 
L 165.641174 119.39943 
L 166.957724 130.768268 
L 168.274273 140.071235 
L 169.371398 146.393259 
L 170.468522 151.610319 
L 171.565647 155.930314 
L 172.662771 159.349969 
L 173.979321 162.623932 
L 175.29587 165.059761 
L 176.392994 166.662366 
L 177.709544 168.184759 
L 179.245518 169.476338 
L 180.562068 170.288281 
L 181.878617 170.892327 
L 183.414591 171.421072 
L 186.267115 172.10533 
L 195.044112 172.923821 
L 197.67721 173.026951 
L 204.698807 173.239759 
L 208.648456 173.31506 
L 212.598104 173.387087 
L 224.666474 173.485306 
L 226.641298 173.498402 
L 257.360784 173.62936 
L 259.116184 173.62936 
L 308.047938 173.526231 
L 310.900462 173.31506 
L 315.069535 172.828876 
L 319.238608 172.676637 
L 333.720652 173.436197 
L 343.155923 173.475484 
L 344.253047 173.475484 
L 344.253047 173.475484 
" clip-path="url(#pe8706863ea)" style="fill: none; stroke: #029e73; stroke-linecap: square"/>
   </g>
   <g id="line2d_36">
    <path d="M 47.590575 173.590828 
L 113.856896 173.560385 
L 114.076321 173.355981 
L 114.295746 173.556036 
L 115.612296 173.564734 
L 115.831721 173.364679 
L 116.051146 173.364679 
L 116.27057 173.573432 
L 117.14827 173.564734 
L 117.367695 173.355981 
L 126.364116 173.36033 
L 126.583541 173.573432 
L 126.802966 173.355981 
L 127.241816 173.364679 
L 127.461241 173.564734 
L 127.680665 173.569083 
L 127.900091 173.364679 
L 128.119515 173.560385 
L 128.558365 173.564734 
L 128.77779 173.355981 
L 130.752614 173.351632 
L 130.972039 173.556036 
L 131.410889 173.556036 
L 131.630314 173.351632 
L 131.849739 173.355981 
L 132.069164 173.556036 
L 132.288588 173.355981 
L 137.993636 173.364679 
L 143.479259 173.355981 
L 145.234658 173.36033 
L 145.892933 173.321189 
L 154.669929 173.355981 
L 154.889354 173.564734 
L 155.328204 173.560385 
L 155.547629 173.351632 
L 155.767053 173.560385 
L 155.986478 173.560385 
L 156.205903 173.355981 
L 159.497277 173.36033 
L 159.716702 173.560385 
L 160.155552 173.503848 
L 160.374976 173.36033 
L 161.252676 173.40382 
L 161.472101 173.560385 
L 161.691526 173.36033 
L 168.932548 173.255953 
L 170.907372 173.121134 
L 172.443346 173.016757 
L 175.515295 172.377451 
L 176.392994 172.003435 
L 177.928969 170.994461 
L 179.464943 169.285295 
L 180.123218 168.267624 
L 181.000917 166.532364 
L 182.098042 163.740291 
L 183.195167 159.817472 
L 184.292291 154.598644 
L 185.389416 147.944639 
L 186.04769 143.360768 
L 187.144815 134.066906 
L 188.461364 120.550142 
L 189.777914 104.654462 
L 194.385837 44.837997 
L 195.263536 36.687928 
L 195.921811 32.325858 
L 196.580086 29.355475 
L 196.799511 28.737914 
L 197.238361 28.198635 
L 197.457785 28.150795 
L 197.67721 28.250823 
L 198.11606 28.872733 
L 198.55491 30.368797 
L 199.213185 33.839318 
L 199.871459 38.679781 
L 200.968584 48.995663 
L 202.504558 66.826658 
L 205.576507 103.880336 
L 206.893056 117.640645 
L 208.429031 130.879072 
L 209.526155 138.781247 
L 210.62328 145.378715 
L 211.720404 150.627986 
L 212.817529 154.981358 
L 213.914653 158.486671 
L 214.792353 160.769908 
L 215.889477 163.16622 
L 216.767177 164.714472 
L 217.206027 165.2581 
L 218.742001 167.184717 
L 220.277976 168.624244 
L 220.93625 169.098287 
L 221.594525 169.454907 
L 223.130499 170.294269 
L 224.885899 171.007508 
L 227.080148 171.603325 
L 231.029796 172.312215 
L 232.12692 172.412243 
L 233.88232 172.586204 
L 235.857144 172.694929 
L 240.026217 172.925428 
L 245.07299 173.025455 
L 246.170114 173.051549 
L 253.191711 173.229859 
L 255.38596 173.221161 
L 256.26366 173.260302 
L 295.760143 173.364679 
L 295.979568 173.560385 
L 296.857267 173.560385 
L 297.076693 173.351632 
L 298.173817 173.36033 
L 298.393242 173.569083 
L 298.612667 173.560385 
L 298.832092 173.355981 
L 301.684616 173.364679 
L 306.731388 173.260302 
L 309.364487 172.990663 
L 310.461612 172.847145 
L 311.778161 172.586204 
L 314.85011 171.872964 
L 315.947234 171.607674 
L 319.019183 171.211912 
L 321.652282 171.294544 
L 331.526403 172.78191 
L 333.062377 172.842796 
L 334.159501 172.942824 
L 341.181098 173.125483 
L 342.936498 173.121134 
L 344.253047 173.125483 
L 344.253047 173.125483 
" clip-path="url(#pe8706863ea)" style="fill: none; stroke: #d55e00; stroke-linecap: square"/>
   </g>
   <g id="line2d_37">
    <path d="M 47.590575 173.698505 
L 48.907125 173.676883 
L 96.302904 173.56637 
L 102.227377 173.54715 
L 118.903669 173.657663 
L 120.220219 173.657663 
L 128.77779 173.657663 
L 129.874915 173.660066 
L 139.52961 173.563968 
L 143.479259 173.141136 
L 145.234658 172.530914 
L 145.892933 172.156131 
L 146.990057 171.207163 
L 147.867757 169.965095 
L 148.745456 168.120013 
L 149.403731 166.212466 
L 150.062006 163.593795 
L 150.939706 159.084393 
L 151.817405 152.85724 
L 152.695105 144.753771 
L 153.572804 134.653866 
L 154.889354 115.828257 
L 156.425328 89.87938 
L 158.400152 56.737564 
L 159.497277 42.087416 
L 160.374976 33.753312 
L 161.033251 29.938219 
L 161.472101 28.544797 
L 161.691526 28.222869 
L 161.910951 28.150795 
L 162.130376 28.321369 
L 162.349801 28.724981 
L 162.78865 30.221709 
L 163.2275 32.535269 
L 163.885775 37.486721 
L 164.763475 46.33495 
L 165.860599 59.906397 
L 169.590822 110.021532 
L 170.907372 124.474679 
L 172.223921 136.407655 
L 173.321046 144.417428 
L 174.41817 150.860802 
L 175.515295 156.002048 
L 176.392994 159.293407 
L 177.709544 163.08928 
L 178.587244 165.0689 
L 179.684368 167.007678 
L 181.000917 168.737443 
L 182.098042 169.74407 
L 183.634016 170.803551 
L 185.169991 171.483445 
L 186.92539 172.055228 
L 190.655613 172.687073 
L 197.457785 173.172368 
L 201.188009 173.263661 
L 202.723983 173.323722 
L 207.551331 173.42943 
L 214.353503 173.544748 
L 219.619701 173.597602 
L 234.760019 173.652858 
L 287.641421 173.763371 
L 292.02992 173.751359 
L 297.954392 173.732139 
L 309.583912 173.501504 
L 312.875286 173.150746 
L 315.288959 172.836025 
L 319.458033 172.578963 
L 322.091132 172.708695 
L 335.037201 173.44865 
L 344.253047 173.539943 
L 344.253047 173.539943 
" clip-path="url(#pe8706863ea)" style="fill: none; stroke: #cc78bc; stroke-linecap: square"/>
   </g>
   <g id="line2d_38">
    <path d="M 47.590575 173.612346 
L 48.468275 173.603868 
L 124.608717 173.502132 
L 125.486416 173.476698 
L 125.925266 173.476698 
L 126.144691 173.273226 
L 129.874915 173.167251 
L 131.191464 173.107904 
L 134.043988 172.946822 
L 134.702263 172.845086 
L 138.432486 172.23043 
L 140.187885 171.768378 
L 142.162709 171.094376 
L 145.234658 169.500509 
L 146.990057 168.118592 
L 147.648332 167.410678 
L 148.964881 165.562471 
L 150.062006 163.438728 
L 150.939706 160.99282 
L 151.59798 158.691039 
L 152.256255 155.795797 
L 153.353379 149.568694 
L 154.011654 144.723509 
L 154.889354 136.783847 
L 155.986478 124.643329 
L 157.303028 106.453747 
L 161.033251 49.392463 
L 162.130376 37.260423 
L 162.78865 32.305023 
L 163.2275 30.01172 
L 163.66635 28.629803 
L 163.885775 28.235576 
L 164.324625 28.159273 
L 164.54405 28.451765 
L 164.982899 29.664121 
L 165.641174 32.894245 
L 166.299449 37.841167 
L 167.177148 46.480265 
L 168.274273 59.625428 
L 173.101621 119.069034 
L 174.41817 130.955211 
L 176.17357 143.061818 
L 177.270694 148.729371 
L 178.367819 153.277826 
L 179.464943 156.914895 
L 180.562068 159.733835 
L 181.439767 161.480306 
L 182.317467 162.95972 
L 183.414591 164.345875 
L 184.072866 165.058029 
L 184.511716 165.358998 
L 185.60884 166.198322 
L 187.144815 167.088513 
L 189.339064 167.949032 
L 190.875038 168.339021 
L 192.411013 168.63999 
L 193.508137 168.864658 
L 197.457785 169.475075 
L 198.335485 169.572572 
L 201.846284 170.00919 
L 205.137657 170.297442 
L 206.454207 170.399179 
L 207.551331 170.462764 
L 208.648456 170.496676 
L 209.526155 170.526349 
L 220.4974 170.628085 
L 221.3751 170.657758 
L 224.666474 170.81884 
L 225.763598 170.924815 
L 227.738422 171.026552 
L 229.274397 171.128288 
L 238.709668 171.577623 
L 241.342766 171.63273 
L 255.38596 171.793812 
L 258.019059 171.704793 
L 260.432733 171.535233 
L 261.310433 171.475886 
L 263.724107 171.157961 
L 264.601806 171.056225 
L 271.184554 170.13636 
L 273.817652 170.077014 
L 275.792477 170.166033 
L 277.547876 170.399179 
L 283.691773 171.450452 
L 285.227748 171.704793 
L 286.544297 171.840441 
L 293.565894 172.416946 
L 296.198993 172.514443 
L 297.076693 172.556833 
L 299.051517 172.586507 
L 309.583912 172.684004 
L 310.900462 172.61618 
L 312.217011 172.522921 
L 312.875286 172.416946 
L 313.97241 172.327927 
L 315.727809 172.162606 
L 317.263784 172.031197 
L 323.407681 172.128694 
L 325.382505 172.285537 
L 326.699055 172.391512 
L 328.015604 172.459336 
L 329.771003 172.552594 
L 331.745827 172.620419 
L 332.623527 172.650092 
L 338.328575 172.751828 
L 338.986849 172.756067 
L 344.253047 172.789979 
L 344.253047 172.789979 
" clip-path="url(#pe8706863ea)" style="fill: none; stroke: #ca9161; stroke-linecap: square"/>
   </g>
   <g id="line2d_39">
    <path d="M 47.590575 173.677381 
L 121.536768 173.571636 
L 126.144691 173.148658 
L 127.680665 172.73366 
L 128.558365 172.332628 
L 129.65549 171.484676 
L 130.313764 170.636724 
L 130.972039 169.543364 
L 131.630314 167.827507 
L 132.288588 165.507111 
L 132.946863 162.225036 
L 133.605138 157.871549 
L 134.482838 149.878849 
L 135.360537 139.210611 
L 136.238237 126.241927 
L 137.993636 95.986986 
L 139.749035 66.771535 
L 140.84616 51.81964 
L 141.72386 42.426323 
L 142.382134 36.9695 
L 143.259834 31.762075 
L 143.918109 29.385813 
L 144.356958 28.531875 
L 144.795808 28.150795 
L 145.015233 28.152791 
L 145.454083 28.511923 
L 145.892933 29.260117 
L 146.331783 30.517081 
L 146.990057 33.152717 
L 147.867757 37.885289 
L 148.964881 45.490923 
L 150.281431 56.643991 
L 152.47568 77.844796 
L 155.328204 105.982848 
L 157.083603 121.210078 
L 158.839002 133.963282 
L 160.155552 141.854227 
L 161.252676 147.372901 
L 162.569225 152.853666 
L 163.66635 156.526796 
L 164.982899 160.152042 
L 166.080024 162.500371 
L 167.396573 164.746946 
L 168.713123 166.502706 
L 169.810247 167.647941 
L 170.907372 168.597648 
L 172.223921 169.49548 
L 172.662771 169.694998 
L 174.198745 170.471124 
L 176.831844 171.442777 
L 178.148394 171.773977 
L 181.220343 172.364551 
L 185.60884 172.853371 
L 187.583665 172.975077 
L 190.216763 173.104764 
L 195.044112 173.258393 
L 198.99376 173.332215 
L 206.893056 173.44195 
L 239.806792 173.633487 
L 244.853565 173.647453 
L 258.896759 173.679376 
L 260.432733 173.66541 
L 269.429154 173.679376 
L 271.184554 173.681372 
L 306.511963 173.581612 
L 310.900462 173.162624 
L 314.85011 172.655848 
L 318.580333 172.486257 
L 325.60193 172.977072 
L 327.137904 173.100774 
L 332.404102 173.3382 
L 336.35375 173.410027 
L 344.253047 173.443945 
L 344.253047 173.443945 
" clip-path="url(#pe8706863ea)" style="fill: none; stroke: #fbafe4; stroke-linecap: square"/>
   </g>
   <g id="line2d_40">
    <path d="M 47.590575 173.926522 
L 76.993512 173.638473 
L 79.626611 173.40749 
L 82.917985 172.80286 
L 88.623032 171.517511 
L 90.159007 171.406096 
L 92.133831 171.476749 
L 94.32808 171.78382 
L 96.522329 172.210458 
L 99.594278 172.726772 
L 103.324501 173.126235 
L 106.39645 173.281129 
L 109.029549 173.346348 
L 119.123094 173.240368 
L 123.731017 172.916992 
L 125.925266 172.497148 
L 126.802966 172.248502 
L 128.33894 171.533815 
L 129.65549 170.528362 
L 130.533189 169.482148 
L 131.410889 167.963099 
L 132.069164 166.472583 
L 132.946863 163.798622 
L 133.824563 160.044478 
L 134.702263 155.007702 
L 135.579962 148.364919 
L 136.457662 139.867484 
L 137.335361 129.586048 
L 138.651911 111.088432 
L 142.601559 51.219146 
L 143.479259 41.574951 
L 144.137533 35.869685 
L 144.795808 31.745969 
L 145.454083 29.139944 
L 145.892933 28.313842 
L 146.112357 28.150795 
L 146.331783 28.172535 
L 146.551207 28.345092 
L 146.990057 29.183423 
L 147.428907 30.684809 
L 148.087182 33.982422 
L 148.745456 38.477069 
L 149.842581 48.107677 
L 151.15913 62.174507 
L 155.328204 109.76368 
L 156.644753 122.368527 
L 157.961302 133.073883 
L 159.277852 141.896053 
L 160.374976 147.930129 
L 161.472101 152.911197 
L 162.569225 156.933009 
L 163.66635 160.248286 
L 164.982899 163.317635 
L 166.080024 165.331258 
L 167.177148 166.888351 
L 168.493698 168.353051 
L 169.810247 169.463126 
L 171.126797 170.281075 
L 172.662771 170.988969 
L 174.637595 171.597675 
L 176.392994 171.993063 
L 179.026093 172.395244 
L 185.169991 172.895253 
L 193.946987 173.229498 
L 199.213185 173.332761 
L 202.723983 173.396621 
L 228.616122 173.60994 
L 232.785195 173.64119 
L 278.425575 173.74717 
L 280.619825 173.759399 
L 286.544297 173.756682 
L 304.098289 173.75804 
L 315.508385 173.510753 
L 318.799758 173.468633 
L 344.253047 173.702333 
L 344.253047 173.702333 
" clip-path="url(#pe8706863ea)" style="fill: none; stroke: #949494; stroke-linecap: square"/>
   </g>
   <g id="line2d_41">
    <path d="M 47.590575 173.612346 
L 48.468275 173.603868 
L 124.608717 173.502132 
L 125.486416 173.476698 
L 125.925266 173.476698 
L 126.144691 173.273226 
L 129.874915 173.167251 
L 131.191464 173.107904 
L 134.043988 172.946822 
L 134.702263 172.845086 
L 138.432486 172.23043 
L 140.187885 171.768378 
L 142.162709 171.094376 
L 145.234658 169.500509 
L 146.990057 168.118592 
L 147.648332 167.410678 
L 148.964881 165.562471 
L 150.062006 163.438728 
L 150.939706 160.99282 
L 151.59798 158.691039 
L 152.256255 155.795797 
L 153.353379 149.568694 
L 154.011654 144.723509 
L 154.889354 136.783847 
L 155.986478 124.643329 
L 157.303028 106.453747 
L 161.033251 49.392463 
L 162.130376 37.260423 
L 162.78865 32.305023 
L 163.2275 30.01172 
L 163.66635 28.629803 
L 163.885775 28.235576 
L 164.324625 28.159273 
L 164.54405 28.451765 
L 164.982899 29.664121 
L 165.641174 32.894245 
L 166.299449 37.841167 
L 167.177148 46.480265 
L 168.274273 59.625428 
L 173.101621 119.069034 
L 174.41817 130.955211 
L 176.17357 143.061818 
L 177.270694 148.729371 
L 178.367819 153.277826 
L 179.464943 156.914895 
L 180.562068 159.733835 
L 181.439767 161.480306 
L 182.317467 162.95972 
L 183.414591 164.345875 
L 184.072866 165.058029 
L 184.511716 165.358998 
L 185.60884 166.198322 
L 187.144815 167.088513 
L 189.339064 167.949032 
L 190.875038 168.339021 
L 192.411013 168.63999 
L 193.508137 168.864658 
L 197.457785 169.475075 
L 198.335485 169.572572 
L 201.846284 170.00919 
L 205.137657 170.297442 
L 206.454207 170.399179 
L 207.551331 170.462764 
L 208.648456 170.496676 
L 209.526155 170.526349 
L 220.4974 170.628085 
L 221.3751 170.657758 
L 224.666474 170.81884 
L 225.763598 170.924815 
L 227.738422 171.026552 
L 229.274397 171.128288 
L 238.709668 171.577623 
L 241.342766 171.63273 
L 255.38596 171.793812 
L 258.019059 171.704793 
L 260.432733 171.535233 
L 261.310433 171.475886 
L 263.724107 171.157961 
L 264.601806 171.056225 
L 271.184554 170.13636 
L 273.817652 170.077014 
L 275.792477 170.166033 
L 277.547876 170.399179 
L 283.691773 171.450452 
L 285.227748 171.704793 
L 286.544297 171.840441 
L 293.565894 172.416946 
L 296.198993 172.514443 
L 297.076693 172.556833 
L 299.051517 172.586507 
L 309.583912 172.684004 
L 310.900462 172.61618 
L 312.217011 172.522921 
L 312.875286 172.416946 
L 313.97241 172.327927 
L 315.727809 172.162606 
L 317.263784 172.031197 
L 323.407681 172.128694 
L 325.382505 172.285537 
L 326.699055 172.391512 
L 328.015604 172.459336 
L 329.771003 172.552594 
L 331.745827 172.620419 
L 332.623527 172.650092 
L 338.328575 172.751828 
L 338.986849 172.756067 
L 344.253047 172.789979 
L 344.253047 172.789979 
" clip-path="url(#pe8706863ea)" style="fill: none; stroke: #ece133; stroke-linecap: square"/>
   </g>
   <g id="patch_3">
    <path d="M 47.81 173.93875 
L 47.81 13.572 
" style="fill: none; stroke: #000000; stroke-width: 0.8; stroke-linejoin: miter; stroke-linecap: square"/>
   </g>
   <g id="patch_4">
    <path d="M 344.033622 173.93875 
L 344.033622 13.572 
" style="fill: none; stroke: #000000; stroke-width: 0.8; stroke-linejoin: miter; stroke-linecap: square"/>
   </g>
   <g id="patch_5">
    <path d="M 47.81 173.93875 
L 344.033622 173.93875 
" style="fill: none; stroke: #000000; stroke-width: 0.8; stroke-linejoin: miter; stroke-linecap: square"/>
   </g>
   <g id="patch_6">
    <path d="M 47.81 13.572 
L 344.033622 13.572 
" style="fill: none; stroke: #000000; stroke-width: 0.8; stroke-linejoin: miter; stroke-linecap: square"/>
   </g>
   <g id="text_19">
    <!-- 11.1 -->
    <g transform="translate(195.709012 26.692916)rotate(-90)scale(0.04 -0.04)">
     <use xlink:href="#DejaVuSans-31"/>
     <use xlink:href="#DejaVuSans-31" x="63.623047"/>
     <use xlink:href="#DejaVuSans-2e" x="127.246094"/>
     <use xlink:href="#DejaVuSans-31" x="159.033203"/>
    </g>
   </g>
   <g id="text_20">
    <!-- 14.1 -->
    <g transform="translate(172.669397 26.692916)rotate(-90)scale(0.04 -0.04)">
     <use xlink:href="#DejaVuSans-31"/>
     <use xlink:href="#DejaVuSans-34" x="63.623047"/>
     <use xlink:href="#DejaVuSans-2e" x="127.246094"/>
     <use xlink:href="#DejaVuSans-31" x="159.033203"/>
    </g>
   </g>
   <g id="text_21">
    <!-- 16.2 -->
    <g transform="translate(157.309653 26.692916)rotate(-90)scale(0.04 -0.04)">
     <use xlink:href="#DejaVuSans-31"/>
     <use xlink:href="#DejaVuSans-36" x="63.623047"/>
     <use xlink:href="#DejaVuSans-2e" x="127.246094"/>
     <use xlink:href="#DejaVuSans-32" x="159.033203"/>
    </g>
   </g>
   <g id="text_22">
    <!-- 9.7 -->
    <g transform="translate(198.561535 26.692916)rotate(-90)scale(0.04 -0.04)">
     <use xlink:href="#DejaVuSans-39"/>
     <use xlink:href="#DejaVuSans-2e" x="63.623047"/>
     <use xlink:href="#DejaVuSans-37" x="95.410156"/>
    </g>
   </g>
   <g id="text_23">
    <!-- 12.7 -->
    <g transform="translate(163.014701 26.692916)rotate(-90)scale(0.04 -0.04)">
     <use xlink:href="#DejaVuSans-31"/>
     <use xlink:href="#DejaVuSans-32" x="63.623047"/>
     <use xlink:href="#DejaVuSans-2e" x="127.246094"/>
     <use xlink:href="#DejaVuSans-37" x="159.033203"/>
    </g>
   </g>
   <g id="text_24">
    <!-- 11.0 -->
    <g transform="translate(165.20895 26.692916)rotate(-90)scale(0.04 -0.04)">
     <use xlink:href="#DejaVuSans-31"/>
     <use xlink:href="#DejaVuSans-31" x="63.623047"/>
     <use xlink:href="#DejaVuSans-2e" x="127.246094"/>
     <use xlink:href="#DejaVuSans-30" x="159.033203"/>
    </g>
   </g>
   <g id="text_25">
    <!-- 14.2 -->
    <g transform="translate(145.899558 26.692916)rotate(-90)scale(0.04 -0.04)">
     <use xlink:href="#DejaVuSans-31"/>
     <use xlink:href="#DejaVuSans-34" x="63.623047"/>
     <use xlink:href="#DejaVuSans-2e" x="127.246094"/>
     <use xlink:href="#DejaVuSans-32" x="159.033203"/>
    </g>
   </g>
   <g id="text_26">
    <!-- 15.7 -->
    <g transform="translate(147.216107 26.692916)rotate(-90)scale(0.04 -0.04)">
     <use xlink:href="#DejaVuSans-31"/>
     <use xlink:href="#DejaVuSans-35" x="63.623047"/>
     <use xlink:href="#DejaVuSans-2e" x="127.246094"/>
     <use xlink:href="#DejaVuSans-37" x="159.033203"/>
    </g>
   </g>
   <g id="text_27">
    <!-- 11.0 -->
    <g transform="translate(165.20895 26.692916)rotate(-90)scale(0.04 -0.04)">
     <use xlink:href="#DejaVuSans-31"/>
     <use xlink:href="#DejaVuSans-31" x="63.623047"/>
     <use xlink:href="#DejaVuSans-2e" x="127.246094"/>
     <use xlink:href="#DejaVuSans-30" x="159.033203"/>
    </g>
   </g>
   <g id="legend_1">
    <g id="patch_7">
     <path d="M 285.447685 153.675125 
L 337.033622 153.675125 
Q 339.033622 153.675125 339.033622 151.675125 
L 339.033622 20.572 
Q 339.033622 18.572 337.033622 18.572 
L 285.447685 18.572 
Q 283.447685 18.572 283.447685 20.572 
L 283.447685 151.675125 
Q 283.447685 153.675125 285.447685 153.675125 
z
" style="fill: #ffffff; opacity: 0.8; stroke: #cccccc; stroke-linejoin: miter"/>
    </g>
    <g id="line2d_42">
     <path d="M 287.447685 26.670438 
L 297.447685 26.670438 
L 307.447685 26.670438 
" style="fill: none; stroke: #0173b2; stroke-linecap: square"/>
    </g>
    <g id="text_28">
     <!-- A9 -->
     <g transform="translate(315.447685 30.170438)scale(0.1 -0.1)">
      <defs>
       <path id="DejaVuSans-41" d="M 2188 4044 
L 1331 1722 
L 3047 1722 
L 2188 4044 
z
M 1831 4666 
L 2547 4666 
L 4325 0 
L 3669 0 
L 3244 1197 
L 1141 1197 
L 716 0 
L 50 0 
L 1831 4666 
z
" transform="scale(0.015625)"/>
      </defs>
      <use xlink:href="#DejaVuSans-41"/>
      <use xlink:href="#DejaVuSans-39" x="68.408203"/>
     </g>
    </g>
    <g id="line2d_43">
     <path d="M 287.447685 41.348563 
L 297.447685 41.348563 
L 307.447685 41.348563 
" style="fill: none; stroke: #de8f05; stroke-linecap: square"/>
    </g>
    <g id="text_29">
     <!-- A12 -->
     <g transform="translate(315.447685 44.848563)scale(0.1 -0.1)">
      <use xlink:href="#DejaVuSans-41"/>
      <use xlink:href="#DejaVuSans-31" x="68.408203"/>
      <use xlink:href="#DejaVuSans-32" x="132.03125"/>
     </g>
    </g>
    <g id="line2d_44">
     <path d="M 287.447685 56.026688 
L 297.447685 56.026688 
L 307.447685 56.026688 
" style="fill: none; stroke: #029e73; stroke-linecap: square"/>
    </g>
    <g id="text_30">
     <!-- B8 -->
     <g transform="translate(315.447685 59.526688)scale(0.1 -0.1)">
      <defs>
       <path id="DejaVuSans-42" d="M 1259 2228 
L 1259 519 
L 2272 519 
Q 2781 519 3026 730 
Q 3272 941 3272 1375 
Q 3272 1813 3026 2020 
Q 2781 2228 2272 2228 
L 1259 2228 
z
M 1259 4147 
L 1259 2741 
L 2194 2741 
Q 2656 2741 2882 2914 
Q 3109 3088 3109 3444 
Q 3109 3797 2882 3972 
Q 2656 4147 2194 4147 
L 1259 4147 
z
M 628 4666 
L 2241 4666 
Q 2963 4666 3353 4366 
Q 3744 4066 3744 3513 
Q 3744 3084 3544 2831 
Q 3344 2578 2956 2516 
Q 3422 2416 3680 2098 
Q 3938 1781 3938 1306 
Q 3938 681 3513 340 
Q 3088 0 2303 0 
L 628 0 
L 628 4666 
z
" transform="scale(0.015625)"/>
      </defs>
      <use xlink:href="#DejaVuSans-42"/>
      <use xlink:href="#DejaVuSans-38" x="68.603516"/>
     </g>
    </g>
    <g id="line2d_45">
     <path d="M 287.447685 70.704813 
L 297.447685 70.704813 
L 307.447685 70.704813 
" style="fill: none; stroke: #d55e00; stroke-linecap: square"/>
    </g>
    <g id="text_31">
     <!-- A1 -->
     <g transform="translate(315.447685 74.204813)scale(0.1 -0.1)">
      <use xlink:href="#DejaVuSans-41"/>
      <use xlink:href="#DejaVuSans-31" x="68.408203"/>
     </g>
    </g>
    <g id="line2d_46">
     <path d="M 287.447685 85.382938 
L 297.447685 85.382938 
L 307.447685 85.382938 
" style="fill: none; stroke: #cc78bc; stroke-linecap: square"/>
    </g>
    <g id="text_32">
     <!-- B12 -->
     <g transform="translate(315.447685 88.882938)scale(0.1 -0.1)">
      <use xlink:href="#DejaVuSans-42"/>
      <use xlink:href="#DejaVuSans-31" x="68.603516"/>
      <use xlink:href="#DejaVuSans-32" x="132.226562"/>
     </g>
    </g>
    <g id="line2d_47">
     <path d="M 287.447685 100.061063 
L 297.447685 100.061063 
L 307.447685 100.061063 
" style="fill: none; stroke: #ca9161; stroke-linecap: square"/>
    </g>
    <g id="text_33">
     <!-- F4 -->
     <g transform="translate(315.447685 103.561063)scale(0.1 -0.1)">
      <defs>
       <path id="DejaVuSans-46" d="M 628 4666 
L 3309 4666 
L 3309 4134 
L 1259 4134 
L 1259 2759 
L 3109 2759 
L 3109 2228 
L 1259 2228 
L 1259 0 
L 628 0 
L 628 4666 
z
" transform="scale(0.015625)"/>
      </defs>
      <use xlink:href="#DejaVuSans-46"/>
      <use xlink:href="#DejaVuSans-34" x="57.519531"/>
     </g>
    </g>
    <g id="line2d_48">
     <path d="M 287.447685 114.739188 
L 297.447685 114.739188 
L 307.447685 114.739188 
" style="fill: none; stroke: #fbafe4; stroke-linecap: square"/>
    </g>
    <g id="text_34">
     <!-- A11 -->
     <g transform="translate(315.447685 118.239188)scale(0.1 -0.1)">
      <use xlink:href="#DejaVuSans-41"/>
      <use xlink:href="#DejaVuSans-31" x="68.408203"/>
      <use xlink:href="#DejaVuSans-31" x="132.03125"/>
     </g>
    </g>
    <g id="line2d_49">
     <path d="M 287.447685 129.417313 
L 297.447685 129.417313 
L 307.447685 129.417313 
" style="fill: none; stroke: #949494; stroke-linecap: square"/>
    </g>
    <g id="text_35">
     <!-- B3 -->
     <g transform="translate(315.447685 132.917313)scale(0.1 -0.1)">
      <use xlink:href="#DejaVuSans-42"/>
      <use xlink:href="#DejaVuSans-33" x="68.603516"/>
     </g>
    </g>
    <g id="line2d_50">
     <path d="M 287.447685 144.095438 
L 297.447685 144.095438 
L 307.447685 144.095438 
" style="fill: none; stroke: #ece133; stroke-linecap: square"/>
    </g>
    <g id="text_36">
     <!-- F4 -->
     <g transform="translate(315.447685 147.595438)scale(0.1 -0.1)">
      <use xlink:href="#DejaVuSans-46"/>
      <use xlink:href="#DejaVuSans-34" x="57.519531"/>
     </g>
    </g>
   </g>
  </g>
 </g>
 <defs>
  <clipPath id="pe8706863ea">
   <rect x="47.81" y="13.572" width="296.223622" height="160.36675"/>
  </clipPath>
 </defs>
</svg>
