<?xml version="1.0" encoding="utf-8" standalone="no"?>
<!DOCTYPE svg PUBLIC "-//W3C//DTD SVG 1.1//EN"
  "http://www.w3.org/Graphics/SVG/1.1/DTD/svg11.dtd">
<svg xmlns:xlink="http://www.w3.org/1999/xlink" width="360pt" height="216pt" viewBox="0 0 360 216" xmlns="http://www.w3.org/2000/svg" version="1.1">
 <metadata>
  <rdf:RDF xmlns:dc="http://purl.org/dc/elements/1.1/" xmlns:cc="http://creativecommons.org/ns#" xmlns:rdf="http://www.w3.org/1999/02/22-rdf-syntax-ns#">
   <cc:Work>
    <dc:type rdf:resource="http://purl.org/dc/dcmitype/StillImage"/>
    <dc:date>2025-04-15T10:26:22.710418</dc:date>
    <dc:format>image/svg+xml</dc:format>
    <dc:creator>
     <cc:Agent>
      <dc:title>Matplotlib v3.5.3, https://matplotlib.org/</dc:title>
     </cc:Agent>
    </dc:creator>
   </cc:Work>
  </rdf:RDF>
 </metadata>
 <defs>
  <style type="text/css">*{stroke-linejoin: round; stroke-linecap: butt}</style>
 </defs>
 <g id="figure_1">
  <g id="patch_1">
   <path d="M 0 216 
L 360 216 
L 360 0 
L 0 0 
z
" style="fill: #ffffff"/>
  </g>
  <g id="axes_1">
   <g id="patch_2">
    <path d="M 47.81 173.93875 
L 344.033622 173.93875 
L 344.033622 10.8 
L 47.81 10.8 
z
" style="fill: #ffffff"/>
   </g>
   <g id="PolyCollection_1"/>
   <g id="PolyCollection_2"/>
   <g id="PolyCollection_3"/>
   <g id="PolyCollection_4"/>
   <g id="PolyCollection_5"/>
   <g id="PolyCollection_6"/>
   <g id="matplotlib.axis_1">
    <g id="xtick_1">
     <g id="line2d_1">
      <path d="M 61.124518 173.93875 
L 61.124518 10.8 
" clip-path="url(#p693ead42de)" style="fill: none; stroke-dasharray: 2.96,1.28; stroke-dashoffset: 0; stroke: #b0b0b0; stroke-opacity: 0.5; stroke-width: 0.8"/>
     </g>
     <g id="line2d_2">
      <defs>
       <path id="m5d5531e56f" d="M 0 0 
L 0 3.5 
" style="stroke: #000000; stroke-width: 0.8"/>
      </defs>
      <g>
       <use xlink:href="#m5d5531e56f" x="61.124518" y="173.93875" style="stroke: #000000; stroke-width: 0.8"/>
      </g>
     </g>
     <g id="text_1">
      <!-- 0 -->
      <g transform="translate(57.943268 188.537188)scale(0.1 -0.1)">
       <defs>
        <path id="DejaVuSans-30" d="M 2034 4250 
Q 1547 4250 1301 3770 
Q 1056 3291 1056 2328 
Q 1056 1369 1301 889 
Q 1547 409 2034 409 
Q 2525 409 2770 889 
Q 3016 1369 3016 2328 
Q 3016 3291 2770 3770 
Q 2525 4250 2034 4250 
z
M 2034 4750 
Q 2819 4750 3233 4129 
Q 3647 3509 3647 2328 
Q 3647 1150 3233 529 
Q 2819 -91 2034 -91 
Q 1250 -91 836 529 
Q 422 1150 422 2328 
Q 422 3509 836 4129 
Q 1250 4750 2034 4750 
z
" transform="scale(0.015625)"/>
       </defs>
       <use xlink:href="#DejaVuSans-30"/>
      </g>
     </g>
    </g>
    <g id="xtick_2">
     <g id="line2d_3">
      <path d="M 117.446507 173.93875 
L 117.446507 10.8 
" clip-path="url(#p693ead42de)" style="fill: none; stroke-dasharray: 2.96,1.28; stroke-dashoffset: 0; stroke: #b0b0b0; stroke-opacity: 0.5; stroke-width: 0.8"/>
     </g>
     <g id="line2d_4">
      <g>
       <use xlink:href="#m5d5531e56f" x="117.446507" y="173.93875" style="stroke: #000000; stroke-width: 0.8"/>
      </g>
     </g>
     <g id="text_2">
      <!-- 5 -->
      <g transform="translate(114.265257 188.537188)scale(0.1 -0.1)">
       <defs>
        <path id="DejaVuSans-35" d="M 691 4666 
L 3169 4666 
L 3169 4134 
L 1269 4134 
L 1269 2991 
Q 1406 3038 1543 3061 
Q 1681 3084 1819 3084 
Q 2600 3084 3056 2656 
Q 3513 2228 3513 1497 
Q 3513 744 3044 326 
Q 2575 -91 1722 -91 
Q 1428 -91 1123 -41 
Q 819 9 494 109 
L 494 744 
Q 775 591 1075 516 
Q 1375 441 1709 441 
Q 2250 441 2565 725 
Q 2881 1009 2881 1497 
Q 2881 1984 2565 2268 
Q 2250 2553 1709 2553 
Q 1456 2553 1204 2497 
Q 953 2441 691 2322 
L 691 4666 
z
" transform="scale(0.015625)"/>
       </defs>
       <use xlink:href="#DejaVuSans-35"/>
      </g>
     </g>
    </g>
    <g id="xtick_3">
     <g id="line2d_5">
      <path d="M 173.768496 173.93875 
L 173.768496 10.8 
" clip-path="url(#p693ead42de)" style="fill: none; stroke-dasharray: 2.96,1.28; stroke-dashoffset: 0; stroke: #b0b0b0; stroke-opacity: 0.5; stroke-width: 0.8"/>
     </g>
     <g id="line2d_6">
      <g>
       <use xlink:href="#m5d5531e56f" x="173.768496" y="173.93875" style="stroke: #000000; stroke-width: 0.8"/>
      </g>
     </g>
     <g id="text_3">
      <!-- 10 -->
      <g transform="translate(167.405996 188.537188)scale(0.1 -0.1)">
       <defs>
        <path id="DejaVuSans-31" d="M 794 531 
L 1825 531 
L 1825 4091 
L 703 3866 
L 703 4441 
L 1819 4666 
L 2450 4666 
L 2450 531 
L 3481 531 
L 3481 0 
L 794 0 
L 794 531 
z
" transform="scale(0.015625)"/>
       </defs>
       <use xlink:href="#DejaVuSans-31"/>
       <use xlink:href="#DejaVuSans-30" x="63.623047"/>
      </g>
     </g>
    </g>
    <g id="xtick_4">
     <g id="line2d_7">
      <path d="M 230.090484 173.93875 
L 230.090484 10.8 
" clip-path="url(#p693ead42de)" style="fill: none; stroke-dasharray: 2.96,1.28; stroke-dashoffset: 0; stroke: #b0b0b0; stroke-opacity: 0.5; stroke-width: 0.8"/>
     </g>
     <g id="line2d_8">
      <g>
       <use xlink:href="#m5d5531e56f" x="230.090484" y="173.93875" style="stroke: #000000; stroke-width: 0.8"/>
      </g>
     </g>
     <g id="text_4">
      <!-- 15 -->
      <g transform="translate(223.727984 188.537188)scale(0.1 -0.1)">
       <use xlink:href="#DejaVuSans-31"/>
       <use xlink:href="#DejaVuSans-35" x="63.623047"/>
      </g>
     </g>
    </g>
    <g id="xtick_5">
     <g id="line2d_9">
      <path d="M 286.412473 173.93875 
L 286.412473 10.8 
" clip-path="url(#p693ead42de)" style="fill: none; stroke-dasharray: 2.96,1.28; stroke-dashoffset: 0; stroke: #b0b0b0; stroke-opacity: 0.5; stroke-width: 0.8"/>
     </g>
     <g id="line2d_10">
      <g>
       <use xlink:href="#m5d5531e56f" x="286.412473" y="173.93875" style="stroke: #000000; stroke-width: 0.8"/>
      </g>
     </g>
     <g id="text_5">
      <!-- 20 -->
      <g transform="translate(280.049973 188.537188)scale(0.1 -0.1)">
       <defs>
        <path id="DejaVuSans-32" d="M 1228 531 
L 3431 531 
L 3431 0 
L 469 0 
L 469 531 
Q 828 903 1448 1529 
Q 2069 2156 2228 2338 
Q 2531 2678 2651 2914 
Q 2772 3150 2772 3378 
Q 2772 3750 2511 3984 
Q 2250 4219 1831 4219 
Q 1534 4219 1204 4116 
Q 875 4013 500 3803 
L 500 4441 
Q 881 4594 1212 4672 
Q 1544 4750 1819 4750 
Q 2544 4750 2975 4387 
Q 3406 4025 3406 3419 
Q 3406 3131 3298 2873 
Q 3191 2616 2906 2266 
Q 2828 2175 2409 1742 
Q 1991 1309 1228 531 
z
" transform="scale(0.015625)"/>
       </defs>
       <use xlink:href="#DejaVuSans-32"/>
       <use xlink:href="#DejaVuSans-30" x="63.623047"/>
      </g>
     </g>
    </g>
    <g id="xtick_6">
     <g id="line2d_11">
      <path d="M 342.734462 173.93875 
L 342.734462 10.8 
" clip-path="url(#p693ead42de)" style="fill: none; stroke-dasharray: 2.96,1.28; stroke-dashoffset: 0; stroke: #b0b0b0; stroke-opacity: 0.5; stroke-width: 0.8"/>
     </g>
     <g id="line2d_12">
      <g>
       <use xlink:href="#m5d5531e56f" x="342.734462" y="173.93875" style="stroke: #000000; stroke-width: 0.8"/>
      </g>
     </g>
     <g id="text_6">
      <!-- 25 -->
      <g transform="translate(336.371962 188.537188)scale(0.1 -0.1)">
       <use xlink:href="#DejaVuSans-32"/>
       <use xlink:href="#DejaVuSans-35" x="63.623047"/>
      </g>
     </g>
    </g>
    <g id="text_7">
     <!-- Volume (mL) -->
     <g transform="translate(164.178061 202.215313)scale(0.1 -0.1)">
      <defs>
       <path id="DejaVuSans-56" d="M 1831 0 
L 50 4666 
L 709 4666 
L 2188 738 
L 3669 4666 
L 4325 4666 
L 2547 0 
L 1831 0 
z
" transform="scale(0.015625)"/>
       <path id="DejaVuSans-6f" d="M 1959 3097 
Q 1497 3097 1228 2736 
Q 959 2375 959 1747 
Q 959 1119 1226 758 
Q 1494 397 1959 397 
Q 2419 397 2687 759 
Q 2956 1122 2956 1747 
Q 2956 2369 2687 2733 
Q 2419 3097 1959 3097 
z
M 1959 3584 
Q 2709 3584 3137 3096 
Q 3566 2609 3566 1747 
Q 3566 888 3137 398 
Q 2709 -91 1959 -91 
Q 1206 -91 779 398 
Q 353 888 353 1747 
Q 353 2609 779 3096 
Q 1206 3584 1959 3584 
z
" transform="scale(0.015625)"/>
       <path id="DejaVuSans-6c" d="M 603 4863 
L 1178 4863 
L 1178 0 
L 603 0 
L 603 4863 
z
" transform="scale(0.015625)"/>
       <path id="DejaVuSans-75" d="M 544 1381 
L 544 3500 
L 1119 3500 
L 1119 1403 
Q 1119 906 1312 657 
Q 1506 409 1894 409 
Q 2359 409 2629 706 
Q 2900 1003 2900 1516 
L 2900 3500 
L 3475 3500 
L 3475 0 
L 2900 0 
L 2900 538 
Q 2691 219 2414 64 
Q 2138 -91 1772 -91 
Q 1169 -91 856 284 
Q 544 659 544 1381 
z
M 1991 3584 
L 1991 3584 
z
" transform="scale(0.015625)"/>
       <path id="DejaVuSans-6d" d="M 3328 2828 
Q 3544 3216 3844 3400 
Q 4144 3584 4550 3584 
Q 5097 3584 5394 3201 
Q 5691 2819 5691 2113 
L 5691 0 
L 5113 0 
L 5113 2094 
Q 5113 2597 4934 2840 
Q 4756 3084 4391 3084 
Q 3944 3084 3684 2787 
Q 3425 2491 3425 1978 
L 3425 0 
L 2847 0 
L 2847 2094 
Q 2847 2600 2669 2842 
Q 2491 3084 2119 3084 
Q 1678 3084 1418 2786 
Q 1159 2488 1159 1978 
L 1159 0 
L 581 0 
L 581 3500 
L 1159 3500 
L 1159 2956 
Q 1356 3278 1631 3431 
Q 1906 3584 2284 3584 
Q 2666 3584 2933 3390 
Q 3200 3197 3328 2828 
z
" transform="scale(0.015625)"/>
       <path id="DejaVuSans-65" d="M 3597 1894 
L 3597 1613 
L 953 1613 
Q 991 1019 1311 708 
Q 1631 397 2203 397 
Q 2534 397 2845 478 
Q 3156 559 3463 722 
L 3463 178 
Q 3153 47 2828 -22 
Q 2503 -91 2169 -91 
Q 1331 -91 842 396 
Q 353 884 353 1716 
Q 353 2575 817 3079 
Q 1281 3584 2069 3584 
Q 2775 3584 3186 3129 
Q 3597 2675 3597 1894 
z
M 3022 2063 
Q 3016 2534 2758 2815 
Q 2500 3097 2075 3097 
Q 1594 3097 1305 2825 
Q 1016 2553 972 2059 
L 3022 2063 
z
" transform="scale(0.015625)"/>
       <path id="DejaVuSans-20" transform="scale(0.015625)"/>
       <path id="DejaVuSans-28" d="M 1984 4856 
Q 1566 4138 1362 3434 
Q 1159 2731 1159 2009 
Q 1159 1288 1364 580 
Q 1569 -128 1984 -844 
L 1484 -844 
Q 1016 -109 783 600 
Q 550 1309 550 2009 
Q 550 2706 781 3412 
Q 1013 4119 1484 4856 
L 1984 4856 
z
" transform="scale(0.015625)"/>
       <path id="DejaVuSans-4c" d="M 628 4666 
L 1259 4666 
L 1259 531 
L 3531 531 
L 3531 0 
L 628 0 
L 628 4666 
z
" transform="scale(0.015625)"/>
       <path id="DejaVuSans-29" d="M 513 4856 
L 1013 4856 
Q 1481 4119 1714 3412 
Q 1947 2706 1947 2009 
Q 1947 1309 1714 600 
Q 1481 -109 1013 -844 
L 513 -844 
Q 928 -128 1133 580 
Q 1338 1288 1338 2009 
Q 1338 2731 1133 3434 
Q 928 4138 513 4856 
z
" transform="scale(0.015625)"/>
      </defs>
      <use xlink:href="#DejaVuSans-56"/>
      <use xlink:href="#DejaVuSans-6f" x="60.658203"/>
      <use xlink:href="#DejaVuSans-6c" x="121.839844"/>
      <use xlink:href="#DejaVuSans-75" x="149.623047"/>
      <use xlink:href="#DejaVuSans-6d" x="213.001953"/>
      <use xlink:href="#DejaVuSans-65" x="310.414062"/>
      <use xlink:href="#DejaVuSans-20" x="371.9375"/>
      <use xlink:href="#DejaVuSans-28" x="403.724609"/>
      <use xlink:href="#DejaVuSans-6d" x="442.738281"/>
      <use xlink:href="#DejaVuSans-4c" x="540.150391"/>
      <use xlink:href="#DejaVuSans-29" x="595.863281"/>
     </g>
    </g>
   </g>
   <g id="matplotlib.axis_2">
    <g id="ytick_1">
     <g id="line2d_13">
      <path d="M 47.81 166.523352 
L 344.033622 166.523352 
" clip-path="url(#p693ead42de)" style="fill: none; stroke-dasharray: 2.96,1.28; stroke-dashoffset: 0; stroke: #b0b0b0; stroke-opacity: 0.5; stroke-width: 0.8"/>
     </g>
     <g id="line2d_14">
      <defs>
       <path id="m64beb64a39" d="M 0 0 
L -3.5 0 
" style="stroke: #000000; stroke-width: 0.8"/>
      </defs>
      <g>
       <use xlink:href="#m64beb64a39" x="47.81" y="166.523352" style="stroke: #000000; stroke-width: 0.8"/>
      </g>
     </g>
     <g id="text_8">
      <!-- 0.0 -->
      <g transform="translate(24.906875 170.322571)scale(0.1 -0.1)">
       <defs>
        <path id="DejaVuSans-2e" d="M 684 794 
L 1344 794 
L 1344 0 
L 684 0 
L 684 794 
z
" transform="scale(0.015625)"/>
       </defs>
       <use xlink:href="#DejaVuSans-30"/>
       <use xlink:href="#DejaVuSans-2e" x="63.623047"/>
       <use xlink:href="#DejaVuSans-30" x="95.410156"/>
      </g>
     </g>
    </g>
    <g id="ytick_2">
     <g id="line2d_15">
      <path d="M 47.81 137.302476 
L 344.033622 137.302476 
" clip-path="url(#p693ead42de)" style="fill: none; stroke-dasharray: 2.96,1.28; stroke-dashoffset: 0; stroke: #b0b0b0; stroke-opacity: 0.5; stroke-width: 0.8"/>
     </g>
     <g id="line2d_16">
      <g>
       <use xlink:href="#m64beb64a39" x="47.81" y="137.302476" style="stroke: #000000; stroke-width: 0.8"/>
      </g>
     </g>
     <g id="text_9">
      <!-- 0.2 -->
      <g transform="translate(24.906875 141.101695)scale(0.1 -0.1)">
       <use xlink:href="#DejaVuSans-30"/>
       <use xlink:href="#DejaVuSans-2e" x="63.623047"/>
       <use xlink:href="#DejaVuSans-32" x="95.410156"/>
      </g>
     </g>
    </g>
    <g id="ytick_3">
     <g id="line2d_17">
      <path d="M 47.81 108.081601 
L 344.033622 108.081601 
" clip-path="url(#p693ead42de)" style="fill: none; stroke-dasharray: 2.96,1.28; stroke-dashoffset: 0; stroke: #b0b0b0; stroke-opacity: 0.5; stroke-width: 0.8"/>
     </g>
     <g id="line2d_18">
      <g>
       <use xlink:href="#m64beb64a39" x="47.81" y="108.081601" style="stroke: #000000; stroke-width: 0.8"/>
      </g>
     </g>
     <g id="text_10">
      <!-- 0.4 -->
      <g transform="translate(24.906875 111.880819)scale(0.1 -0.1)">
       <defs>
        <path id="DejaVuSans-34" d="M 2419 4116 
L 825 1625 
L 2419 1625 
L 2419 4116 
z
M 2253 4666 
L 3047 4666 
L 3047 1625 
L 3713 1625 
L 3713 1100 
L 3047 1100 
L 3047 0 
L 2419 0 
L 2419 1100 
L 313 1100 
L 313 1709 
L 2253 4666 
z
" transform="scale(0.015625)"/>
       </defs>
       <use xlink:href="#DejaVuSans-30"/>
       <use xlink:href="#DejaVuSans-2e" x="63.623047"/>
       <use xlink:href="#DejaVuSans-34" x="95.410156"/>
      </g>
     </g>
    </g>
    <g id="ytick_4">
     <g id="line2d_19">
      <path d="M 47.81 78.860725 
L 344.033622 78.860725 
" clip-path="url(#p693ead42de)" style="fill: none; stroke-dasharray: 2.96,1.28; stroke-dashoffset: 0; stroke: #b0b0b0; stroke-opacity: 0.5; stroke-width: 0.8"/>
     </g>
     <g id="line2d_20">
      <g>
       <use xlink:href="#m64beb64a39" x="47.81" y="78.860725" style="stroke: #000000; stroke-width: 0.8"/>
      </g>
     </g>
     <g id="text_11">
      <!-- 0.6 -->
      <g transform="translate(24.906875 82.659944)scale(0.1 -0.1)">
       <defs>
        <path id="DejaVuSans-36" d="M 2113 2584 
Q 1688 2584 1439 2293 
Q 1191 2003 1191 1497 
Q 1191 994 1439 701 
Q 1688 409 2113 409 
Q 2538 409 2786 701 
Q 3034 994 3034 1497 
Q 3034 2003 2786 2293 
Q 2538 2584 2113 2584 
z
M 3366 4563 
L 3366 3988 
Q 3128 4100 2886 4159 
Q 2644 4219 2406 4219 
Q 1781 4219 1451 3797 
Q 1122 3375 1075 2522 
Q 1259 2794 1537 2939 
Q 1816 3084 2150 3084 
Q 2853 3084 3261 2657 
Q 3669 2231 3669 1497 
Q 3669 778 3244 343 
Q 2819 -91 2113 -91 
Q 1303 -91 875 529 
Q 447 1150 447 2328 
Q 447 3434 972 4092 
Q 1497 4750 2381 4750 
Q 2619 4750 2861 4703 
Q 3103 4656 3366 4563 
z
" transform="scale(0.015625)"/>
       </defs>
       <use xlink:href="#DejaVuSans-30"/>
       <use xlink:href="#DejaVuSans-2e" x="63.623047"/>
       <use xlink:href="#DejaVuSans-36" x="95.410156"/>
      </g>
     </g>
    </g>
    <g id="ytick_5">
     <g id="line2d_21">
      <path d="M 47.81 49.639849 
L 344.033622 49.639849 
" clip-path="url(#p693ead42de)" style="fill: none; stroke-dasharray: 2.96,1.28; stroke-dashoffset: 0; stroke: #b0b0b0; stroke-opacity: 0.5; stroke-width: 0.8"/>
     </g>
     <g id="line2d_22">
      <g>
       <use xlink:href="#m64beb64a39" x="47.81" y="49.639849" style="stroke: #000000; stroke-width: 0.8"/>
      </g>
     </g>
     <g id="text_12">
      <!-- 0.8 -->
      <g transform="translate(24.906875 53.439068)scale(0.1 -0.1)">
       <defs>
        <path id="DejaVuSans-38" d="M 2034 2216 
Q 1584 2216 1326 1975 
Q 1069 1734 1069 1313 
Q 1069 891 1326 650 
Q 1584 409 2034 409 
Q 2484 409 2743 651 
Q 3003 894 3003 1313 
Q 3003 1734 2745 1975 
Q 2488 2216 2034 2216 
z
M 1403 2484 
Q 997 2584 770 2862 
Q 544 3141 544 3541 
Q 544 4100 942 4425 
Q 1341 4750 2034 4750 
Q 2731 4750 3128 4425 
Q 3525 4100 3525 3541 
Q 3525 3141 3298 2862 
Q 3072 2584 2669 2484 
Q 3125 2378 3379 2068 
Q 3634 1759 3634 1313 
Q 3634 634 3220 271 
Q 2806 -91 2034 -91 
Q 1263 -91 848 271 
Q 434 634 434 1313 
Q 434 1759 690 2068 
Q 947 2378 1403 2484 
z
M 1172 3481 
Q 1172 3119 1398 2916 
Q 1625 2713 2034 2713 
Q 2441 2713 2670 2916 
Q 2900 3119 2900 3481 
Q 2900 3844 2670 4047 
Q 2441 4250 2034 4250 
Q 1625 4250 1398 4047 
Q 1172 3844 1172 3481 
z
" transform="scale(0.015625)"/>
       </defs>
       <use xlink:href="#DejaVuSans-30"/>
       <use xlink:href="#DejaVuSans-2e" x="63.623047"/>
       <use xlink:href="#DejaVuSans-38" x="95.410156"/>
      </g>
     </g>
    </g>
    <g id="ytick_6">
     <g id="line2d_23">
      <path d="M 47.81 20.418973 
L 344.033622 20.418973 
" clip-path="url(#p693ead42de)" style="fill: none; stroke-dasharray: 2.96,1.28; stroke-dashoffset: 0; stroke: #b0b0b0; stroke-opacity: 0.5; stroke-width: 0.8"/>
     </g>
     <g id="line2d_24">
      <g>
       <use xlink:href="#m64beb64a39" x="47.81" y="20.418973" style="stroke: #000000; stroke-width: 0.8"/>
      </g>
     </g>
     <g id="text_13">
      <!-- 1.0 -->
      <g transform="translate(24.906875 24.218192)scale(0.1 -0.1)">
       <use xlink:href="#DejaVuSans-31"/>
       <use xlink:href="#DejaVuSans-2e" x="63.623047"/>
       <use xlink:href="#DejaVuSans-30" x="95.410156"/>
      </g>
     </g>
    </g>
    <g id="text_14">
     <!-- Intensity -->
     <g transform="translate(18.827187 114.131875)rotate(-90)scale(0.1 -0.1)">
      <defs>
       <path id="DejaVuSans-49" d="M 628 4666 
L 1259 4666 
L 1259 0 
L 628 0 
L 628 4666 
z
" transform="scale(0.015625)"/>
       <path id="DejaVuSans-6e" d="M 3513 2113 
L 3513 0 
L 2938 0 
L 2938 2094 
Q 2938 2591 2744 2837 
Q 2550 3084 2163 3084 
Q 1697 3084 1428 2787 
Q 1159 2491 1159 1978 
L 1159 0 
L 581 0 
L 581 3500 
L 1159 3500 
L 1159 2956 
Q 1366 3272 1645 3428 
Q 1925 3584 2291 3584 
Q 2894 3584 3203 3211 
Q 3513 2838 3513 2113 
z
" transform="scale(0.015625)"/>
       <path id="DejaVuSans-74" d="M 1172 4494 
L 1172 3500 
L 2356 3500 
L 2356 3053 
L 1172 3053 
L 1172 1153 
Q 1172 725 1289 603 
Q 1406 481 1766 481 
L 2356 481 
L 2356 0 
L 1766 0 
Q 1100 0 847 248 
Q 594 497 594 1153 
L 594 3053 
L 172 3053 
L 172 3500 
L 594 3500 
L 594 4494 
L 1172 4494 
z
" transform="scale(0.015625)"/>
       <path id="DejaVuSans-73" d="M 2834 3397 
L 2834 2853 
Q 2591 2978 2328 3040 
Q 2066 3103 1784 3103 
Q 1356 3103 1142 2972 
Q 928 2841 928 2578 
Q 928 2378 1081 2264 
Q 1234 2150 1697 2047 
L 1894 2003 
Q 2506 1872 2764 1633 
Q 3022 1394 3022 966 
Q 3022 478 2636 193 
Q 2250 -91 1575 -91 
Q 1294 -91 989 -36 
Q 684 19 347 128 
L 347 722 
Q 666 556 975 473 
Q 1284 391 1588 391 
Q 1994 391 2212 530 
Q 2431 669 2431 922 
Q 2431 1156 2273 1281 
Q 2116 1406 1581 1522 
L 1381 1569 
Q 847 1681 609 1914 
Q 372 2147 372 2553 
Q 372 3047 722 3315 
Q 1072 3584 1716 3584 
Q 2034 3584 2315 3537 
Q 2597 3491 2834 3397 
z
" transform="scale(0.015625)"/>
       <path id="DejaVuSans-69" d="M 603 3500 
L 1178 3500 
L 1178 0 
L 603 0 
L 603 3500 
z
M 603 4863 
L 1178 4863 
L 1178 4134 
L 603 4134 
L 603 4863 
z
" transform="scale(0.015625)"/>
       <path id="DejaVuSans-79" d="M 2059 -325 
Q 1816 -950 1584 -1140 
Q 1353 -1331 966 -1331 
L 506 -1331 
L 506 -850 
L 844 -850 
Q 1081 -850 1212 -737 
Q 1344 -625 1503 -206 
L 1606 56 
L 191 3500 
L 800 3500 
L 1894 763 
L 2988 3500 
L 3597 3500 
L 2059 -325 
z
" transform="scale(0.015625)"/>
      </defs>
      <use xlink:href="#DejaVuSans-49"/>
      <use xlink:href="#DejaVuSans-6e" x="29.492188"/>
      <use xlink:href="#DejaVuSans-74" x="92.871094"/>
      <use xlink:href="#DejaVuSans-65" x="132.080078"/>
      <use xlink:href="#DejaVuSans-6e" x="193.603516"/>
      <use xlink:href="#DejaVuSans-73" x="256.982422"/>
      <use xlink:href="#DejaVuSans-69" x="309.082031"/>
      <use xlink:href="#DejaVuSans-74" x="336.865234"/>
      <use xlink:href="#DejaVuSans-79" x="376.074219"/>
     </g>
    </g>
   </g>
   <g id="line2d_25">
    <path d="M 61.27471 166.352306 
L 83.653314 166.352677 
L 85.455617 166.237035 
L 85.906193 166.221789 
L 87.107729 166.329251 
L 112.940748 166.346356 
L 153.792963 166.456793 
L 157.547763 166.461627 
L 160.626698 166.464601 
L 171.06504 166.470179 
L 173.31792 166.470923 
L 175.720991 166.473897 
L 194.269699 166.401017 
L 202.830642 166.341522 
L 204.032177 166.092017 
L 204.708041 165.758104 
L 205.308809 165.211127 
L 205.834481 164.357009 
L 206.285057 163.197609 
L 206.735633 161.42616 
L 207.186209 158.752626 
L 207.636785 154.825245 
L 208.162457 147.980774 
L 208.688129 137.884928 
L 209.288896 121.417592 
L 210.039856 93.258098 
L 211.616872 31.281555 
L 212.067448 22.391216 
L 212.367832 20.15162 
L 212.442928 20.104024 
L 212.59312 20.545771 
L 212.818408 22.597588 
L 213.193888 29.440571 
L 213.719559 44.773421 
L 215.071287 95.408453 
L 215.972439 123.515517 
L 216.648303 138.461281 
L 217.324167 148.663101 
L 217.924935 154.646018 
L 218.525703 158.566706 
L 219.12647 161.083695 
L 219.802334 162.817588 
L 220.403102 163.77954 
L 221.154062 164.507232 
L 222.13031 165.055697 
L 223.331846 165.42791 
L 225.059053 165.718689 
L 227.311933 165.95518 
L 231.817692 166.184234 
L 234.821531 166.249306 
L 238.426139 166.301735 
L 246.536505 166.372385 
L 250.141112 166.36941 
L 250.816976 166.338919 
L 252.2438 166.232945 
L 254.721967 166.034382 
L 256.524271 166.1411 
L 260.954934 166.338919 
L 274.922787 166.378706 
L 280.554986 166.465345 
L 330.568912 166.523352 
L 330.568912 166.523352 
" clip-path="url(#p693ead42de)" style="fill: none; stroke: #1f77b4; stroke-width: 1.5; stroke-linecap: square"/>
   </g>
   <g id="line2d_26">
    <path d="M 61.27471 166.523352 
L 177.823679 166.41695 
L 180.827518 166.296377 
L 184.206837 166.404701 
L 188.487309 166.460424 
L 197.348635 166.328081 
L 198.324883 166.056432 
L 198.850554 165.669973 
L 199.226034 165.13556 
L 199.601514 164.182984 
L 199.901898 162.897271 
L 200.277378 160.220884 
L 200.652858 155.908593 
L 201.17853 146.701561 
L 201.92949 128.804376 
L 206.059769 23.865636 
L 206.360153 20.895261 
L 206.585441 20.326502 
L 206.735633 20.755713 
L 206.960921 22.656061 
L 207.261305 27.372825 
L 207.711881 38.494376 
L 208.462841 64.072694 
L 209.889664 113.933289 
L 210.640624 132.781368 
L 211.316488 144.632843 
L 211.917256 151.833605 
L 212.518024 156.656771 
L 213.118792 159.815211 
L 213.719559 161.848861 
L 214.320327 163.155471 
L 214.996191 164.069857 
L 215.672055 164.634533 
L 216.573207 165.090405 
L 217.849839 165.444439 
L 220.177814 165.788625 
L 223.707326 166.059554 
L 224.908861 166.112155 
L 240.82921 166.358585 
L 271.167988 166.249781 
L 275.072979 166.184931 
L 279.203258 166.392451 
L 286.412473 166.444091 
L 290.467656 166.434964 
L 296.099855 166.453698 
L 299.404078 166.457061 
L 330.568912 166.487565 
L 330.568912 166.487565 
" clip-path="url(#p693ead42de)" style="fill: none; stroke: #ff7f0e; stroke-width: 1.5; stroke-linecap: square"/>
   </g>
   <g id="line2d_27">
    <path d="M 61.27471 166.513123 
L 111.889404 166.521998 
L 117.972179 166.520945 
L 191.340956 166.415948 
L 192.542492 166.188051 
L 193.14326 165.855006 
L 193.593836 165.357244 
L 193.969315 164.603456 
L 194.344795 163.317608 
L 194.720275 161.166957 
L 195.095755 157.688639 
L 195.546331 150.942451 
L 195.996907 140.453646 
L 196.522579 122.730668 
L 197.273539 88.834409 
L 198.399979 38.688451 
L 198.92565 24.945915 
L 199.226034 21.187052 
L 199.451322 20.349326 
L 199.601514 20.735922 
L 199.826802 22.593542 
L 200.202282 28.901687 
L 200.727954 43.04481 
L 201.779298 80.25497 
L 202.905738 116.853947 
L 203.656698 134.343161 
L 204.332561 145.336047 
L 205.008425 152.694171 
L 205.609193 157.029319 
L 206.209961 159.902319 
L 206.810729 161.788219 
L 207.411497 163.022019 
L 208.087361 163.907281 
L 208.838321 164.517412 
L 209.814568 164.980425 
L 210.941008 165.276766 
L 212.818408 165.546481 
L 216.648303 165.841769 
L 224.458285 166.139313 
L 242.856802 166.323435 
L 266.211653 166.166991 
L 268.68982 166.122916 
L 276.424707 166.385411 
L 284.760361 166.442423 
L 292.495248 166.44483 
L 329.592664 166.483339 
L 330.568912 166.483188 
L 330.568912 166.483188 
" clip-path="url(#p693ead42de)" style="fill: none; stroke: #2ca02c; stroke-width: 1.5; stroke-linecap: square"/>
   </g>
   <g id="line2d_28">
    <path d="M 61.27471 165.935007 
L 85.831097 165.935007 
L 85.981289 166.142918 
L 86.131481 165.930583 
L 86.281673 166.138495 
L 86.356769 166.142918 
L 86.506961 165.93943 
L 87.483209 165.93943 
L 87.633401 166.138495 
L 88.684745 166.138495 
L 88.834937 165.93943 
L 88.910032 166.134071 
L 89.060224 165.921736 
L 89.210416 166.138495 
L 89.285512 166.138495 
L 89.435704 165.930583 
L 90.26176 165.930583 
L 90.411952 166.142918 
L 90.562144 165.93943 
L 91.3882 165.93943 
L 91.538392 166.147342 
L 92.214256 166.151766 
L 92.364448 165.93943 
L 93.2656 165.93943 
L 93.415792 166.138495 
L 94.767519 166.138495 
L 94.917711 165.930583 
L 96.044151 165.930583 
L 96.194343 166.138495 
L 96.945303 166.138495 
L 97.095495 165.930583 
L 97.320783 165.930583 
L 97.470975 166.138495 
L 97.696263 166.138495 
L 97.771359 165.921736 
L 97.846455 166.107529 
L 97.996647 165.926159 
L 98.822703 165.930583 
L 98.972895 166.134071 
L 100.92539 166.138495 
L 102.577502 166.138495 
L 102.727694 165.93943 
L 102.877886 166.142918 
L 104.229613 166.173884 
L 139.44963 166.134071 
L 139.599822 165.930583 
L 139.750014 166.138495 
L 185.107989 166.138495 
L 185.183085 165.930583 
L 185.333277 166.138495 
L 185.708757 166.142918 
L 185.858949 165.93943 
L 186.009141 166.147342 
L 186.234429 166.142918 
L 186.384621 165.930583 
L 187.360869 165.93943 
L 189.38846 165.935007 
L 189.463556 166.151766 
L 189.613748 165.93943 
L 189.688844 165.93943 
L 189.839036 166.147342 
L 189.914132 165.93943 
L 190.064324 166.138495 
L 190.13942 166.142918 
L 190.289612 165.930583 
L 190.89038 165.926159 
L 191.040572 166.129647 
L 191.115668 166.134071 
L 191.26586 165.930583 
L 191.340956 166.134071 
L 191.491148 165.935007 
L 193.293452 165.930583 
L 194.269699 165.93943 
L 195.245947 165.930583 
L 195.846715 165.935007 
L 196.147099 165.895194 
L 197.348635 165.935007 
L 199.075842 165.930583 
L 199.226034 166.134071 
L 199.30113 166.138495 
L 199.376226 165.926159 
L 199.526418 166.138495 
L 199.67661 165.935007 
L 200.727954 165.935007 
L 200.878146 166.142918 
L 201.253626 165.926159 
L 201.403818 166.138495 
L 201.55401 165.935007 
L 205.008425 165.620927 
L 205.834481 165.262611 
L 206.360153 164.767162 
L 206.885825 163.878008 
L 207.261305 162.873839 
L 207.711881 161.13092 
L 208.162457 158.476729 
L 208.688129 153.849589 
L 209.2138 146.851372 
L 209.814568 135.420655 
L 210.490432 117.190785 
L 211.316488 87.304592 
L 212.818408 30.83225 
L 213.268984 21.286009 
L 213.569368 18.543345 
L 213.719559 18.233689 
L 213.869751 18.618547 
L 214.019943 19.631563 
L 214.320327 24.019826 
L 214.695807 32.884825 
L 215.371671 54.764207 
L 216.873591 107.060622 
L 217.624551 126.157528 
L 218.300415 138.658768 
L 219.051374 148.032487 
L 219.802334 154.168092 
L 220.328006 157.140786 
L 220.62839 158.313054 
L 221.37935 160.715097 
L 221.829926 161.692724 
L 222.806174 163.20119 
L 223.25675 163.678944 
L 224.007709 164.258442 
L 226.035301 165.112207 
L 226.410781 165.178562 
L 226.786261 165.244917 
L 229.114236 165.558996 
L 229.339524 165.550149 
L 236.548739 165.868652 
L 237.900467 165.899617 
L 239.852962 165.904041 
L 240.754114 165.895194 
L 240.979402 165.930583 
L 242.406226 165.908465 
L 242.781706 165.930583 
L 243.382474 165.930583 
L 245.410065 165.93943 
L 247.287465 165.935007 
L 247.362561 165.93943 
L 247.512753 166.138495 
L 247.738041 166.138495 
L 247.888233 165.930583 
L 248.188617 165.935007 
L 248.338809 166.138495 
L 248.489001 165.93943 
L 251.11736 165.833263 
L 253.445336 164.767162 
L 254.421583 164.046107 
L 255.097447 163.767417 
L 256.674463 164.050531 
L 257.575615 164.523862 
L 258.026191 164.784857 
L 258.476767 164.961803 
L 259.15263 165.24934 
L 259.453014 165.315695 
L 259.828494 165.373203 
L 260.354166 165.483794 
L 260.729646 165.545725 
L 266.211653 165.75806 
L 266.436941 165.722671 
L 266.662229 165.75806 
L 266.962613 165.731519 
L 269.515876 165.691706 
L 281.305946 166.280051 
L 282.432386 166.315441 
L 283.408634 166.319864 
L 284.234689 166.284475 
L 284.985649 166.284475 
L 285.361129 166.311017 
L 285.586417 166.275628 
L 287.163433 166.280051 
L 287.463817 166.240239 
L 288.740448 166.244662 
L 288.965736 166.204849 
L 294.522839 166.311017 
L 294.898319 166.35083 
L 296.325143 166.377372 
L 296.625527 166.412761 
L 296.850815 166.408337 
L 298.878406 166.417185 
L 302.032438 166.341983 
L 304.435509 166.372948 
L 305.637045 166.412761 
L 314.873851 166.306593 
L 315.249331 166.275628 
L 315.474619 166.30217 
L 315.775003 166.271204 
L 317.727499 166.280051 
L 318.553555 166.341983 
L 319.75509 166.381795 
L 321.407202 166.381795 
L 321.782682 166.417185 
L 330.568912 166.514505 
L 330.568912 166.514505 
" clip-path="url(#p693ead42de)" style="fill: none; stroke: #d62728; stroke-width: 1.5; stroke-linecap: square"/>
   </g>
   <g id="line2d_29">
    <path d="M 61.27471 166.392439 
L 131.564552 166.283344 
L 132.315512 166.246979 
L 134.493295 166.152431 
L 135.319351 166.060306 
L 136.070311 165.982728 
L 137.121655 165.84939 
L 140.876454 165.93909 
L 141.477222 166.019093 
L 142.45347 166.096671 
L 144.856541 166.205766 
L 146.208269 166.22516 
L 150.11326 166.242131 
L 180.001462 166.137885 
L 180.752422 166.128187 
L 182.629822 166.164552 
L 183.155494 166.198493 
L 187.811445 166.242131 
L 190.665092 166.242131 
L 191.115668 166.239706 
L 193.894219 166.145158 
L 195.245947 165.718476 
L 195.846715 165.102698 
L 196.147099 164.559649 
L 196.522579 163.485673 
L 196.898059 161.655307 
L 197.198443 159.412807 
L 197.573923 155.073265 
L 197.949403 148.610014 
L 198.475075 134.74045 
L 199.000746 114.727646 
L 199.826802 74.037772 
L 200.652858 36.065568 
L 201.103434 23.531807 
L 201.403818 19.805619 
L 201.55401 19.40803 
L 201.704202 19.987443 
L 201.92949 22.552379 
L 202.229874 28.828957 
L 202.755546 45.801657 
L 205.083521 128.650545 
L 205.759385 142.110398 
L 206.510345 151.744666 
L 207.261305 157.572744 
L 207.862073 160.472237 
L 208.387745 162.106232 
L 209.063608 163.473551 
L 209.664376 164.215395 
L 210.34024 164.777838 
L 211.84216 165.398465 
L 213.494272 165.713628 
L 214.470519 165.805752 
L 215.146383 165.86636 
L 216.047535 165.936666 
L 216.573207 165.975455 
L 218.150223 166.070003 
L 218.750991 166.108793 
L 223.181654 166.196068 
L 223.557134 166.215463 
L 225.509629 166.234858 
L 228.062893 166.259101 
L 228.513469 166.259101 
L 231.216924 166.28092 
L 251.567936 166.181522 
L 255.472927 165.151184 
L 256.374079 165.282098 
L 260.804742 166.02879 
L 268.239245 166.176674 
L 268.764916 166.159704 
L 276.349611 166.259101 
L 276.725091 166.273647 
L 279.503642 166.293041 
L 283.333538 166.331831 
L 283.709017 166.310012 
L 308.866172 166.385166 
L 308.941268 166.499109 
L 309.09146 166.385166 
L 312.395684 166.276071 
L 313.822507 166.125763 
L 314.423275 166.04576 
L 315.249331 165.97303 
L 315.775003 165.953636 
L 317.051635 166.014244 
L 318.102979 166.140309 
L 319.37961 166.239706 
L 320.205666 166.31486 
L 321.857778 166.365771 
L 322.38345 166.38759 
L 324.936713 166.385166 
L 325.086905 166.385166 
L 325.988057 166.390014 
L 326.138249 166.501533 
L 326.513729 166.499109 
L 326.588825 166.38759 
L 326.739017 166.501533 
L 326.814113 166.503958 
L 326.964305 166.385166 
L 330.41872 166.499109 
L 330.568912 166.501533 
L 330.568912 166.501533 
" clip-path="url(#p693ead42de)" style="fill: none; stroke: #9467bd; stroke-width: 1.5; stroke-linecap: square"/>
   </g>
   <g id="line2d_30">
    <path d="M 61.27471 165.859261 
L 63.227206 165.854949 
L 64.428741 165.854949 
L 64.503837 166.066251 
L 64.654029 165.859261 
L 64.729125 165.859261 
L 64.804221 166.070563 
L 64.954413 165.859261 
L 66.906909 165.854949 
L 66.982005 165.854949 
L 67.132197 166.070563 
L 67.282389 165.859261 
L 68.183541 165.859261 
L 68.333733 166.053314 
L 68.483925 166.049001 
L 68.559021 165.850636 
L 68.709213 166.053314 
L 68.859405 165.854949 
L 69.159789 165.850636 
L 69.30998 166.066251 
L 69.68546 166.053314 
L 69.835652 165.863573 
L 69.985844 166.066251 
L 70.211132 166.061938 
L 70.361324 165.863573 
L 70.43642 165.859261 
L 70.586612 166.066251 
L 70.661708 166.061938 
L 70.8119 165.854949 
L 71.262476 165.859261 
L 71.412668 166.061938 
L 71.637956 166.053314 
L 71.788148 165.859261 
L 72.163628 165.859261 
L 72.31382 166.066251 
L 73.214972 166.053314 
L 73.365164 165.854949 
L 73.590452 165.854949 
L 73.740644 166.057626 
L 73.890836 165.859261 
L 74.341411 165.859261 
L 74.491603 166.061938 
L 75.618043 166.061938 
L 75.693139 165.854949 
L 75.843331 166.061938 
L 75.993523 166.066251 
L 76.143715 165.859261 
L 76.218811 165.859261 
L 76.369003 166.053314 
L 76.519195 166.057626 
L 76.594291 165.846324 
L 76.744483 166.053314 
L 76.894675 166.061938 
L 76.969771 165.846324 
L 77.119963 166.066251 
L 77.495443 166.057626 
L 77.570539 165.859261 
L 77.720731 166.061938 
L 77.870923 165.859261 
L 77.946019 165.863573 
L 78.096211 166.070563 
L 78.321499 166.061938 
L 78.471691 165.863573 
L 78.546787 165.863573 
L 78.696979 166.061938 
L 79.673226 166.066251 
L 80.273994 166.066251 
L 80.949858 166.057626 
L 81.024954 165.854949 
L 81.175146 166.057626 
L 82.151394 166.070563 
L 83.72841 166.087812 
L 126.683313 166.191307 
L 127.509369 166.182682 
L 135.769927 166.087812 
L 136.145407 166.049001 
L 136.370695 166.049001 
L 136.520887 165.854949 
L 138.548479 165.846324 
L 140.726262 165.846324 
L 140.876454 166.053314 
L 142.228182 166.0835 
L 142.528566 166.117998 
L 144.405965 166.117998 
L 158.148531 166.225805 
L 159.27497 166.182682 
L 188.787693 166.079187 
L 189.088076 166.053314 
L 189.238268 166.053314 
L 189.38846 165.846324 
L 190.589996 165.738517 
L 191.190764 165.647959 
L 191.941724 165.544465 
L 193.368548 164.876061 
L 194.645179 163.806615 
L 195.396139 162.788917 
L 195.846715 162.008394 
L 196.597675 160.132552 
L 197.123347 158.002286 
L 197.649019 154.703391 
L 198.099595 150.1065 
L 198.550171 143.189602 
L 199.075842 130.972911 
L 199.67661 110.489578 
L 200.652858 66.107586 
L 201.478914 31.911201 
L 201.92949 21.173622 
L 202.229874 18.301643 
L 202.380066 18.224022 
L 202.530258 19.030419 
L 202.755546 21.854963 
L 203.05593 28.073271 
L 203.581602 44.649678 
L 205.684289 119.006332 
L 206.360153 133.797455 
L 207.036017 143.81057 
L 207.636785 149.839139 
L 208.312649 154.263539 
L 208.913416 156.764661 
L 209.363992 157.993661 
L 210.039856 159.334781 
L 211.016104 160.499096 
L 211.616872 160.934637 
L 212.292736 161.309805 
L 212.893504 161.637538 
L 213.118792 161.680661 
L 215.071287 162.487058 
L 215.446767 162.58624 
L 216.197727 162.819103 
L 216.798495 162.922598 
L 217.173975 162.987282 
L 217.549455 163.02178 
L 217.849839 163.051966 
L 221.604638 163.155461 
L 221.905022 163.185647 
L 223.031462 163.349514 
L 223.482038 163.457321 
L 224.082805 163.560815 
L 224.608477 163.66431 
L 227.837605 164.121412 
L 228.738756 164.177472 
L 233.394708 164.345651 
L 235.722683 163.974794 
L 236.098163 163.810928 
L 239.402386 162.594865 
L 240.228442 162.625051 
L 242.856802 163.785054 
L 243.307378 164.043791 
L 244.734201 164.582826 
L 245.635353 164.781191 
L 245.935737 164.837251 
L 246.311217 164.94937 
L 246.761793 164.975244 
L 247.137273 165.04424 
L 250.066016 165.285728 
L 250.291304 165.281415 
L 253.144952 165.009742 
L 253.895911 164.785503 
L 254.571775 164.621637 
L 255.172543 164.544015 
L 255.472927 164.518142 
L 256.374079 164.574201 
L 256.974847 164.74238 
L 257.575615 164.841563 
L 258.026191 164.979556 
L 258.702054 165.087363 
L 259.002438 165.113237 
L 259.678302 165.182233 
L 259.978686 165.212419 
L 261.931182 165.315914 
L 262.231566 165.320226 
L 270.867604 165.415096 
L 271.167988 165.453907 
L 272.294428 165.553089 
L 272.8201 165.622086 
L 273.646155 165.678145 
L 276.649995 165.846324 
L 276.800187 166.053314 
L 276.950379 165.846324 
L 277.551147 165.846324 
L 277.701339 166.053314 
L 282.582578 166.230117 
L 284.535073 166.221493 
L 286.487569 166.225805 
L 290.317464 166.053314 
L 290.467656 165.846324 
L 290.617848 165.854949 
L 290.76804 166.053314 
L 291.068424 166.053314 
L 291.218616 165.846324 
L 291.368808 165.854949 
L 291.519 166.061938 
L 292.570344 166.087812 
L 292.870728 166.12231 
L 294.447743 166.21718 
L 294.748127 166.251679 
L 297.902159 166.359486 
L 298.127447 166.324987 
L 299.55427 166.350861 
L 301.43167 166.355173 
L 301.732054 166.320675 
L 315.549715 166.221493 
L 315.850099 166.186994 
L 319.00413 166.294801 
L 319.454706 166.324987 
L 323.434793 166.42417 
L 323.735177 166.454356 
L 330.568912 166.484542 
L 330.568912 166.484542 
" clip-path="url(#p693ead42de)" style="fill: none; stroke: #8c564b; stroke-width: 1.5; stroke-linecap: square"/>
   </g>
   <g id="patch_3">
    <path d="M 47.81 173.93875 
L 47.81 10.8 
" style="fill: none; stroke: #000000; stroke-width: 0.8; stroke-linejoin: miter; stroke-linecap: square"/>
   </g>
   <g id="patch_4">
    <path d="M 344.033622 173.93875 
L 344.033622 10.8 
" style="fill: none; stroke: #000000; stroke-width: 0.8; stroke-linejoin: miter; stroke-linecap: square"/>
   </g>
   <g id="patch_5">
    <path d="M 47.81 173.93875 
L 344.033622 173.93875 
" style="fill: none; stroke: #000000; stroke-width: 0.8; stroke-linejoin: miter; stroke-linecap: square"/>
   </g>
   <g id="patch_6">
    <path d="M 47.81 10.8 
L 344.033622 10.8 
" style="fill: none; stroke: #000000; stroke-width: 0.8; stroke-linejoin: miter; stroke-linecap: square"/>
   </g>
   <g id="text_15">
    <!-- 11094 -->
    <g transform="translate(204.489803 19.06418)scale(0.05 -0.05)">
     <defs>
      <path id="DejaVuSans-39" d="M 703 97 
L 703 672 
Q 941 559 1184 500 
Q 1428 441 1663 441 
Q 2288 441 2617 861 
Q 2947 1281 2994 2138 
Q 2813 1869 2534 1725 
Q 2256 1581 1919 1581 
Q 1219 1581 811 2004 
Q 403 2428 403 3163 
Q 403 3881 828 4315 
Q 1253 4750 1959 4750 
Q 2769 4750 3195 4129 
Q 3622 3509 3622 2328 
Q 3622 1225 3098 567 
Q 2575 -91 1691 -91 
Q 1453 -91 1209 -44 
Q 966 3 703 97 
z
M 1959 2075 
Q 2384 2075 2632 2365 
Q 2881 2656 2881 3163 
Q 2881 3666 2632 3958 
Q 2384 4250 1959 4250 
Q 1534 4250 1286 3958 
Q 1038 3666 1038 3163 
Q 1038 2656 1286 2365 
Q 1534 2075 1959 2075 
z
" transform="scale(0.015625)"/>
     </defs>
     <use xlink:href="#DejaVuSans-31"/>
     <use xlink:href="#DejaVuSans-31" x="63.623047"/>
     <use xlink:href="#DejaVuSans-30" x="127.246094"/>
     <use xlink:href="#DejaVuSans-39" x="190.869141"/>
     <use xlink:href="#DejaVuSans-34" x="254.492188"/>
    </g>
   </g>
   <g id="text_16">
    <!-- 14093 -->
    <g transform="translate(198.632316 19.286658)scale(0.05 -0.05)">
     <defs>
      <path id="DejaVuSans-33" d="M 2597 2516 
Q 3050 2419 3304 2112 
Q 3559 1806 3559 1356 
Q 3559 666 3084 287 
Q 2609 -91 1734 -91 
Q 1441 -91 1130 -33 
Q 819 25 488 141 
L 488 750 
Q 750 597 1062 519 
Q 1375 441 1716 441 
Q 2309 441 2620 675 
Q 2931 909 2931 1356 
Q 2931 1769 2642 2001 
Q 2353 2234 1838 2234 
L 1294 2234 
L 1294 2753 
L 1863 2753 
Q 2328 2753 2575 2939 
Q 2822 3125 2822 3475 
Q 2822 3834 2567 4026 
Q 2313 4219 1838 4219 
Q 1578 4219 1281 4162 
Q 984 4106 628 3988 
L 628 4550 
Q 988 4650 1302 4700 
Q 1616 4750 1894 4750 
Q 2613 4750 3031 4423 
Q 3450 4097 3450 3541 
Q 3450 3153 3228 2886 
Q 3006 2619 2597 2516 
z
" transform="scale(0.015625)"/>
     </defs>
     <use xlink:href="#DejaVuSans-31"/>
     <use xlink:href="#DejaVuSans-34" x="63.623047"/>
     <use xlink:href="#DejaVuSans-30" x="127.246094"/>
     <use xlink:href="#DejaVuSans-39" x="190.869141"/>
     <use xlink:href="#DejaVuSans-33" x="254.492188"/>
    </g>
   </g>
   <g id="text_17">
    <!-- 16168 -->
    <g transform="translate(191.498197 19.309482)scale(0.05 -0.05)">
     <use xlink:href="#DejaVuSans-31"/>
     <use xlink:href="#DejaVuSans-36" x="63.623047"/>
     <use xlink:href="#DejaVuSans-31" x="127.246094"/>
     <use xlink:href="#DejaVuSans-36" x="190.869141"/>
     <use xlink:href="#DejaVuSans-38" x="254.492188"/>
    </g>
   </g>
   <g id="text_18">
    <!-- 9661 -->
    <g transform="translate(207.357059 17.193845)scale(0.05 -0.05)">
     <use xlink:href="#DejaVuSans-39"/>
     <use xlink:href="#DejaVuSans-36" x="63.623047"/>
     <use xlink:href="#DejaVuSans-36" x="127.246094"/>
     <use xlink:href="#DejaVuSans-31" x="190.869141"/>
    </g>
   </g>
   <g id="text_19">
    <!-- 12670 -->
    <g transform="translate(193.600885 18.368186)scale(0.05 -0.05)">
     <defs>
      <path id="DejaVuSans-37" d="M 525 4666 
L 3525 4666 
L 3525 4397 
L 1831 0 
L 1172 0 
L 2766 4134 
L 525 4134 
L 525 4666 
z
" transform="scale(0.015625)"/>
     </defs>
     <use xlink:href="#DejaVuSans-31"/>
     <use xlink:href="#DejaVuSans-32" x="63.623047"/>
     <use xlink:href="#DejaVuSans-36" x="127.246094"/>
     <use xlink:href="#DejaVuSans-37" x="190.869141"/>
     <use xlink:href="#DejaVuSans-30" x="254.492188"/>
    </g>
   </g>
   <g id="text_20">
    <!-- 11021 -->
    <g transform="translate(194.351845 17.175554)scale(0.05 -0.05)">
     <use xlink:href="#DejaVuSans-31"/>
     <use xlink:href="#DejaVuSans-31" x="63.623047"/>
     <use xlink:href="#DejaVuSans-30" x="127.246094"/>
     <use xlink:href="#DejaVuSans-32" x="190.869141"/>
     <use xlink:href="#DejaVuSans-31" x="254.492188"/>
    </g>
   </g>
   <g id="legend_1">
    <g id="patch_7">
     <path d="M 285.447685 106.86875 
L 337.033622 106.86875 
Q 339.033622 106.86875 339.033622 104.86875 
L 339.033622 17.8 
Q 339.033622 15.8 337.033622 15.8 
L 285.447685 15.8 
Q 283.447685 15.8 283.447685 17.8 
L 283.447685 104.86875 
Q 283.447685 106.86875 285.447685 106.86875 
z
" style="fill: #ffffff; opacity: 0.8; stroke: #cccccc; stroke-linejoin: miter"/>
    </g>
    <g id="line2d_31">
     <path d="M 287.447685 23.898438 
L 297.447685 23.898438 
L 307.447685 23.898438 
" style="fill: none; stroke: #1f77b4; stroke-width: 1.5; stroke-linecap: square"/>
    </g>
    <g id="text_21">
     <!-- A9 -->
     <g transform="translate(315.447685 27.398438)scale(0.1 -0.1)">
      <defs>
       <path id="DejaVuSans-41" d="M 2188 4044 
L 1331 1722 
L 3047 1722 
L 2188 4044 
z
M 1831 4666 
L 2547 4666 
L 4325 0 
L 3669 0 
L 3244 1197 
L 1141 1197 
L 716 0 
L 50 0 
L 1831 4666 
z
" transform="scale(0.015625)"/>
      </defs>
      <use xlink:href="#DejaVuSans-41"/>
      <use xlink:href="#DejaVuSans-39" x="68.408203"/>
     </g>
    </g>
    <g id="line2d_32">
     <path d="M 287.447685 38.576562 
L 297.447685 38.576562 
L 307.447685 38.576562 
" style="fill: none; stroke: #ff7f0e; stroke-width: 1.5; stroke-linecap: square"/>
    </g>
    <g id="text_22">
     <!-- A12 -->
     <g transform="translate(315.447685 42.076562)scale(0.1 -0.1)">
      <use xlink:href="#DejaVuSans-41"/>
      <use xlink:href="#DejaVuSans-31" x="68.408203"/>
      <use xlink:href="#DejaVuSans-32" x="132.03125"/>
     </g>
    </g>
    <g id="line2d_33">
     <path d="M 287.447685 53.254687 
L 297.447685 53.254687 
L 307.447685 53.254687 
" style="fill: none; stroke: #2ca02c; stroke-width: 1.5; stroke-linecap: square"/>
    </g>
    <g id="text_23">
     <!-- B8 -->
     <g transform="translate(315.447685 56.754687)scale(0.1 -0.1)">
      <defs>
       <path id="DejaVuSans-42" d="M 1259 2228 
L 1259 519 
L 2272 519 
Q 2781 519 3026 730 
Q 3272 941 3272 1375 
Q 3272 1813 3026 2020 
Q 2781 2228 2272 2228 
L 1259 2228 
z
M 1259 4147 
L 1259 2741 
L 2194 2741 
Q 2656 2741 2882 2914 
Q 3109 3088 3109 3444 
Q 3109 3797 2882 3972 
Q 2656 4147 2194 4147 
L 1259 4147 
z
M 628 4666 
L 2241 4666 
Q 2963 4666 3353 4366 
Q 3744 4066 3744 3513 
Q 3744 3084 3544 2831 
Q 3344 2578 2956 2516 
Q 3422 2416 3680 2098 
Q 3938 1781 3938 1306 
Q 3938 681 3513 340 
Q 3088 0 2303 0 
L 628 0 
L 628 4666 
z
" transform="scale(0.015625)"/>
      </defs>
      <use xlink:href="#DejaVuSans-42"/>
      <use xlink:href="#DejaVuSans-38" x="68.603516"/>
     </g>
    </g>
    <g id="line2d_34">
     <path d="M 287.447685 67.932813 
L 297.447685 67.932813 
L 307.447685 67.932813 
" style="fill: none; stroke: #d62728; stroke-width: 1.5; stroke-linecap: square"/>
    </g>
    <g id="text_24">
     <!-- A1 -->
     <g transform="translate(315.447685 71.432813)scale(0.1 -0.1)">
      <use xlink:href="#DejaVuSans-41"/>
      <use xlink:href="#DejaVuSans-31" x="68.408203"/>
     </g>
    </g>
    <g id="line2d_35">
     <path d="M 287.447685 82.610938 
L 297.447685 82.610938 
L 307.447685 82.610938 
" style="fill: none; stroke: #9467bd; stroke-width: 1.5; stroke-linecap: square"/>
    </g>
    <g id="text_25">
     <!-- B12 -->
     <g transform="translate(315.447685 86.110938)scale(0.1 -0.1)">
      <use xlink:href="#DejaVuSans-42"/>
      <use xlink:href="#DejaVuSans-31" x="68.603516"/>
      <use xlink:href="#DejaVuSans-32" x="132.226562"/>
     </g>
    </g>
    <g id="line2d_36">
     <path d="M 287.447685 97.289062 
L 297.447685 97.289062 
L 307.447685 97.289062 
" style="fill: none; stroke: #8c564b; stroke-width: 1.5; stroke-linecap: square"/>
    </g>
    <g id="text_26">
     <!-- F4 -->
     <g transform="translate(315.447685 100.789062)scale(0.1 -0.1)">
      <defs>
       <path id="DejaVuSans-46" d="M 628 4666 
L 3309 4666 
L 3309 4134 
L 1259 4134 
L 1259 2759 
L 3109 2759 
L 3109 2228 
L 1259 2228 
L 1259 0 
L 628 0 
L 628 4666 
z
" transform="scale(0.015625)"/>
      </defs>
      <use xlink:href="#DejaVuSans-46"/>
      <use xlink:href="#DejaVuSans-34" x="57.519531"/>
     </g>
    </g>
   </g>
  </g>
 </g>
 <defs>
  <clipPath id="p693ead42de">
   <rect x="47.81" y="10.8" width="296.223622" height="163.13875"/>
  </clipPath>
 </defs>
</svg>
